<svg width="25" height="24" viewBox="0 0 25 24" fill="none" xmlns="http://www.w3.org/2000/svg">
<path d="M2 8.96667C2 6.35309 2 5.0463 2.50864 4.04804C2.95605 3.16995 3.66995 2.45605 4.54804 2.00864C5.5463 1.5 6.85309 1.5 9.46667 1.5H15.5333C18.1469 1.5 19.4537 1.5 20.452 2.00864C21.33 2.45605 22.044 3.16995 22.4914 4.04804C23 5.0463 23 6.35309 23 8.96667V15.0333C23 17.6469 23 18.9537 22.4914 19.952C22.044 20.83 21.33 21.544 20.452 21.9914C19.4537 22.5 18.1469 22.5 15.5333 22.5H9.46667C6.85309 22.5 5.5463 22.5 4.54804 21.9914C3.66995 21.544 2.95605 20.83 2.50864 19.952C2 18.9537 2 17.6469 2 15.0333V8.96667Z" fill="white"/>
<path d="M17.0384 6.39255L12.5481 9.89686L7.95508 6.39255V6.39349L7.96063 6.39823V11.3052L12.4963 14.8853L17.0384 11.4435V6.39255Z" fill="#EA4335"/>
<path d="M18.2176 5.53979L17.0383 6.39219V11.4431L20.749 8.59423V6.87806C20.749 6.87806 20.2986 4.42693 18.2176 5.53979Z" fill="#FBBC05"/>
<path d="M17.0383 11.4436V17.9948H19.8824C19.8824 17.9948 20.6916 17.9114 20.7499 16.989V8.5947L17.0383 11.4436Z" fill="#34A853"/>
<path d="M7.96084 17.9997V11.3045L7.95508 11.2998L7.96084 17.9997Z" fill="#C5221F"/>
<path d="M7.9551 6.3934L6.78234 5.54573C4.70135 4.43288 4.25 6.88306 4.25 6.88306V8.59922L7.9551 11.3004V6.3934Z" fill="#C5221F"/>
<path d="M7.95508 6.39352V11.3005L7.96084 11.3052V6.39826L7.95508 6.39352Z" fill="#C5221F"/>
<path d="M4.25 8.59961V16.9939C4.30734 17.9173 5.11754 17.9997 5.11754 17.9997H7.96158L7.9551 11.2998L4.25 8.59961Z" fill="#4285F4"/>
</svg>
