<svg width="539" height="343" viewBox="0 0 539 343" fill="none" xmlns="http://www.w3.org/2000/svg">
<g filter="url(#filter0_f_13_895)">
<path d="M97.4544 328.972C143.545 328.972 180.909 325.838 180.909 321.972C180.909 318.106 143.545 314.972 97.4544 314.972C51.3638 314.972 14 318.106 14 321.972C14 325.838 51.3638 328.972 97.4544 328.972Z" fill="#CDCDCD" fill-opacity="0.75"/>
</g>
<path opacity="0.5" d="M517.638 74.9717C517.638 120.259 482.012 134.972 438.065 134.972C394.118 134.972 344.906 120.259 344.906 74.9717C344.906 29.6843 423.23 0.47168 467.177 0.47168C511.124 0.47168 517.638 29.6843 517.638 74.9717Z" fill="url(#paint0_linear_13_895)"/>
<path d="M118.212 308.107L124.796 308.106L127.929 281.933L118.211 281.933L118.212 308.107Z" fill="#A0616A"/>
<path d="M117.98 315.186L138.229 315.185V314.921C138.229 312.767 137.398 310.701 135.92 309.178C134.442 307.655 132.438 306.799 130.347 306.799H130.347L126.648 303.907L119.747 306.8L117.979 306.8L117.98 315.186Z" fill="#2F2E41"/>
<path d="M71.6206 308.107L65.0359 308.106L61.9032 281.933L71.6218 281.933L71.6206 308.107Z" fill="#A0616A"/>
<path d="M71.8525 315.186L51.6035 315.185V314.921C51.6037 312.767 52.4341 310.701 53.9121 309.178C55.3901 307.655 57.3947 306.799 59.485 306.799H59.4855L63.1842 303.907L70.0852 306.8L71.8528 306.8L71.8525 315.186Z" fill="#2F2E41"/>
<path d="M128.219 262.7C128.122 261.206 127.349 252.947 127.349 252.947L125.496 235.431L122.232 189L122.019 185.961L104.92 182.578L93.2334 176.805L79.3428 181.38L68.5267 185.56C68.5267 185.56 68.5082 187.35 68.4249 189.511C68.3138 192.34 68.1193 195.809 67.6563 196.711C66.8831 198.305 67.0775 206.86 67.0775 206.86C67.0775 206.86 66.3089 224.266 65.3412 226.175C64.3735 228.083 64.1791 232.058 64.4708 232.854C64.7624 233.651 63.503 254.555 63.503 254.555C63.503 254.555 60.2707 291.546 62.2987 297.124C64.3267 302.702 71.9901 299.048 71.9901 299.048C71.9901 299.048 71.6198 297.56 73.8422 296.858C76.0647 296.157 82.834 243.705 82.834 243.705C82.834 243.705 84.0934 232.95 85.251 229.868C86.4085 226.785 87.4735 218.125 87.4735 218.125C87.4735 218.125 94.6225 203.792 94.7151 200.604C94.7151 200.604 95.6504 197.622 96.5347 200.905C97.4191 204.188 100.026 212.051 100.026 212.051L102.568 221.708L105.559 236.137L107.494 248.285C107.494 248.285 110.393 264.408 110.856 265.104C111.319 265.801 110.856 280.53 110.856 280.53C110.856 280.53 113.097 293.074 116.264 295.265C119.431 297.455 127.822 295.299 127.822 295.299C127.822 295.299 128.316 264.193 128.219 262.7Z" fill="#2F2E41"/>
<path d="M120.924 143.615L117.122 155.414L121.813 161.168L119.747 163.359L121.271 166.455L125.244 198.911L103.463 207.423L96.129 197.946L90.3458 207.423L65.1437 201.077L71.5708 159.69V156.984L73.3854 151.759V140.699L68.5934 107.776L82.8963 102.614L89.7349 97.0361L91.9479 104.88L101.37 103.153L101.616 97.26L108.825 104.279L114.896 106.063L122.165 107.776L123.091 110.162L121.239 109.685L121.54 140.723L120.924 143.615Z" fill="#2F2E41"/>
<path d="M127.434 186.788L123.776 150.301L122.811 135.284L133.049 133.376C133.049 133.376 132.644 144.114 133.985 150.172C135.308 156.15 134.16 185.987 134.079 186.785C134.831 187.478 135.361 188.39 135.599 189.4C135.837 190.41 135.772 191.471 135.412 192.442C135.052 193.413 134.415 194.249 133.585 194.839C132.754 195.428 131.769 195.744 130.761 195.745C129.752 195.745 128.767 195.43 127.936 194.841C127.104 194.252 126.466 193.417 126.106 192.446C125.745 191.476 125.679 190.415 125.916 189.405C126.154 188.394 126.683 187.482 127.434 186.788Z" fill="#A0616A"/>
<path d="M137.421 157.862L134.574 158.468L124.804 160.553L124.262 160.668L123.109 155.944L121.771 154.474L119.225 140.723L119.09 140.007L115.243 131.533L112.581 106.063L122.48 107.896C122.531 107.948 122.577 108.005 122.624 108.063C124.045 109.723 125.059 112.032 126.717 114.356C132.111 121.919 136.25 140.294 136.088 150.361C136.083 150.523 136.245 150.7 136.44 150.881C137.358 151.751 137.957 152.92 138.135 154.192C138.314 155.463 138.062 156.76 137.421 157.862Z" fill="#2F2E41"/>
<path d="M63.787 186.788L67.4449 150.301L68.4104 135.284L58.1718 133.376C58.1718 133.376 58.5775 144.114 57.2363 150.172C55.9127 156.15 57.0607 185.987 57.1425 186.785C56.3905 187.478 55.8605 188.39 55.6224 189.4C55.3843 190.41 55.4494 191.471 55.809 192.442C56.1686 193.413 56.8059 194.249 57.6365 194.839C58.4671 195.428 59.4519 195.744 60.4606 195.745C61.4693 195.745 62.4543 195.43 63.2855 194.841C64.1166 194.252 64.7547 193.417 65.1152 192.446C65.4757 191.476 65.5418 190.415 65.3046 189.405C65.0675 188.394 64.5382 187.482 63.787 186.788Z" fill="#A0616A"/>
<path d="M53.8 157.862L56.6475 158.468L66.4172 160.553L66.9589 160.668L68.1119 155.944L69.45 154.474L71.9966 140.723L72.1308 140.007L75.9785 131.533L75.0988 106.063L68.7413 107.896C68.6904 107.948 68.6441 108.005 68.5978 108.063C67.1763 109.723 66.1623 112.032 64.5047 114.356C59.1105 121.919 54.9714 140.294 55.1335 150.361C55.1381 150.523 54.976 150.7 54.7816 150.881C53.8636 151.751 53.2647 152.92 53.0859 154.192C52.9071 155.463 53.1593 156.76 53.8 157.862Z" fill="#2F2E41"/>
<path d="M106.267 109.832L101.616 97.2601L89.7349 97.0359L85.7924 109.832L71.6218 191.408C71.6218 191.408 115.035 203.866 114.594 188.89C114.131 173.145 112.042 152.229 112.042 152.229L106.267 109.832Z" fill="#1D9BF0"/>
<path d="M95.9413 93.7437C88.2115 93.7437 81.9453 87.2863 81.9453 79.3208C81.9453 71.3553 88.2115 64.8979 95.9413 64.8979C103.671 64.8979 109.937 71.3553 109.937 79.3208C109.937 87.2863 103.671 93.7437 95.9413 93.7437Z" fill="#A0616A"/>
<path d="M110.762 68.858C108.484 66.3023 105.634 61.6241 97.0012 59.6596C86.3343 57.2321 81.2939 67.1621 83.9839 67.3249C76.118 69.7795 81.1709 86.5537 83.4259 85.1469C83.4453 85.133 83.4639 85.1181 83.4817 85.1021C84.6944 84.1818 85.7124 83.0163 86.4733 81.6768C87.2342 80.3374 87.7222 78.8521 87.9073 77.3118L88.3353 73.3424C88.3964 76.572 91.5998 76.9993 94.8723 75.8098C94.6788 75.1017 94.3095 74.4579 93.8008 73.9417C93.2922 73.4256 92.6617 73.0551 91.9716 72.8667C94.2529 74.9979 97.1508 76.2973 100.219 76.5647C100.058 75.756 99.7315 74.9922 99.2605 74.3245C98.7896 73.6567 98.1855 73.1006 97.4888 72.6933L97.618 72.5625C98.896 73.6731 100.363 74.5293 101.945 75.0872C103.749 75.6201 105.91 75.3318 107.146 73.8766C107.479 73.475 107.731 73.0088 107.886 72.5054C107.618 75.0632 109.283 77.9828 110.576 77.4816C111.652 77.2661 112.279 70.5594 110.762 68.858Z" fill="#2F2E41"/>
<path d="M463.051 55.2358L134.399 104.16L156.928 264.868L485.579 215.944L463.051 55.2358Z" fill="#F1F1F1"/>
<path d="M455.585 70.4158L145.729 116.542L164.525 250.626L474.381 204.499L455.585 70.4158Z" fill="white"/>
<path d="M461.609 45.9716L132.958 94.896L134.974 109.284L463.626 60.3596L461.609 45.9716Z" fill="#E5E5E5"/>
<path d="M144.519 104.507C145.963 104.507 147.134 103.3 147.134 101.812C147.134 100.324 145.963 99.1177 144.519 99.1177C143.075 99.1177 141.905 100.324 141.905 101.812C141.905 103.3 143.075 104.507 144.519 104.507Z" fill="white"/>
<path d="M154.342 103.044C155.786 103.044 156.956 101.838 156.956 100.35C156.956 98.8616 155.786 97.6553 154.342 97.6553C152.898 97.6553 151.727 98.8616 151.727 100.35C151.727 101.838 152.898 103.044 154.342 103.044Z" fill="white"/>
<path d="M164.164 101.582C165.609 101.582 166.779 100.376 166.779 98.8876C166.779 97.3995 165.609 96.1931 164.164 96.1931C162.72 96.1931 161.55 97.3995 161.55 98.8876C161.55 100.376 162.72 101.582 164.164 101.582Z" fill="white"/>
<path d="M538.547 124.385H206.484V286.761H538.547V124.385Z" fill="#E6E6E6"/>
<path d="M529.052 138.309H215.98V273.784H529.052V138.309Z" fill="white"/>
<path d="M538.406 115.003H206.343V129.541H538.406V115.003Z" fill="#CBCBCB"/>
<path d="M216.826 126.246C218.27 126.246 219.441 125.04 219.441 123.552C219.441 122.064 218.27 120.857 216.826 120.857C215.382 120.857 214.211 122.064 214.211 123.552C214.211 125.04 215.382 126.246 216.826 126.246Z" fill="white"/>
<path d="M226.75 126.246C228.194 126.246 229.365 125.04 229.365 123.552C229.365 122.064 228.194 120.857 226.75 120.857C225.306 120.857 224.135 122.064 224.135 123.552C224.135 125.04 225.306 126.246 226.75 126.246Z" fill="white"/>
<path d="M236.675 126.246C238.119 126.246 239.29 125.04 239.29 123.552C239.29 122.064 238.119 120.857 236.675 120.857C235.231 120.857 234.061 122.064 234.061 123.552C234.061 125.04 235.231 126.246 236.675 126.246Z" fill="white"/>
<path d="M440.474 158.906H396.381V162.321H440.474V158.906Z" fill="#E6E6E6"/>
<path d="M464.47 168.932H396.381V172.347H464.47V168.932Z" fill="#E6E6E6"/>
<path d="M452.58 178.48H397.089V181.895H452.58V178.48Z" fill="#E6E6E6"/>
<path d="M428.776 188.957H396.381V192.372H428.776V188.957Z" fill="#E6E6E6"/>
<path d="M445.273 199.19H396.381V202.606H445.273V199.19Z" fill="#E6E6E6"/>
<path d="M381.684 157.832H376.285V163.396H381.684V157.832Z" fill="#E6E6E6"/>
<path d="M381.684 167.858H376.285V173.421H381.684V167.858Z" fill="#E6E6E6"/>
<path d="M381.684 177.406H376.285V182.97H381.684V177.406Z" fill="#E6E6E6"/>
<path d="M381.684 187.883H376.285V193.446H381.684V187.883Z" fill="#E6E6E6"/>
<path d="M381.684 198.116H376.285V203.68H381.684V198.116Z" fill="#E6E6E6"/>
<path d="M440.474 209.488H396.381V212.903H440.474V209.488Z" fill="#E6E6E6"/>
<path d="M464.47 219.513H396.381V222.929H464.47V219.513Z" fill="#E6E6E6"/>
<path d="M452.58 229.062H397.089V232.477H452.58V229.062Z" fill="#E6E6E6"/>
<path d="M428.776 239.538H396.381V242.953H428.776V239.538Z" fill="#E6E6E6"/>
<path d="M445.273 249.772H396.381V253.187H445.273V249.772Z" fill="#E6E6E6"/>
<path d="M381.684 208.413H376.285V213.977H381.684V208.413Z" fill="#E6E6E6"/>
<path d="M381.684 218.439H376.285V224.003H381.684V218.439Z" fill="#E6E6E6"/>
<path d="M381.684 227.988H376.285V233.551H381.684V227.988Z" fill="#E6E6E6"/>
<path d="M381.684 238.464H376.285V244.028H381.684V238.464Z" fill="#E6E6E6"/>
<path d="M381.684 248.698H376.285V254.261H381.684V248.698Z" fill="#E6E6E6"/>
<path d="M300.988 236.276H256.896V239.692H300.988V236.276Z" fill="#E6E6E6"/>
<path d="M306.487 245.15H250.996V248.566H306.487V245.15Z" fill="#E6E6E6"/>
<path d="M307.6 193.196C307.598 198.328 306.304 203.373 303.845 207.837C301.386 212.301 297.846 216.031 293.57 218.663C289.294 221.296 284.428 222.74 279.449 222.856C274.469 222.972 269.545 221.755 265.159 219.324L265.153 219.318C260.672 216.83 256.911 213.163 254.253 208.69C251.596 204.216 250.136 199.097 250.024 193.853C249.911 188.609 251.15 183.428 253.613 178.839C256.076 174.249 259.676 170.414 264.046 167.724C268.416 165.035 273.4 163.588 278.489 163.529C283.579 163.471 288.592 164.805 293.019 167.393C297.446 169.982 301.127 173.734 303.689 178.267C306.25 182.799 307.6 187.95 307.6 193.196V193.196Z" fill="#E6E6E6"/>
<path d="M278.957 191.755C283.279 191.755 286.783 188.145 286.783 183.69C286.783 179.236 283.279 175.625 278.957 175.625C274.634 175.625 271.13 179.236 271.13 183.69C271.13 188.145 274.634 191.755 278.957 191.755Z" fill="white"/>
<path d="M292.32 208.42C283.571 211.585 274.031 211.546 265.305 208.312L265.3 208.308L271.13 196.448H286.783L292.32 208.42Z" fill="white"/>
<path d="M192.305 266.838C178.664 266.838 167.566 254.689 167.566 239.756C167.566 224.823 178.664 212.674 192.305 212.674C205.947 212.674 217.045 224.823 217.045 239.756C217.045 254.689 205.947 266.838 192.305 266.838ZM192.305 219.517C182.325 219.517 174.206 228.596 174.206 239.756C174.206 250.916 182.325 259.995 192.305 259.995C202.285 259.995 210.404 250.916 210.404 239.756C210.404 228.596 202.285 219.517 192.305 219.517Z" fill="#1D9BF0"/>
<path d="M215.732 314.034H168.878C164.746 314.029 160.785 312.335 157.863 309.325C154.942 306.314 153.298 302.232 153.293 297.974V250.613C153.297 247.698 154.422 244.903 156.422 242.842C158.422 240.781 161.134 239.621 163.963 239.618H220.647C223.476 239.621 226.188 240.781 228.188 242.842C230.189 244.903 231.314 247.698 231.317 250.613V297.974C231.312 302.232 229.669 306.314 226.747 309.325C223.826 312.335 219.864 314.029 215.732 314.034Z" fill="#3F3D56"/>
<path d="M201.436 266.562C201.437 264.889 201.005 263.246 200.186 261.803C199.366 260.359 198.188 259.167 196.772 258.349C195.357 257.53 193.755 257.116 192.132 257.147C190.51 257.179 188.924 257.656 187.54 258.529C186.156 259.401 185.022 260.639 184.256 262.113C183.49 263.588 183.119 265.246 183.182 266.918C183.244 268.589 183.738 270.213 184.612 271.622C185.486 273.031 186.709 274.175 188.155 274.935V289.656H196.455V274.935C197.954 274.148 199.212 272.95 200.091 271.472C200.97 269.994 201.435 268.295 201.436 266.562Z" fill="white"/>
<defs>
<filter id="filter0_f_13_895" x="0" y="300.972" width="194.909" height="42" filterUnits="userSpaceOnUse" color-interpolation-filters="sRGB">
<feFlood flood-opacity="0" result="BackgroundImageFix"/>
<feBlend mode="normal" in="SourceGraphic" in2="BackgroundImageFix" result="shape"/>
<feGaussianBlur stdDeviation="7" result="effect1_foregroundBlur_13_895"/>
</filter>
<linearGradient id="paint0_linear_13_895" x1="344.906" y1="67.7217" x2="517.638" y2="67.7217" gradientUnits="userSpaceOnUse">
<stop offset="0.0484448" stop-color="#34F7F7"/>
<stop offset="0.962033" stop-color="#1D9BF0"/>
</linearGradient>
</defs>
</svg>
