<svg width="389" height="396" viewBox="0 0 389 396" fill="none" xmlns="http://www.w3.org/2000/svg">
<g filter="url(#filter0_f_13_839)">
<path d="M195 381.472C242.496 381.472 281 378.338 281 374.472C281 370.606 242.496 367.472 195 367.472C147.504 367.472 109 370.606 109 374.472C109 378.338 147.504 381.472 195 381.472Z" fill="#CDCDCD" fill-opacity="0.75"/>
</g>
<path opacity="0.5" d="M344 145.972C344 216.849 318.377 245.472 247.5 245.472C176.623 245.472 89 216.849 89 145.972C89 75.0943 176.623 0.471558 247.5 0.471558C318.377 0.471558 344 75.0943 344 145.972Z" fill="url(#paint0_linear_13_839)"/>
<g clip-path="url(#clip0_13_839)">
<path d="M276.539 107.668H274.731V58.1382C274.731 54.3737 273.99 50.6459 272.549 47.1679C271.108 43.6899 268.997 40.5297 266.335 37.8678C263.673 35.2058 260.513 33.0942 257.035 31.6536C253.557 30.2129 249.829 29.4714 246.064 29.4714H141.128C137.363 29.4714 133.635 30.2129 130.157 31.6535C126.679 33.0942 123.519 35.2057 120.857 37.8677C118.195 40.5296 116.084 43.6898 114.643 47.1679C113.202 50.6459 112.461 54.3736 112.461 58.1381V329.865C112.461 337.468 115.481 344.76 120.857 350.136C126.233 355.512 133.525 358.532 141.128 358.532H246.064C253.667 358.532 260.959 355.512 266.335 350.136C271.711 344.76 274.731 337.468 274.731 329.865V142.925H276.539V107.668Z" fill="#3F3D56"/>
<path d="M247.221 36.9296H233.523C234.153 38.4739 234.394 40.1495 234.223 41.8087C234.053 43.4679 233.478 45.0598 232.547 46.4441C231.617 47.8284 230.36 48.9627 228.889 49.747C227.417 50.5313 225.774 50.9416 224.106 50.9418H163.99C162.322 50.9416 160.679 50.5313 159.207 49.747C157.735 48.9627 156.479 47.8284 155.549 46.4441C154.618 45.0598 154.043 43.4679 153.872 41.8087C153.702 40.1495 153.943 38.4739 154.573 36.9296H141.779C136.101 36.9296 130.656 39.185 126.641 43.1998C122.626 47.2146 120.371 52.6598 120.371 58.3376V329.666C120.371 332.477 120.925 335.261 122.001 337.858C123.076 340.456 124.653 342.816 126.641 344.804C128.629 346.792 130.989 348.368 133.586 349.444C136.184 350.52 138.968 351.074 141.779 351.074H247.221C250.032 351.074 252.816 350.52 255.413 349.444C258.011 348.368 260.371 346.792 262.359 344.804C264.347 342.816 265.924 340.456 266.999 337.858C268.075 335.261 268.629 332.477 268.629 329.666V58.3376C268.629 55.5262 268.075 52.7424 266.999 50.1451C265.924 47.5477 264.347 45.1877 262.359 43.1998C260.371 41.2119 258.011 39.635 255.413 38.5592C252.816 37.4833 250.032 36.9296 247.221 36.9296Z" fill="white"/>
<path d="M244.58 346.415H144.42C132.912 346.415 123.549 338.058 123.549 327.786V314.3C123.549 306.112 131.005 299.452 140.171 299.452H248.829C257.995 299.452 265.451 306.112 265.451 314.3V327.786C265.451 338.058 256.088 346.415 244.58 346.415Z" fill="#E5E5E5"/>
<path d="M154.949 119.744H132.607C132.207 119.744 131.823 119.585 131.54 119.302C131.257 119.019 131.098 118.635 131.098 118.235V95.8929C131.098 95.4927 131.257 95.109 131.54 94.826C131.823 94.543 132.207 94.3838 132.607 94.3833H154.949C155.349 94.3838 155.733 94.543 156.016 94.826C156.299 95.109 156.458 95.4927 156.459 95.8929V118.235C156.458 118.635 156.299 119.019 156.016 119.302C155.733 119.585 155.349 119.744 154.949 119.744Z" fill="#1D9BF0"/>
<path d="M188.764 119.744H166.422C166.022 119.744 165.638 119.585 165.355 119.302C165.072 119.019 164.913 118.635 164.912 118.235V95.8929C164.913 95.4927 165.072 95.109 165.355 94.826C165.638 94.543 166.022 94.3838 166.422 94.3833H188.764C189.164 94.3838 189.547 94.543 189.83 94.826C190.113 95.109 190.273 95.4927 190.273 95.8929V118.235C190.273 118.635 190.113 119.019 189.83 119.302C189.547 119.585 189.164 119.744 188.764 119.744Z" fill="#E5E5E5"/>
<path d="M222.578 119.744H200.236C199.836 119.744 199.452 119.585 199.169 119.302C198.886 119.019 198.727 118.635 198.727 118.235V95.8929C198.727 95.4927 198.886 95.109 199.169 94.826C199.452 94.543 199.836 94.3838 200.236 94.3833H222.578C222.978 94.3838 223.362 94.543 223.645 94.826C223.928 95.109 224.087 95.4927 224.088 95.8929V118.235C224.087 118.635 223.928 119.019 223.645 119.302C223.362 119.585 222.978 119.744 222.578 119.744Z" fill="#E5E5E5"/>
<path d="M256.393 119.744H234.051C233.651 119.744 233.267 119.585 232.984 119.302C232.701 119.019 232.542 118.635 232.541 118.235V95.8929C232.542 95.4927 232.701 95.109 232.984 94.826C233.267 94.543 233.651 94.3838 234.051 94.3833H256.393C256.793 94.3838 257.176 94.543 257.459 94.826C257.742 95.109 257.902 95.4927 257.902 95.8929V118.235C257.902 118.635 257.742 119.019 257.459 119.302C257.176 119.585 256.793 119.744 256.393 119.744Z" fill="#E5E5E5"/>
<path d="M154.869 161.107H132.528C132.127 161.106 131.744 160.947 131.461 160.664C131.178 160.381 131.018 159.997 131.018 159.597V137.255C131.018 136.855 131.178 136.472 131.461 136.189C131.744 135.906 132.127 135.746 132.528 135.746H154.869C155.269 135.746 155.653 135.906 155.936 136.189C156.219 136.472 156.378 136.855 156.379 137.255V159.597C156.378 159.997 156.219 160.381 155.936 160.664C155.653 160.947 155.269 161.106 154.869 161.107Z" fill="#E5E5E5"/>
<path d="M188.684 161.107H166.342C165.942 161.106 165.558 160.947 165.275 160.664C164.992 160.381 164.833 159.997 164.832 159.597V137.255C164.833 136.855 164.992 136.472 165.275 136.189C165.558 135.906 165.942 135.746 166.342 135.746H188.684C189.084 135.746 189.468 135.906 189.751 136.189C190.034 136.472 190.193 136.855 190.193 137.255V159.597C190.193 159.997 190.034 160.381 189.751 160.664C189.468 160.947 189.084 161.106 188.684 161.107Z" fill="#E5E5E5"/>
<path d="M222.498 161.107H200.157C199.756 161.106 199.373 160.947 199.09 160.664C198.807 160.381 198.647 159.997 198.647 159.597V137.255C198.647 136.855 198.807 136.472 199.09 136.189C199.373 135.906 199.756 135.746 200.157 135.746H222.498C222.899 135.746 223.282 135.906 223.565 136.189C223.848 136.472 224.007 136.855 224.008 137.255V159.597C224.007 159.997 223.848 160.381 223.565 160.664C223.282 160.947 222.899 161.106 222.498 161.107Z" fill="#1D9BF0"/>
<path d="M256.313 161.107H233.971C233.571 161.106 233.187 160.947 232.904 160.664C232.621 160.381 232.462 159.997 232.461 159.597V137.255C232.462 136.855 232.621 136.472 232.904 136.189C233.187 135.906 233.571 135.746 233.971 135.746H256.313C256.713 135.746 257.097 135.906 257.38 136.189C257.663 136.472 257.822 136.855 257.822 137.255V159.597C257.822 159.997 257.663 160.381 257.38 160.664C257.097 160.947 256.713 161.106 256.313 161.107Z" fill="#1D9BF0"/>
<path d="M154.789 202.469H132.448C132.047 202.469 131.664 202.309 131.381 202.026C131.098 201.743 130.938 201.36 130.938 200.959V178.618C130.938 178.218 131.098 177.834 131.381 177.551C131.664 177.268 132.047 177.109 132.448 177.108H154.789C155.19 177.109 155.573 177.268 155.856 177.551C156.139 177.834 156.298 178.218 156.299 178.618V200.959C156.298 201.36 156.139 201.743 155.856 202.026C155.573 202.309 155.19 202.469 154.789 202.469Z" fill="#E5E5E5"/>
<path d="M188.604 202.469H166.262C165.862 202.469 165.478 202.309 165.195 202.026C164.912 201.743 164.753 201.36 164.752 200.959V178.618C164.753 178.218 164.912 177.834 165.195 177.551C165.478 177.268 165.862 177.109 166.262 177.108H188.604C189.004 177.109 189.388 177.268 189.671 177.551C189.954 177.834 190.113 178.218 190.113 178.618V200.959C190.113 201.36 189.954 201.743 189.671 202.026C189.388 202.309 189.004 202.469 188.604 202.469Z" fill="#E5E5E5"/>
<path d="M222.418 202.469H200.077C199.677 202.469 199.293 202.309 199.01 202.026C198.727 201.743 198.568 201.36 198.567 200.959V178.618C198.568 178.218 198.727 177.834 199.01 177.551C199.293 177.268 199.677 177.109 200.077 177.108H222.418C222.819 177.109 223.202 177.268 223.485 177.551C223.768 177.834 223.928 178.218 223.928 178.618V200.959C223.928 201.36 223.768 201.743 223.485 202.026C223.202 202.309 222.819 202.469 222.418 202.469Z" fill="#E5E5E5"/>
<path d="M256.233 202.469H233.891C233.491 202.469 233.107 202.309 232.824 202.026C232.541 201.743 232.382 201.36 232.382 200.959V178.618C232.382 178.218 232.541 177.834 232.824 177.551C233.107 177.268 233.491 177.109 233.891 177.108H256.233C256.633 177.109 257.017 177.268 257.3 177.551C257.583 177.834 257.742 178.218 257.743 178.618V200.959C257.742 201.36 257.583 201.743 257.3 202.026C257.017 202.309 256.633 202.469 256.233 202.469Z" fill="#E5E5E5"/>
<path d="M154.709 243.832H132.367C131.967 243.831 131.584 243.672 131.301 243.389C131.018 243.106 130.858 242.722 130.858 242.322V219.98C130.858 219.58 131.018 219.196 131.301 218.913C131.584 218.63 131.967 218.471 132.367 218.471H154.709C155.109 218.471 155.493 218.63 155.776 218.913C156.059 219.196 156.218 219.58 156.219 219.98V242.322C156.218 242.722 156.059 243.106 155.776 243.389C155.493 243.672 155.109 243.831 154.709 243.832Z" fill="#E5E5E5"/>
<path d="M188.524 243.832H166.182C165.782 243.831 165.398 243.672 165.115 243.389C164.832 243.106 164.673 242.722 164.673 242.322V219.98C164.673 219.58 164.832 219.196 165.115 218.913C165.398 218.63 165.782 218.471 166.182 218.471H188.524C188.924 218.471 189.308 218.63 189.591 218.913C189.874 219.196 190.033 219.58 190.034 219.98V242.322C190.033 242.722 189.874 243.106 189.591 243.389C189.308 243.672 188.924 243.831 188.524 243.832Z" fill="#E5E5E5"/>
<path d="M222.338 243.832H199.997C199.596 243.831 199.213 243.672 198.93 243.389C198.647 243.106 198.488 242.722 198.487 242.322V219.98C198.488 219.58 198.647 219.196 198.93 218.913C199.213 218.63 199.596 218.471 199.997 218.471H222.338C222.739 218.471 223.122 218.63 223.405 218.913C223.688 219.196 223.848 219.58 223.848 219.98V242.322C223.848 242.722 223.688 243.106 223.405 243.389C223.122 243.672 222.739 243.831 222.338 243.832Z" fill="#E5E5E5"/>
<path d="M256.153 243.832H233.811C233.411 243.831 233.027 243.672 232.744 243.389C232.461 243.106 232.302 242.722 232.302 242.322V219.98C232.302 219.58 232.461 219.196 232.744 218.913C233.027 218.63 233.411 218.471 233.811 218.471H256.153C256.553 218.471 256.937 218.63 257.22 218.913C257.503 219.196 257.662 219.58 257.663 219.98V242.322C257.662 242.722 257.503 243.106 257.22 243.389C256.937 243.672 256.553 243.831 256.153 243.832Z" fill="#E5E5E5"/>
<path d="M154.949 336.218H132.607C132.207 336.217 131.823 336.058 131.54 335.775C131.257 335.492 131.098 335.108 131.098 334.708V312.367C131.098 311.966 131.257 311.583 131.54 311.3C131.823 311.017 132.207 310.857 132.607 310.857H154.949C155.349 310.857 155.733 311.017 156.016 311.3C156.299 311.583 156.458 311.966 156.459 312.367V334.708C156.458 335.108 156.299 335.492 156.016 335.775C155.733 336.058 155.349 336.217 154.949 336.218Z" fill="white"/>
<path d="M188.764 336.218H166.422C166.022 336.217 165.638 336.058 165.355 335.775C165.072 335.492 164.913 335.108 164.912 334.708V312.367C164.913 311.966 165.072 311.583 165.355 311.3C165.638 311.017 166.022 310.857 166.422 310.857H188.764C189.164 310.857 189.547 311.017 189.83 311.3C190.113 311.583 190.273 311.966 190.273 312.367V334.708C190.273 335.108 190.113 335.492 189.83 335.775C189.547 336.058 189.164 336.217 188.764 336.218Z" fill="white"/>
<path d="M222.578 336.218H200.236C199.836 336.217 199.452 336.058 199.169 335.775C198.886 335.492 198.727 335.108 198.727 334.708V312.367C198.727 311.966 198.886 311.583 199.169 311.3C199.452 311.017 199.836 310.857 200.236 310.857H222.578C222.978 310.857 223.362 311.017 223.645 311.3C223.928 311.583 224.087 311.966 224.088 312.367V334.708C224.087 335.108 223.928 335.492 223.645 335.775C223.362 336.058 222.978 336.217 222.578 336.218Z" fill="white"/>
<path d="M256.393 336.218H234.051C233.651 336.217 233.267 336.058 232.984 335.775C232.701 335.492 232.542 335.108 232.541 334.708V312.367C232.542 311.966 232.701 311.583 232.984 311.3C233.267 311.017 233.651 310.857 234.051 310.857H256.393C256.793 310.857 257.176 311.017 257.459 311.3C257.742 311.583 257.902 311.966 257.902 312.367V334.708C257.902 335.108 257.742 335.492 257.459 335.775C257.177 336.058 256.793 336.217 256.393 336.218Z" fill="white"/>
<path d="M183.551 289.119C185.219 289.119 186.57 287.767 186.57 286.1C186.57 284.432 185.219 283.081 183.551 283.081C181.884 283.081 180.532 284.432 180.532 286.1C180.532 287.767 181.884 289.119 183.551 289.119Z" fill="#E5E5E5"/>
<path d="M194.42 289.119C196.088 289.119 197.439 287.767 197.439 286.1C197.439 284.432 196.088 283.081 194.42 283.081C192.753 283.081 191.401 284.432 191.401 286.1C191.401 287.767 192.753 289.119 194.42 289.119Z" fill="#E5E5E5"/>
<path d="M205.289 289.119C206.956 289.119 208.308 287.767 208.308 286.1C208.308 284.432 206.956 283.081 205.289 283.081C203.622 283.081 202.27 284.432 202.27 286.1C202.27 287.767 203.622 289.119 205.289 289.119Z" fill="#E5E5E5"/>
<path d="M152.775 266.851C153.406 266.22 153.892 265.458 154.197 264.619C154.502 263.779 154.62 262.883 154.541 261.994C154.462 261.104 154.19 260.243 153.742 259.47C153.295 258.697 152.683 258.032 151.951 257.521L157.847 236.63L147.097 240.048L143.146 259.363C142.369 260.65 142.092 262.178 142.366 263.656C142.641 265.134 143.448 266.461 144.634 267.384C145.821 268.307 147.305 268.762 148.806 268.664C150.306 268.566 151.718 267.921 152.775 266.851Z" fill="#FFB7B7"/>
<path d="M155.831 254.046C155.639 254.083 155.444 254.099 155.248 254.095L144.936 253.889C144.548 253.881 144.166 253.79 143.815 253.624C143.465 253.457 143.154 253.217 142.903 252.921C142.653 252.624 142.468 252.278 142.362 251.905C142.255 251.531 142.23 251.14 142.287 250.756L152.748 180.075C153.06 178.031 154.093 176.165 155.661 174.816C157.228 173.467 159.226 172.723 161.294 172.718C162.6 172.721 163.888 173.021 165.061 173.595C166.234 174.169 167.261 175.002 168.065 176.031C168.869 177.06 169.428 178.259 169.701 179.536C169.974 180.813 169.954 182.135 169.641 183.403L162.226 213.435L158.02 251.661C157.959 252.241 157.714 252.786 157.319 253.215C156.925 253.645 156.403 253.936 155.831 254.046Z" fill="#3F3D56"/>
<path d="M160.143 365.624H165.882L168.613 343.488L160.142 343.488L160.143 365.624Z" fill="#FFB7B7"/>
<path d="M158.679 363.75L169.981 363.75H169.982C171.892 363.75 173.724 364.509 175.075 365.86C176.425 367.21 177.184 369.042 177.184 370.952V371.187L158.68 371.187L158.679 363.75Z" fill="#2F2E41"/>
<path d="M184.615 363.76L190.318 364.4L195.498 342.706L187.081 341.762L184.615 363.76Z" fill="#FFB7B7"/>
<path d="M183.368 361.735L194.6 362.994L194.601 362.994C196.499 363.207 198.235 364.166 199.427 365.659C200.618 367.151 201.168 369.056 200.956 370.955L200.929 371.187L182.54 369.126L183.368 361.735Z" fill="#2F2E41"/>
<path d="M154.757 242.441C154.757 242.441 146.889 259.859 153.837 271.172L157.976 359.256H167.48L176.701 288.103L193.085 309.168L183.103 358.332L194.727 358.985L210.873 309.168C210.873 309.168 198.469 254.236 194.372 252.913L191.68 240.355L154.757 242.441Z" fill="#2F2E41"/>
<path d="M151.255 257.733C151.255 257.733 144.167 265.867 162.891 268.676C181.616 271.485 201.277 267.272 201.745 261.654C202.213 256.037 151.255 257.733 151.255 257.733Z" fill="#CBCBCB"/>
<path d="M185.261 169.955L175.254 165.427L162.433 166.344C162.433 166.344 146.976 184.416 153.061 201.736L149.316 262.122C173.19 268.676 184.042 256.384 201.276 261.654L195.953 194.542L185.261 169.955Z" fill="#3F3D56"/>
<path d="M180.881 160.349C188.536 156.164 191.349 146.567 187.164 138.912C182.98 131.257 173.382 128.443 165.727 132.628C158.072 136.813 155.259 146.41 159.443 154.065C163.628 161.72 173.226 164.534 180.881 160.349Z" fill="#FFB7B7"/>
<path d="M159.641 134.139C162.461 129.067 165.984 125.784 171.785 125.902C177.587 126.021 182.605 125.791 185.215 130.974C185.905 129.682 186.25 128.234 186.218 126.77C187.006 127.282 187.627 128.013 188.005 128.874C188.383 129.734 188.5 130.686 188.343 131.613C188.851 131.316 189.276 130.896 189.579 130.391C189.882 129.887 190.054 129.315 190.079 128.727C192.015 129.371 192.518 132.1 191.539 133.89C190.559 135.68 188.638 136.715 186.794 137.59C184.951 138.465 185.802 143.092 184.598 144.74C183.758 145.89 183.374 147.299 182.808 148.606C182.784 148.657 182.744 148.7 182.693 148.725C181.395 149.449 180.576 150.742 180.805 152.211C180.832 152.321 180.826 152.436 180.787 152.543C179.143 155.638 177.37 158.877 174.391 160.724C172.001 162.168 169.139 162.61 166.425 161.956C163.38 161.228 160.748 159.21 158.851 156.72C156.953 154.231 155.732 151.289 154.815 148.296C154.001 145.642 153.409 142.803 154.055 140.102C154.7 137.401 156.885 134.901 159.654 134.692" fill="#2F2E41"/>
<path d="M238.268 147.959L242.793 143.111" stroke="white" stroke-width="1.93932" stroke-linecap="round"/>
<line x1="243.117" y1="142.788" x2="243.117" y2="153.777" stroke="white" stroke-width="1.93932" stroke-linecap="round"/>
<path d="M251.844 148.606L247.318 153.454" stroke="white" stroke-width="1.93932" stroke-linecap="round"/>
<line x1="246.995" y1="153.777" x2="246.995" y2="142.788" stroke="white" stroke-width="1.93932" stroke-linecap="round"/>
<path d="M245.119 156.822C245.09 157.617 244.887 158.395 244.525 159.102C244.163 159.809 243.65 160.428 243.022 160.916C242.395 161.403 241.668 161.748 240.894 161.924C240.119 162.1 239.315 162.105 238.538 161.937L231.46 172.143L224.208 169.355L234.406 155.081C234.775 153.795 235.603 152.689 236.732 151.973C237.862 151.256 239.215 150.979 240.536 151.194C241.856 151.408 243.052 152.1 243.897 153.137C244.742 154.175 245.177 155.486 245.119 156.822Z" fill="#FFB7B7"/>
<path d="M178.573 174.352L185.261 169.955C185.261 169.955 194.552 168.55 198.265 172.153C198.265 172.153 210.87 173.208 213.914 176.355L217.266 177.11L228.401 162.691L235.215 166.394L225.384 193.076L195.953 194.542L178.573 174.352Z" fill="#3F3D56"/>
</g>
<defs>
<filter id="filter0_f_13_839" x="95" y="353.472" width="200" height="42" filterUnits="userSpaceOnUse" color-interpolation-filters="sRGB">
<feFlood flood-opacity="0" result="BackgroundImageFix"/>
<feBlend mode="normal" in="SourceGraphic" in2="BackgroundImageFix" result="shape"/>
<feGaussianBlur stdDeviation="7" result="effect1_foregroundBlur_13_839"/>
</filter>
<linearGradient id="paint0_linear_13_839" x1="89" y1="122.972" x2="344" y2="122.972" gradientUnits="userSpaceOnUse">
<stop offset="0.0484448" stop-color="#34F7F7"/>
<stop offset="0.962033" stop-color="#1D9BF0"/>
</linearGradient>
<clipPath id="clip0_13_839">
<rect width="389" height="341.716" fill="white" transform="translate(0 29.4716)"/>
</clipPath>
</defs>
</svg>
