<svg width="23" height="24" viewBox="0 0 23 24" fill="none" xmlns="http://www.w3.org/2000/svg">
<rect x="1.49988" y="1.99994" width="20" height="20" rx="10" fill="#1275B1"/>
<path d="M9.08468 7.49432C9.08468 8.16186 8.50608 8.703 7.79234 8.703C7.0786 8.703 6.5 8.16186 6.5 7.49432C6.5 6.82679 7.0786 6.28564 7.79234 6.28564C8.50608 6.28564 9.08468 6.82679 9.08468 7.49432Z" fill="white"/>
<path d="M6.67673 9.59143H8.88586V16.2856H6.67673V9.59143Z" fill="white"/>
<path d="M12.4426 9.59143H10.2334V16.2856H12.4426C12.4426 16.2856 12.4426 14.1782 12.4426 12.8605C12.4426 12.0697 12.7126 11.2753 13.7901 11.2753C15.0079 11.2753 15.0005 12.3103 14.9949 13.1121C14.9874 14.1602 15.0052 15.2298 15.0052 16.2856H17.2143V12.7526C17.1956 10.4966 16.6077 9.45713 14.6738 9.45713C13.5253 9.45713 12.8134 9.97854 12.4426 10.4503V9.59143Z" fill="white"/>
</svg>
