<svg width="23" height="23" viewBox="0 0 23 23" fill="none" xmlns="http://www.w3.org/2000/svg">
<path d="M20.0714 11.4286C20.0714 16.1624 16.2339 20 11.5 20C9.69442 20 8.01922 19.4417 6.63763 18.4883L3.70781 19.2208L4.47556 16.3417C3.50068 14.9505 2.92859 13.2563 2.92859 11.4286C2.92859 6.69471 6.76615 2.85715 11.5 2.85715C16.2339 2.85715 20.0714 6.69471 20.0714 11.4286Z" fill="url(#paint0_linear_21_2344)"/>
<path fill-rule="evenodd" clip-rule="evenodd" d="M11.5 21.4286C17.0228 21.4286 21.5 16.9514 21.5 11.4286C21.5 5.90571 17.0228 1.42856 11.5 1.42856C5.97715 1.42856 1.5 5.90571 1.5 11.4286C1.5 13.222 1.97214 14.9053 2.79891 16.3607L1.5 21.4286L6.7249 20.217C8.14384 20.9896 9.77066 21.4286 11.5 21.4286ZM11.5 19.8901C16.1732 19.8901 19.9615 16.1017 19.9615 11.4286C19.9615 6.75538 16.1732 2.96702 11.5 2.96702C6.82682 2.96702 3.03846 6.75538 3.03846 11.4286C3.03846 13.2329 3.60322 14.9053 4.5656 16.2787L3.80769 19.1209L6.69995 18.3978C8.06383 19.339 9.71755 19.8901 11.5 19.8901Z" fill="white"/>
<path d="M9.00002 6.78572C8.76226 6.30817 8.39752 6.35044 8.02905 6.35044C7.37054 6.35044 6.34375 7.13922 6.34375 8.6072C6.34375 9.81029 6.87389 11.1273 8.6603 13.0973C10.3843 14.9986 12.6496 15.9821 14.5301 15.9486C16.4107 15.9151 16.7976 14.2968 16.7976 13.7503C16.7976 13.5081 16.6473 13.3872 16.5438 13.3544C15.9029 13.0468 14.721 12.4738 14.452 12.3661C14.1831 12.2584 14.0427 12.4041 13.9554 12.4833C13.7115 12.7157 13.228 13.4006 13.0625 13.5547C12.897 13.7088 12.6502 13.6308 12.5475 13.5726C12.1696 13.4209 11.1449 12.9651 10.3282 12.1734C9.31809 11.1942 9.25881 10.8573 9.0685 10.5575C8.91626 10.3175 9.02797 10.1704 9.08372 10.106C9.30135 9.85492 9.60186 9.46722 9.73662 9.27456C9.87139 9.0819 9.7644 8.78939 9.70021 8.6072C9.42412 7.82367 9.19022 7.16776 9.00002 6.78572Z" fill="white"/>
<defs>
<linearGradient id="paint0_linear_21_2344" x1="19" y1="5" x2="2.92859" y2="20" gradientUnits="userSpaceOnUse">
<stop stop-color="#5BD066"/>
<stop offset="1" stop-color="#27B43E"/>
</linearGradient>
</defs>
</svg>
