<svg width="38" height="36" viewBox="0 0 38 36" fill="none" xmlns="http://www.w3.org/2000/svg">
<path d="M7.38352 24.3872H3.8703C3.61455 24.3872 3.36928 24.2856 3.18844 24.1047C3.0076 23.9239 2.90601 23.6786 2.90601 23.4229C2.90601 23.1671 3.0076 22.9219 3.18844 22.741C3.36928 22.5602 3.61455 22.4586 3.8703 22.4586H7.38352C7.63927 22.4586 7.88455 22.5602 8.06539 22.741C8.24623 22.9219 8.34782 23.1671 8.34782 23.4229C8.34782 23.6786 8.24623 23.9239 8.06539 24.1047C7.88455 24.2856 7.63927 24.3872 7.38352 24.3872Z" fill="white"/>
<path d="M13.696 27.8351H8.55316C8.29741 27.8351 8.05214 27.7335 7.8713 27.5526C7.69046 27.3718 7.58887 27.1265 7.58887 26.8708C7.58887 26.615 7.69046 26.3698 7.8713 26.1889C8.05214 26.0081 8.29741 25.9065 8.55316 25.9065H13.696C13.8227 25.9065 13.9481 25.9314 14.0651 25.9799C14.182 26.0284 14.2883 26.0994 14.3779 26.1889C14.4674 26.2785 14.5385 26.3848 14.5869 26.5018C14.6354 26.6188 14.6603 26.7442 14.6603 26.8708C14.6603 26.9974 14.6354 27.1228 14.5869 27.2398C14.5385 27.3568 14.4674 27.4631 14.3779 27.5526C14.2883 27.6422 14.182 27.7132 14.0651 27.7617C13.9481 27.8101 13.8227 27.8351 13.696 27.8351Z" fill="white"/>
<path d="M6.26788 27.8351H0.96429C0.837658 27.8351 0.712264 27.8101 0.595271 27.7617C0.478278 27.7132 0.371976 27.6422 0.282433 27.5526C0.192891 27.4631 0.121863 27.3568 0.0734028 27.2398C0.0249426 27.1228 0 26.9974 0 26.8708C0 26.7442 0.0249426 26.6188 0.0734028 26.5018C0.121863 26.3848 0.192891 26.2785 0.282433 26.1889C0.371976 26.0994 0.478278 26.0284 0.595271 25.9799C0.712264 25.9314 0.837658 25.9065 0.96429 25.9065H6.26788C6.52363 25.9065 6.76891 26.0081 6.94974 26.1889C7.13058 26.3698 7.23217 26.615 7.23217 26.8708C7.23217 27.1265 7.13058 27.3718 6.94974 27.5526C6.76891 27.7335 6.52363 27.8351 6.26788 27.8351Z" fill="white"/>
<path d="M28.4172 0.000892639H12.6672C12.3622 0.00174085 12.07 0.123243 11.8544 0.338861C11.6388 0.554479 11.5173 0.846679 11.5164 1.15161V22.4592H9.87715C9.62141 22.4592 9.37613 22.5608 9.19529 22.7417C9.01445 22.9225 8.91286 23.1678 8.91286 23.4235C8.91286 23.6793 9.01445 23.9245 9.19529 24.1054C9.37613 24.2862 9.62141 24.3878 9.87715 24.3878H12.2268C12.3415 24.3882 12.4551 24.366 12.5611 24.3224C12.6672 24.2788 12.7636 24.2147 12.8448 24.1338C12.9261 24.0529 12.9905 23.9567 13.0345 23.8508C13.0785 23.7449 13.1011 23.6314 13.1011 23.5167L13.1429 2.14804C13.1446 1.93599 13.2293 1.73305 13.379 1.5828C13.5286 1.43256 13.7312 1.34699 13.9432 1.34447C15.0972 1.34447 15.0522 1.32518 15.7304 1.34447C15.8233 1.34663 15.913 1.37926 15.9856 1.43733C16.0582 1.4954 16.1097 1.5757 16.1322 1.6659C16.1708 1.81376 16.2447 2.03554 16.2511 2.08375C16.4568 3.24412 17.18 3.56233 17.9386 3.56233H23.0622C23.8208 3.56233 24.5279 3.2409 24.7529 2.08375C24.769 2.03875 24.8333 1.81376 24.8686 1.6659C24.8912 1.5757 24.9427 1.4954 25.0153 1.43733C25.0878 1.37926 25.1775 1.34663 25.2704 1.34447C25.9519 1.32518 25.9133 1.34447 27.0576 1.34447C27.2693 1.34615 27.4719 1.43101 27.6217 1.58074C27.7714 1.73048 27.8563 1.93308 27.858 2.14483L27.919 31.3339C27.9316 31.4617 27.916 31.5907 27.8734 31.7119C27.8309 31.833 27.7623 31.9434 27.6726 32.0353C27.5829 32.1271 27.4741 32.1983 27.354 32.2437C27.2339 32.2891 27.1053 32.3077 26.9772 32.2982H14.0236C13.8955 32.3077 13.7669 32.2891 13.6468 32.2437C13.5267 32.1983 13.418 32.1271 13.3282 32.0353C13.2385 31.9434 13.17 31.833 13.1274 31.7119C13.0848 31.5907 13.0693 31.4617 13.0818 31.3339V30.1382C13.0818 29.9188 12.9949 29.7083 12.8401 29.5529C12.6852 29.3975 12.4751 29.3097 12.2557 29.3089H8.96429C8.70854 29.3089 8.46327 29.4105 8.28243 29.5913C8.10159 29.7722 8 30.0174 8 30.2732C8 30.5289 8.10159 30.7742 8.28243 30.955C8.46327 31.1359 8.70854 31.2375 8.96429 31.2375H11.5164V34.7089C11.5164 35.0141 11.6377 35.3068 11.8535 35.5226C12.0693 35.7384 12.362 35.8596 12.6672 35.8596H28.4172C28.5682 35.8596 28.7177 35.8299 28.8571 35.772C28.9965 35.7141 29.1232 35.6293 29.2298 35.5224C29.3364 35.4155 29.4208 35.2886 29.4783 35.149C29.5358 35.0094 29.5652 34.8599 29.5647 34.7089V1.15161C29.5652 1.00065 29.5358 0.851089 29.4783 0.711496C29.4208 0.571903 29.3364 0.445022 29.2298 0.338126C29.1232 0.231229 28.9965 0.146417 28.8571 0.0885483C28.7177 0.0306798 28.5682 0.000892047 28.4172 0.000892639ZM22.5865 2.45661H18.5333C18.4955 2.46075 18.4574 2.45689 18.4213 2.44528C18.3851 2.43368 18.3519 2.4146 18.3236 2.38927C18.2954 2.36395 18.2728 2.33295 18.2573 2.29831C18.2418 2.26367 18.2338 2.22616 18.2338 2.18822C18.2338 2.15028 18.2418 2.11277 18.2573 2.07813C18.2728 2.04349 18.2954 2.0125 18.3236 1.98717C18.3519 1.96185 18.3851 1.94276 18.4213 1.93116C18.4574 1.91956 18.4955 1.9157 18.5333 1.91983H22.5865C22.6242 1.9157 22.6624 1.91956 22.6985 1.93116C22.7346 1.94276 22.7679 1.96185 22.7961 1.98717C22.8244 2.0125 22.847 2.04349 22.8624 2.07813C22.8779 2.11277 22.8859 2.15028 22.8859 2.18822C22.8859 2.22616 22.8779 2.26367 22.8624 2.29831C22.847 2.33295 22.8244 2.36395 22.7961 2.38927C22.7679 2.4146 22.7346 2.43368 22.6985 2.44528C22.6624 2.45689 22.6242 2.46075 22.5865 2.45661ZM21.8858 34.7025H19.1986C19.0281 34.7025 18.8646 34.6348 18.7441 34.5142C18.6235 34.3936 18.5558 34.2301 18.5558 34.0596C18.5558 33.8891 18.6235 33.7256 18.7441 33.6051C18.8646 33.4845 19.0281 33.4168 19.1986 33.4168H21.8858C22.0563 33.4168 22.2198 33.4845 22.3403 33.6051C22.4609 33.7256 22.5286 33.8891 22.5286 34.0596C22.5286 34.2301 22.4609 34.3936 22.3403 34.5142C22.2198 34.6348 22.0563 34.7025 21.8858 34.7025Z" fill="white"/>
<path d="M6.42523 31.2303H3.9245C3.66875 31.2303 3.42348 31.1287 3.24264 30.9478C3.0618 30.767 2.96021 30.5217 2.96021 30.266C2.96021 30.0102 3.0618 29.7649 3.24264 29.5841C3.42348 29.4033 3.66875 29.3017 3.9245 29.3017H6.42523C6.68097 29.3017 6.92624 29.4033 7.10708 29.5841C7.28792 29.7649 7.38952 30.0102 7.38952 30.266C7.38952 30.5217 7.28792 30.767 7.10708 30.9478C6.92624 31.1287 6.68097 31.2303 6.42523 31.2303Z" fill="white"/>
<path d="M22.9789 15.237L22.3474 15.6245C22.0995 15.2204 22.1671 14.7032 22.5027 14.375L23.0207 14.9047L22.5027 14.375L23.7691 13.1368L24.2716 13.6506L23.7691 13.1368C24.1001 12.8132 24.6063 12.7545 25.0018 12.9866L24.6451 13.5946L25.0018 12.9866L26.1518 13.6612C26.2865 13.6009 26.4237 13.5451 26.5633 13.4941L26.8847 12.2369L22.9789 15.237ZM22.9789 15.237L22.3474 15.6245L23.0262 16.7307C22.9686 16.855 22.915 16.9815 22.8656 17.1102L21.5704 17.4268C21.1251 17.5356 20.7947 17.9337 20.7947 18.4103L20.7947 20.1615C20.7947 20.6381 21.1251 21.0362 21.5704 21.145L22.8656 21.4616C22.915 21.5903 22.9686 21.7168 23.0262 21.8411L22.3474 22.9473C22.0995 23.3514 22.1671 23.8687 22.5027 24.1968L23.7691 25.435C24.1001 25.7587 24.6063 25.8173 25.0018 25.5852L26.1518 24.9106C26.2392 24.9497 26.3277 24.987 26.4173 25.0223L26.8905 26.4105C27.0335 26.8299 27.4277 27.0983 27.8557 27.0983H29.68C30.1079 27.0983 30.5022 26.8299 30.6451 26.4105L29.9439 26.1714L30.6451 26.4105L31.1184 25.0223C31.159 25.0063 31.1994 24.9899 31.2396 24.9731L32.5903 25.6334C32.9763 25.8222 33.4439 25.7505 33.7547 25.4466L35.0447 24.1853L34.5267 23.6555L35.0447 24.1853C35.3592 23.8778 35.4411 23.4006 35.2385 23.0043L34.5722 21.7012C34.586 21.6694 34.5996 21.6373 34.6128 21.6052L36.0394 21.1402C36.4493 21.0066 36.7409 20.6245 36.7409 20.1778V18.394C36.7409 17.9473 36.4493 17.5652 36.0394 17.4316L34.6128 16.9666C34.5996 16.9345 34.586 16.9024 34.5722 16.8706L35.2385 15.5676L34.5788 15.2302L35.2385 15.5676C35.4412 15.1713 35.3592 14.694 35.0447 14.3865L34.5267 14.9163L35.0447 14.3865L33.7547 13.1252M22.9789 15.237L33.7547 13.1252M33.7547 13.1252C33.4439 12.8213 32.9763 12.7497 32.5903 12.9384L32.9116 13.5957L32.5903 12.9384L31.2396 13.5987C31.1515 13.5619 31.0624 13.527 30.9724 13.494L30.6509 12.2369C30.5336 11.778 30.1191 11.4735 29.6633 11.4735H27.8724C27.4165 11.4735 27.002 11.778 26.8847 12.2369L33.7547 13.1252ZM31.0515 24.8811C31.0513 24.881 31.0511 24.8809 31.0509 24.8808L31.0515 24.8811ZM34.4074 21.6721C34.4073 21.6722 34.4071 21.6722 34.4069 21.6723L34.3674 21.551L34.4069 21.6723L34.4074 21.6721Z" fill="#1D9BF0" stroke="#1D9BF0" stroke-width="1.48179" stroke-linecap="round" stroke-linejoin="round"/>
<path d="M27.6448 13.0442C27.6727 12.9342 27.773 12.857 27.888 12.857H29.5015C29.6165 12.857 29.7167 12.9342 29.7446 13.0442L30.0901 14.4074C30.1116 14.4922 30.1771 14.559 30.2613 14.5863C30.4529 14.6484 30.6394 14.7217 30.82 14.8052C30.8914 14.8382 30.9743 14.8386 31.0448 14.8038L32.4317 14.1199C32.5282 14.0723 32.6447 14.0909 32.721 14.1662L33.8832 15.3124C33.9595 15.3877 33.9784 15.5026 33.9301 15.5978L33.2367 16.9656C33.2014 17.0352 33.2018 17.1169 33.2353 17.1874C33.299 17.3215 33.3569 17.4589 33.4085 17.5993C33.4353 17.6724 33.4936 17.7304 33.5684 17.755L35.0391 18.2385C35.1415 18.2721 35.2105 18.3666 35.2105 18.473V20.0941C35.2105 20.2005 35.1415 20.2949 35.0391 20.3286L33.5684 20.8121C33.4936 20.8367 33.4353 20.8947 33.4085 20.9678C33.3569 21.1082 33.299 21.2456 33.2353 21.3797C33.2018 21.4502 33.2014 21.5319 33.2367 21.6015L33.9301 22.9693C33.9784 23.0645 33.9595 23.1794 33.8832 23.2546L32.721 24.4009C32.6447 24.4761 32.5282 24.4948 32.4317 24.4472L31.0448 23.7633C30.9743 23.7285 30.8914 23.7289 30.82 23.7619C30.684 23.8248 30.5447 23.8818 30.4023 23.9327C30.3282 23.9592 30.2695 24.0167 30.2445 24.0904L29.7543 25.541C29.7202 25.642 29.6244 25.7101 29.5165 25.7101H27.8729C27.7651 25.7101 27.6693 25.642 27.6352 25.541L27.1449 24.0904C27.12 24.0167 27.0612 23.9592 26.9871 23.9327C26.7976 23.865 26.6134 23.7863 26.4353 23.6974C26.3561 23.6579 26.2619 23.6595 26.1859 23.7045L24.964 24.4276C24.8654 24.4859 24.7392 24.4706 24.6579 24.3904L23.5169 23.2651C23.4356 23.1849 23.4201 23.0604 23.4792 22.9632L24.2124 21.758C24.258 21.683 24.2596 21.5901 24.2196 21.5121C24.1073 21.2931 24.011 21.0648 23.9323 20.8286C23.9046 20.7456 23.8368 20.681 23.7509 20.6598L22.3688 20.319C22.2572 20.2915 22.179 20.1927 22.179 20.0792L22.179 18.4878C22.179 18.3744 22.2572 18.2755 22.3688 18.248L23.7509 17.9072C23.8368 17.8861 23.9046 17.8215 23.9323 17.7385C24.011 17.5023 24.1073 17.274 24.2196 17.055C24.2596 16.977 24.258 16.884 24.2124 16.8091L23.4792 15.6039C23.4201 15.5066 23.4356 15.3822 23.5169 15.302L24.6578 14.1767C24.7392 14.0965 24.8654 14.0811 24.964 14.1395L26.1859 14.8626C26.2619 14.9076 26.3561 14.9092 26.4352 14.8697C26.6572 14.7589 26.8887 14.664 27.1282 14.5863C27.2124 14.559 27.2778 14.4922 27.2993 14.4074L27.6448 13.0442Z" stroke="white" stroke-width="1.80437" stroke-linecap="round" stroke-linejoin="round"/>
<path d="M31.2008 19.2835C31.2008 20.6486 30.0788 21.7553 28.6947 21.7553C27.3107 21.7553 26.1887 20.6486 26.1887 19.2835C26.1887 17.9184 27.3107 16.8118 28.6947 16.8118C30.0788 16.8118 31.2008 17.9184 31.2008 19.2835Z" stroke="white" stroke-width="1.80437" stroke-linecap="round" stroke-linejoin="round"/>
</svg>
