<svg width="499" height="373" viewBox="0 0 499 373" fill="none" xmlns="http://www.w3.org/2000/svg">
<path opacity="0.5" d="M332.5 145.5C332.5 216.377 229.377 245 158.5 245C87.6228 245 0 216.377 0 145.5C0 74.6228 87.6228 0 158.5 0C229.377 0 332.5 74.6228 332.5 145.5Z" fill="url(#paint0_linear_274_489)"/>
<path d="M123.47 156.06C37.7257 205.553 37.7257 285.784 123.47 335.331C209.213 384.879 348.225 384.825 433.96 335.331C519.695 285.838 519.704 205.607 433.96 156.06C348.216 106.513 209.204 106.549 123.47 156.06Z" fill="#F6F6F6"/>
<g filter="url(#filter0_f_274_489)">
<path d="M418.06 197.689C435.319 197.689 449.311 189.437 449.311 179.257C449.311 169.078 435.319 160.826 418.06 160.826C400.8 160.826 386.809 169.078 386.809 179.257C386.809 189.437 400.8 197.689 418.06 197.689Z" fill="#EBEBEB"/>
</g>
<path d="M94.6508 125.08C95.4869 124.997 96.3294 125.15 97.0832 125.521C98.4984 126.322 99.8294 127.264 101.056 128.332C102.296 129.401 103.833 130.064 105.461 130.233C107.092 130.287 108.839 129.278 109.137 127.683C109.159 127.4 109.229 127.123 109.344 126.863C109.504 126.661 109.727 126.516 109.977 126.451C110.227 126.386 110.492 126.404 110.731 126.503C111.202 126.719 111.651 126.978 112.073 127.278C113.713 128.251 115.776 128.025 117.659 127.755C119.235 127.53 121.262 126.854 121.208 125.242C121.208 124.206 120.307 123.44 119.587 122.692C118.866 121.945 118.298 120.738 118.947 119.927C119.19 119.661 119.502 119.467 119.848 119.368C121.812 118.729 124.217 119.584 125.875 118.35C126.465 117.857 126.875 117.181 127.038 116.428C127.201 115.676 127.109 114.891 126.775 114.197C126.418 113.516 125.916 112.921 125.304 112.454C124.693 111.987 123.987 111.66 123.235 111.495C121.92 111.152 120.244 110.999 119.749 109.693C119.316 108.585 120.181 107.378 121.163 106.693C122.145 106.008 123.316 105.531 123.992 104.549C124.329 104.029 124.517 103.426 124.534 102.806C124.552 102.187 124.398 101.574 124.091 101.036C123.773 100.502 123.344 100.044 122.832 99.6928C122.321 99.3414 121.739 99.1049 121.127 98.9998C120.511 98.9596 119.904 98.8291 119.325 98.6124C119.041 98.4941 118.813 98.2709 118.689 97.9891C118.565 97.7073 118.554 97.3885 118.659 97.0989C118.839 96.7746 119.208 96.6035 119.424 96.3062C119.587 95.985 119.624 95.6146 119.527 95.2679C119.43 94.9211 119.207 94.6231 118.902 94.4324C118.272 94.0824 117.596 93.8245 116.893 93.6667C115.47 93.1892 114.731 92.4325 115.154 90.9641C115.578 89.4957 117.623 89.5768 118.226 88.1354C118.767 86.8652 117.325 84.1536 116.145 83.3698C114.928 82.7154 113.663 82.1523 112.362 81.6852C111.11 81.0907 109.893 80.0547 109.794 78.6674C109.695 77.28 110.749 76.0639 111.596 74.9468C112.443 73.8297 113.2 72.2442 112.443 71.0461C111.686 69.8479 110.11 69.8299 108.839 69.4155C108.046 69.1619 107.314 68.7436 106.693 68.1878C106.072 67.632 105.576 66.9514 105.236 66.1904C104.885 65.3887 104.722 64.5148 104.335 63.7491C103.047 61.3708 99.8308 60.3258 97.2994 60.6231C96.7928 60.6552 96.3041 60.8225 95.8842 61.1078C95.4643 61.393 95.1286 61.7856 94.9121 62.2447C94.476 62.7083 94.1659 63.2758 94.0112 63.8932C93.822 65.0373 94.4256 66.5057 93.3446 67.3796C91.696 68.7128 89.1736 66.9201 89.2637 69.902C89.2649 71.16 89.4531 72.4109 89.8222 73.6135C90.2636 74.8657 91.1645 75.4152 90.4168 76.8116C89.4529 78.6133 88.8223 78.6133 86.8764 78.6133C85.4711 78.6133 84.2999 78.5322 83.273 79.5952C81.4712 81.469 82.5433 83.1987 84.1738 84.613C85.9755 86.2526 85.0296 86.9643 84.7954 89.1173C84.6783 90.1443 84.9125 90.4596 83.9937 91.1353C82.264 92.4235 81.2911 91.9911 81.7865 94.5045C82.228 96.8017 81.5433 96.0089 79.5614 96.8647C77.7597 97.6305 76.6246 99.5223 75.2013 100.711C74.3004 101.477 72.877 102.063 72.796 103.414C72.6248 105.972 75.8138 105.405 77.3003 106.017C79.7686 107.017 79.0299 110.261 77.1021 111.477C75.1742 112.693 72.0753 113.278 71.9131 116.17C71.787 118.413 73.0662 118.918 74.8139 119.665C76.2012 120.269 76.03 120.44 76.021 122.107C76.021 125.458 77.1471 126.404 80.4533 125.863C81.4887 125.567 82.5725 125.478 83.6423 125.602C84.9125 125.981 84.4801 126.296 84.5432 127.35C84.6333 130.052 87.7863 129.296 89.1195 128.134C90.633 126.818 92.5608 125.287 94.6508 125.08Z" fill="#1D9BF0"/>
<path opacity="0.3" d="M94.6508 125.08C95.4869 124.997 96.3294 125.15 97.0832 125.521C98.4984 126.322 99.8294 127.264 101.056 128.332C102.296 129.401 103.833 130.064 105.461 130.233C107.092 130.287 108.839 129.278 109.137 127.683C109.159 127.4 109.229 127.123 109.344 126.863C109.504 126.661 109.727 126.516 109.977 126.451C110.227 126.386 110.492 126.404 110.731 126.503C111.202 126.719 111.651 126.978 112.073 127.278C113.713 128.251 115.776 128.025 117.659 127.755C119.235 127.53 121.262 126.854 121.208 125.242C121.208 124.206 120.307 123.44 119.587 122.692C118.866 121.945 118.298 120.738 118.947 119.927C119.19 119.661 119.502 119.467 119.848 119.368C121.812 118.729 124.217 119.584 125.875 118.35C126.465 117.857 126.875 117.181 127.038 116.428C127.201 115.676 127.109 114.891 126.775 114.197C126.418 113.516 125.916 112.921 125.304 112.454C124.693 111.987 123.987 111.66 123.235 111.495C121.92 111.152 120.244 110.999 119.749 109.693C119.316 108.585 120.181 107.378 121.163 106.693C122.145 106.008 123.316 105.531 123.992 104.549C124.329 104.029 124.517 103.426 124.534 102.806C124.552 102.187 124.398 101.574 124.091 101.036C123.773 100.502 123.344 100.044 122.832 99.6928C122.321 99.3414 121.739 99.1049 121.127 98.9998C120.511 98.9596 119.904 98.8291 119.325 98.6124C119.041 98.4941 118.813 98.2709 118.689 97.9891C118.565 97.7073 118.554 97.3885 118.659 97.0989C118.839 96.7746 119.208 96.6035 119.424 96.3062C119.587 95.985 119.624 95.6146 119.527 95.2679C119.43 94.9211 119.207 94.6231 118.902 94.4324C118.272 94.0824 117.596 93.8245 116.893 93.6667C115.47 93.1892 114.731 92.4325 115.154 90.9641C115.578 89.4957 117.623 89.5768 118.226 88.1354C118.767 86.8652 117.325 84.1536 116.145 83.3698C114.928 82.7154 113.663 82.1523 112.362 81.6852C111.11 81.0907 109.893 80.0547 109.794 78.6674C109.695 77.28 110.749 76.0639 111.596 74.9468C112.443 73.8297 113.2 72.2442 112.443 71.0461C111.686 69.8479 110.11 69.8299 108.839 69.4155C108.046 69.1619 107.314 68.7436 106.693 68.1878C106.072 67.632 105.576 66.9514 105.236 66.1904C104.885 65.3887 104.722 64.5148 104.335 63.7491C103.047 61.3708 99.8308 60.3258 97.2994 60.6231C96.7928 60.6552 96.3041 60.8225 95.8842 61.1078C95.4643 61.393 95.1286 61.7856 94.9121 62.2447C94.476 62.7083 94.1659 63.2758 94.0112 63.8932C93.822 65.0373 94.4256 66.5057 93.3446 67.3796C91.696 68.7128 89.1736 66.9201 89.2637 69.902C89.2649 71.16 89.4531 72.4109 89.8222 73.6135C90.2636 74.8657 91.1645 75.4152 90.4168 76.8116C89.4529 78.6133 88.8223 78.6133 86.8764 78.6133C85.4711 78.6133 84.2999 78.5322 83.273 79.5952C81.4712 81.469 82.5433 83.1987 84.1738 84.613C85.9755 86.2526 85.0296 86.9643 84.7954 89.1173C84.6783 90.1443 84.9125 90.4596 83.9937 91.1353C82.264 92.4235 81.2911 91.9911 81.7865 94.5045C82.228 96.8017 81.5433 96.0089 79.5614 96.8647C77.7597 97.6305 76.6246 99.5223 75.2013 100.711C74.3004 101.477 72.877 102.063 72.796 103.414C72.6248 105.972 75.8138 105.405 77.3003 106.017C79.7686 107.017 79.0299 110.261 77.1021 111.477C75.1742 112.693 72.0753 113.278 71.9131 116.17C71.787 118.413 73.0662 118.918 74.8139 119.665C76.2012 120.269 76.03 120.44 76.021 122.107C76.021 125.458 77.1471 126.404 80.4533 125.863C81.4887 125.567 82.5725 125.478 83.6423 125.602C84.9125 125.981 84.4801 126.296 84.5432 127.35C84.6333 130.052 87.7863 129.296 89.1195 128.134C90.633 126.818 92.5608 125.287 94.6508 125.08Z" fill="white"/>
<path opacity="0.45" d="M119.857 119.368C121.37 118.882 123.136 119.269 124.622 118.918C123.734 118.706 122.83 118.564 121.92 118.494C120.852 118.446 119.785 118.625 118.791 119.02C117.798 119.414 116.899 120.015 116.154 120.783C116.948 121.756 117.361 122.986 117.316 124.242C113.569 125.251 109.884 120.233 106.317 121.764C106.533 123.566 106.317 126.007 104.515 126.404C103.988 126.456 103.457 126.362 102.98 126.132C102.503 125.901 102.099 125.543 101.813 125.098C101.173 124.251 100.777 123.233 100.128 122.395C99.2203 121.302 97.9402 120.584 96.5345 120.38C95.1288 120.175 93.6971 120.498 92.5157 121.287C91.5517 121.99 90.3356 123.089 89.3717 122.35C88.4077 121.611 88.9663 119.566 87.8222 118.99C87.0565 118.611 86.0205 119.215 85.3538 118.647C85.1205 118.398 84.9668 118.084 84.9124 117.747C84.462 115.828 84.0656 113.621 85.2728 112.062C86.3448 110.675 88.6149 109.828 88.3717 108.089C88.1645 106.612 86.2817 106.162 84.7683 105.99C83.2548 105.819 81.3991 105.09 81.4711 103.621C81.5432 102.153 83.5341 101.45 83.8224 100.018C83.9485 99.4051 83.7413 98.7205 84.0206 98.1619C84.444 97.3151 85.6511 97.2611 86.3628 96.6575C87.633 95.5314 86.6511 93.4234 87.0114 91.7658C87.2637 90.5947 88.2096 89.6758 88.5249 88.5137C89.1555 86.1985 87.0474 84.0094 84.8493 83.0545C83.9757 82.75 83.1339 82.3608 82.3359 81.8924L82.3269 81.7753C82.5334 82.9374 83.1784 83.9759 84.1287 84.676C85.9304 86.3156 84.9845 87.0273 84.7503 89.1803C84.6331 90.2073 84.8674 90.5226 83.9485 91.1983C82.2188 92.4865 81.2459 92.0541 81.7414 94.5675C82.1828 96.8647 81.4981 96.0719 79.5163 96.9277C77.7145 97.6935 76.5795 99.5853 75.1561 100.774C74.2552 101.54 72.8319 102.126 72.7508 103.477C72.5796 106.035 75.7687 105.468 77.2551 106.08C79.7235 107.08 78.9847 110.324 77.0569 111.54C75.1291 112.756 72.0301 113.341 71.868 116.233C71.7418 118.476 73.0211 118.981 74.7687 119.729C76.156 120.332 75.9849 120.503 75.9759 122.17C75.9759 125.521 77.1019 126.467 80.4081 125.926C81.4436 125.63 82.5273 125.541 83.5972 125.665C84.8674 126.044 84.435 126.359 84.498 127.413C84.5881 130.115 87.7411 129.359 89.0744 128.197C90.6149 126.863 92.5427 125.314 94.6327 125.107C95.4688 125.024 96.3113 125.177 97.065 125.548C98.4803 126.349 99.8113 127.291 101.038 128.359C102.277 129.428 103.815 130.091 105.443 130.26C107.074 130.314 108.821 129.305 109.119 127.71C109.14 127.427 109.211 127.15 109.326 126.89C109.486 126.688 109.709 126.543 109.959 126.478C110.209 126.413 110.474 126.431 110.713 126.53C111.184 126.746 111.633 127.005 112.055 127.305C113.695 128.278 115.758 128.052 117.641 127.782C119.217 127.557 121.244 126.881 121.19 125.269C121.19 124.233 120.289 123.467 119.568 122.719C118.848 121.972 118.28 120.765 118.929 119.954C119.176 119.674 119.498 119.47 119.857 119.368V119.368Z" fill="#1D9BF0"/>
<path d="M89.5339 97.4682L98.5425 115.35V107.116L99.4434 72.064L100.777 107.116V112.657L110.686 95.3242L100.777 116.602V170.96C100.768 171.06 100.733 171.156 100.674 171.236C100.615 171.317 100.535 171.381 100.443 171.42C100.197 171.541 99.9254 171.604 99.6506 171.604C99.3758 171.604 99.1046 171.541 98.8578 171.42C98.7691 171.378 98.6931 171.314 98.6376 171.233C98.5822 171.152 98.5494 171.058 98.5425 170.96V119.909L89.5339 97.4682Z" fill="#37474F"/>
<path d="M93.3264 175.177C95.9029 175.582 98.2181 174.87 98.6144 172.078C98.9388 169.783 98.9388 167.454 98.6144 165.159C98.4973 164.33 98.2091 163.357 97.3983 163.132C97.06 163.077 96.7129 163.135 96.4113 163.298C96.1097 163.461 95.8707 163.72 95.7317 164.033C95.4844 164.678 95.3888 165.372 95.4524 166.06C95.038 165.159 94.4345 164.114 93.4435 164.087C92.9857 164.136 92.5629 164.355 92.2579 164.7C91.9529 165.045 91.7878 165.491 91.7949 165.952C91.8489 166.872 92.1407 167.763 92.6417 168.537C92.3018 168.448 91.9471 168.43 91.5998 168.484C91.2526 168.538 90.9203 168.664 90.6238 168.852C90.3485 169.166 90.1908 169.566 90.1777 169.984C90.1645 170.401 90.2967 170.81 90.5517 171.141C91.0965 171.785 91.7931 172.283 92.5787 172.591C92.4589 172.539 92.3292 172.513 92.1985 172.516C92.0678 172.519 91.9393 172.55 91.8219 172.607C91.7044 172.665 91.6009 172.747 91.5185 172.848C91.4361 172.95 91.3767 173.068 91.3445 173.195C91.2946 173.452 91.318 173.719 91.4119 173.964C91.5059 174.21 91.6667 174.423 91.876 174.582C92.3013 174.9 92.8004 175.104 93.3264 175.177V175.177Z" fill="#455A64"/>
<path d="M97.8036 176.276C97.8036 176.276 102.821 173.384 103.974 172.672C104.497 172.34 104.952 171.912 105.317 171.411C105.697 170.951 105.954 170.403 106.064 169.816C106.121 169.612 106.099 169.393 106.001 169.204C105.776 168.88 105.254 168.997 104.956 169.258C104.662 169.518 104.382 169.795 104.119 170.087C104.239 169.382 104.278 168.666 104.236 167.952C104.247 167.821 104.229 167.69 104.184 167.567C104.139 167.444 104.067 167.333 103.974 167.24C103.844 167.145 103.686 167.094 103.524 167.094C103.362 167.094 103.205 167.145 103.074 167.24C102.322 167.784 101.809 168.597 101.641 169.51C101.779 168.612 101.751 167.696 101.56 166.808C101.344 165.835 100.227 165.447 99.8486 166.375C99.6641 166.876 99.5548 167.401 99.5242 167.934C99.4605 168.618 99.5061 169.308 99.6594 169.979C99.2845 169.107 98.7215 168.328 98.0108 167.699C97.8979 167.564 97.75 167.462 97.5832 167.405C97.4164 167.348 97.2371 167.338 97.0649 167.375C96.6775 167.519 96.6055 168.042 96.6505 168.456C96.7429 169.337 97.029 170.186 97.4883 170.943C96.8645 170.519 96.1532 170.242 95.4073 170.132C95.2897 170.095 95.1636 170.095 95.046 170.132C94.9284 170.169 94.825 170.241 94.7497 170.339C94.6923 170.481 94.6753 170.636 94.7008 170.787C94.7262 170.938 94.7931 171.079 94.8938 171.195C95.3349 171.84 95.9172 172.376 96.5965 172.762C95.9436 172.563 95.2582 172.493 94.5785 172.555C94.4772 172.549 94.3759 172.566 94.2822 172.605C94.1885 172.644 94.105 172.704 94.038 172.78C93.8578 173.042 94.038 173.384 94.2903 173.6C94.7267 173.954 95.2123 174.242 95.7316 174.456C95.4238 174.441 95.1163 174.493 94.8308 174.609C94.6916 174.67 94.5755 174.773 94.4993 174.904C94.4231 175.036 94.3909 175.188 94.4074 175.339C94.459 175.483 94.5465 175.611 94.6615 175.712C94.7766 175.813 94.9154 175.883 95.065 175.915C95.9153 176.327 96.8757 176.454 97.8036 176.276V176.276Z" fill="#1D9BF0"/>
<path d="M77.8225 205.725C78.0614 205.725 78.2905 205.63 78.4595 205.461C78.6284 205.292 78.7233 205.063 78.7233 204.824V28.3633C78.8311 26.6506 79.3337 24.986 80.1917 23.4998C81.0496 22.0135 82.2398 20.7459 83.6691 19.7961L98.0378 11.5082C99.1819 10.8415 100.209 10.7064 100.93 11.1208C101.334 11.4356 101.65 11.8504 101.846 12.3242C102.042 12.7981 102.111 13.3147 102.047 13.8234V31.0208C102.047 31.2693 102.145 31.5076 102.321 31.6833C102.497 31.859 102.735 31.9577 102.984 31.9577C103.232 31.9577 103.47 31.859 103.646 31.6833C103.822 31.5076 103.92 31.2693 103.92 31.0208V13.8054C103.92 11.7874 103.191 10.256 101.866 9.49025C100.542 8.72452 98.8486 8.85965 97.1009 9.86861L82.7592 18.1745C81.0448 19.2849 79.6206 20.7889 78.6052 22.5612C77.5898 24.3335 77.0126 26.3227 76.9216 28.3633V204.788C76.9168 204.909 76.9365 205.03 76.9796 205.144C77.0227 205.257 77.0882 205.361 77.1724 205.448C77.2565 205.536 77.3575 205.605 77.4692 205.653C77.5809 205.7 77.7011 205.725 77.8225 205.725Z" fill="black"/>
<path d="M99.8846 27.0029C100.932 26.4697 102.092 26.1918 103.267 26.1918C104.443 26.1918 105.602 26.4697 106.65 27.0029C107.035 27.1755 107.368 27.4475 107.613 27.7911C107.859 28.1346 108.008 28.5373 108.046 28.9578V30.3361C108.006 30.756 107.856 31.1579 107.611 31.5012C107.366 31.8444 107.034 32.1169 106.65 32.291C105.602 32.8242 104.443 33.1021 103.267 33.1021C102.092 33.1021 100.932 32.8242 99.8846 32.291C99.4981 32.1189 99.1644 31.8472 98.9174 31.5037C98.6705 31.1602 98.5193 30.7572 98.4792 30.3361V28.9578C98.5184 28.5364 98.6692 28.133 98.9163 27.7894C99.1633 27.4457 99.4976 27.1742 99.8846 27.0029V27.0029Z" fill="#455A64"/>
<path d="M99.8846 28.3814C98.0108 29.4624 98.0108 31.2101 99.8846 32.2911C100.932 32.8243 102.092 33.1023 103.267 33.1023C104.443 33.1023 105.602 32.8243 106.65 32.2911C108.515 31.2101 108.515 29.4624 106.65 28.3814C105.601 27.8531 104.442 27.5779 103.267 27.5779C102.092 27.5779 100.934 27.8531 99.8846 28.3814Z" fill="#37474F"/>
<path d="M98.6052 41.66H107.92V30.8497C107.884 30.4401 107.739 30.0477 107.5 29.7133C107.261 29.379 106.936 29.115 106.56 28.9489C105.538 28.4291 104.409 28.1582 103.263 28.1582C102.117 28.1582 100.987 28.4291 99.9655 28.9489C99.5894 29.115 99.2648 29.379 99.0255 29.7133C98.7863 30.0477 98.6411 30.4401 98.6052 30.8497V30.8497V41.66Z" fill="#1D9BF0"/>
<path opacity="0.7" d="M98.6052 41.66H107.92V30.8497C107.884 30.4401 107.739 30.0477 107.5 29.7133C107.261 29.379 106.936 29.115 106.56 28.9489C105.538 28.4291 104.409 28.1582 103.263 28.1582C102.117 28.1582 100.987 28.4291 99.9655 28.9489C99.5894 29.115 99.2648 29.379 99.0255 29.7133C98.7863 30.0477 98.6411 30.4401 98.6052 30.8497V30.8497V41.66Z" fill="white"/>
<path d="M106.56 43.5607C108.362 42.5157 108.362 40.8581 106.56 39.7591C105.538 39.2393 104.409 38.9684 103.263 38.9684C102.117 38.9684 100.987 39.2393 99.9655 39.7591C98.1638 40.8131 98.1638 42.5157 99.9655 43.5607C100.987 44.0804 102.117 44.3514 103.263 44.3514C104.409 44.3514 105.538 44.0804 106.56 43.5607Z" fill="#1D9BF0"/>
<path opacity="0.5" d="M106.56 43.5607C108.362 42.5157 108.362 40.8581 106.56 39.7591C105.538 39.2393 104.409 38.9684 103.263 38.9684C102.117 38.9684 100.987 39.2393 99.9655 39.7591C98.1638 40.8131 98.1638 42.5157 99.9655 43.5607C100.987 44.0804 102.117 44.3514 103.263 44.3514C104.409 44.3514 105.538 44.0804 106.56 43.5607Z" fill="white"/>
<path opacity="0.2" d="M100.461 32.3721C100.461 31.818 100.625 31.2763 100.933 30.8156C101.241 30.3548 101.679 29.9958 102.191 29.7837C102.703 29.5716 103.266 29.5162 103.809 29.6243C104.353 29.7324 104.852 29.9992 105.244 30.391C105.636 30.7829 105.903 31.2821 106.011 31.8255C106.119 32.369 106.063 32.9323 105.851 33.4443C105.639 33.9562 105.28 34.3938 104.819 34.7016C104.359 35.0095 103.817 35.1738 103.263 35.1738C102.52 35.1738 101.807 34.8786 101.282 34.3532C100.756 33.8278 100.461 33.1152 100.461 32.3721Z" fill="white"/>
<path opacity="0.2" d="M98.6052 35.7055C99.1331 36.4491 99.8314 37.0556 100.642 37.4741C101.452 37.8926 102.351 38.111 103.263 38.111C104.175 38.111 105.073 37.8926 105.884 37.4741C106.694 37.0556 107.392 36.4491 107.92 35.7055V30.8048C107.884 30.3952 107.739 30.0028 107.5 29.6684C107.261 29.3341 106.936 29.0701 106.56 28.904C105.538 28.3842 104.409 28.1133 103.263 28.1133C102.117 28.1133 100.987 28.3842 99.9655 28.904C99.5894 29.0701 99.2648 29.3341 99.0255 29.6684C98.7863 30.0028 98.6411 30.3952 98.6052 30.8048V35.7055Z" fill="white"/>
<path opacity="0.4" d="M101.966 32.3721C101.966 32.1155 102.042 31.8647 102.184 31.6514C102.327 31.438 102.529 31.2718 102.766 31.1736C103.003 31.0754 103.264 31.0497 103.516 31.0998C103.768 31.1498 103.999 31.2734 104.18 31.4548C104.362 31.6362 104.485 31.8673 104.535 32.119C104.585 32.3706 104.559 32.6315 104.461 32.8685C104.363 33.1055 104.197 33.3081 103.984 33.4507C103.77 33.5932 103.519 33.6693 103.263 33.6693C102.919 33.6693 102.589 33.5326 102.346 33.2894C102.102 33.0461 101.966 32.7161 101.966 32.3721V32.3721Z" fill="white"/>
<path d="M99.8846 39.2997C100.932 38.7665 102.092 38.4885 103.267 38.4885C104.443 38.4885 105.602 38.7665 106.65 39.2997C107.033 39.4708 107.364 39.74 107.609 40.0802C107.854 40.4203 108.005 40.8192 108.046 41.2365V42.6148C108.011 43.0385 107.863 43.4449 107.618 43.7919C107.372 44.1389 107.038 44.4137 106.65 44.5877C105.602 45.1209 104.443 45.3989 103.267 45.3989C102.092 45.3989 100.932 45.1209 99.8846 44.5877C99.4976 44.4164 99.1633 44.1449 98.9163 43.8013C98.6692 43.4576 98.5184 43.0543 98.4792 42.6329V41.2365C98.5214 40.8183 98.6737 40.4187 98.9206 40.0785C99.1674 39.7382 99.5001 39.4695 99.8846 39.2997Z" fill="#455A64"/>
<path d="M99.8846 40.678C98.0108 41.7591 98.0108 43.5067 99.8846 44.5878C100.932 45.121 102.092 45.3989 103.267 45.3989C104.443 45.3989 105.602 45.121 106.65 44.5878C108.515 43.5067 108.515 41.7591 106.65 40.678C105.601 40.1497 104.442 39.8745 103.267 39.8745C102.092 39.8745 100.934 40.1497 99.8846 40.678Z" fill="#37474F"/>
<path d="M408.006 159.249C408.204 154.745 408.781 138.529 408.781 138.529L417.375 143.934C416.672 151.907 414.528 158.078 413.934 162.609C413.934 162.609 410.916 164.988 409.213 166.528C407.77 167.883 406.212 169.11 404.556 170.195C403.286 170.978 400.592 171.276 400.187 170.456C402.346 168.569 404.378 166.541 406.267 164.384C407.862 162.411 407.907 161.465 408.006 159.249Z" fill="#FFA8A7"/>
<path d="M396.592 173.005C396.501 173.321 396.498 173.656 396.584 173.974C396.67 174.292 396.841 174.58 397.079 174.807C398.808 175.791 400.852 176.069 402.781 175.582C404.737 175.257 406.548 174.342 407.97 172.96C408.997 171.933 410.438 170.483 411.673 170.095C412.659 169.818 413.578 169.343 414.375 168.699C414.709 168.312 414.519 166.708 414.519 166.708L396.592 173.005Z" fill="#263238"/>
<path d="M414.096 161.501C414.184 161.569 414.256 161.656 414.304 161.756C414.353 161.856 414.377 161.967 414.375 162.078C414.224 162.788 414.185 163.518 414.258 164.24C414.466 165.223 414.554 166.227 414.519 167.231C414.438 168.069 412.582 168.807 411.411 169.375C410.041 170.129 408.79 171.082 407.7 172.204C406.101 173.612 404.142 174.547 402.042 174.906C399.286 175.185 397.439 174.6 396.799 173.654C396.007 172.492 396.475 171.735 399.502 169.978C400.079 169.654 402.069 168.177 402.754 167.699C404.712 166.337 406.213 164.415 407.06 162.186C407.111 161.914 407.25 161.667 407.457 161.483C407.645 161.385 407.859 161.347 408.069 161.375C408.605 161.4 409.134 161.51 409.637 161.699C410.078 161.862 410.961 162.033 411.006 162.6C410.986 162.851 410.938 163.099 410.862 163.339C410.862 163.456 410.754 163.862 410.862 163.916C410.97 163.97 411.195 163.69 411.267 163.6C411.583 163.177 411.682 162.925 412.168 162.799C412.655 162.672 413.754 162.546 414.042 162.078L414.096 161.501Z" fill="#37474F"/>
<path d="M399.025 170.267C403.042 170.186 404.52 172.546 404.826 174.059C403.946 174.48 403.008 174.765 402.042 174.906C399.286 175.185 397.322 174.609 396.682 173.663C395.935 172.564 396.295 171.591 399.025 170.267Z" fill="#FAFAFA"/>
<path d="M405.015 169.78C405.061 169.772 405.104 169.753 405.142 169.726C405.176 169.688 405.196 169.638 405.196 169.587C405.196 169.535 405.176 169.485 405.142 169.447C404.633 169.008 404.036 168.682 403.392 168.491C402.747 168.299 402.069 168.248 401.403 168.339C401.352 168.35 401.307 168.38 401.278 168.424C401.249 168.468 401.239 168.522 401.25 168.573C401.261 168.624 401.291 168.669 401.335 168.698C401.379 168.727 401.433 168.737 401.484 168.726C402.085 168.649 402.696 168.697 403.277 168.868C403.858 169.039 404.398 169.328 404.862 169.717C404.882 169.738 404.906 169.754 404.932 169.765C404.959 169.776 404.987 169.781 405.015 169.78Z" fill="#F0F0F0"/>
<path d="M406.637 168.627C406.682 168.618 406.725 168.6 406.763 168.573C406.798 168.535 406.817 168.485 406.817 168.433C406.817 168.382 406.798 168.332 406.763 168.294C406.255 167.852 405.659 167.525 405.014 167.334C404.369 167.143 403.69 167.092 403.024 167.186C402.973 167.196 402.928 167.227 402.899 167.271C402.871 167.315 402.861 167.368 402.871 167.42C402.875 167.446 402.885 167.471 402.899 167.493C402.914 167.515 402.932 167.534 402.954 167.548C402.977 167.563 403.001 167.572 403.027 167.577C403.053 167.581 403.08 167.58 403.105 167.573C403.706 167.494 404.317 167.541 404.899 167.712C405.481 167.882 406.021 168.173 406.484 168.564C406.503 168.584 406.527 168.601 406.554 168.611C406.58 168.622 406.608 168.628 406.637 168.627Z" fill="#F0F0F0"/>
<path d="M408.141 167.357C408.185 167.35 408.225 167.331 408.258 167.303C408.295 167.266 408.316 167.215 408.316 167.163C408.316 167.111 408.295 167.061 408.258 167.023C407.749 166.585 407.152 166.26 406.508 166.069C405.863 165.878 405.186 165.825 404.52 165.915C404.468 165.926 404.423 165.957 404.395 166.001C404.366 166.045 404.356 166.098 404.367 166.15C404.371 166.175 404.38 166.199 404.394 166.22C404.408 166.241 404.426 166.26 404.447 166.274C404.468 166.288 404.491 166.298 404.516 166.303C404.541 166.308 404.567 166.308 404.592 166.303C405.194 166.227 405.806 166.275 406.389 166.446C406.971 166.616 407.513 166.905 407.979 167.294C407.999 167.316 408.025 167.333 408.053 167.344C408.081 167.355 408.111 167.359 408.141 167.357V167.357Z" fill="#F0F0F0"/>
<path d="M409.601 166.051C409.644 166.051 409.686 166.035 409.718 166.005C409.755 165.968 409.775 165.918 409.775 165.866C409.775 165.814 409.755 165.763 409.718 165.726C409.167 165.246 408.514 164.898 407.808 164.708C407.103 164.517 406.363 164.49 405.646 164.627C405.594 164.638 405.55 164.669 405.521 164.713C405.492 164.757 405.482 164.81 405.493 164.861C405.497 164.887 405.506 164.912 405.521 164.934C405.535 164.956 405.554 164.975 405.576 164.99C405.598 165.004 405.623 165.014 405.649 165.018C405.675 165.022 405.701 165.021 405.727 165.015C406.38 164.889 407.052 164.913 407.694 165.083C408.337 165.253 408.933 165.565 409.438 165.996C409.458 166.02 409.483 166.037 409.512 166.047C409.54 166.056 409.571 166.058 409.601 166.051V166.051Z" fill="#F0F0F0"/>
<path d="M428.42 150.538L437.707 149.574C438.032 155.258 437.635 161.627 437.906 166.96C437.96 167.96 438.104 174.69 437.906 176.78C437.581 179.924 433.87 179.798 433.527 177.96C433.185 176.122 432.077 168.294 431.996 167.483C431.753 164.069 430.257 158.474 428.924 152.421C428.852 152.123 428.474 150.826 428.42 150.538Z" fill="#FFA8A7"/>
<path d="M432.239 179.356C432.199 180.79 432.524 182.21 433.185 183.482C433.499 183.99 433.973 184.38 434.532 184.59C435.091 184.8 435.704 184.819 436.275 184.644C437.518 184.356 439.113 183.545 439.5 181.942C439.851 180.519 439.882 179.036 439.59 177.599L432.239 179.356Z" fill="#263238"/>
<path d="M437.879 166.303C438.383 166.357 438.041 168.753 438.284 171.213C438.545 173.843 439.302 174.951 439.545 177.113C439.816 179.582 439.662 180.717 438.771 182.149C437.879 183.581 434.789 185.023 433.365 182.852C432.167 181.095 432.158 179.158 432.32 176.708C432.423 174.678 432.314 172.643 431.996 170.636C431.753 168.519 431.51 166.951 431.996 166.753C431.996 167.033 432.059 167.492 432.086 167.753C432.113 168.015 432.248 168.915 432.41 168.852C432.428 168.621 432.428 168.39 432.41 168.159C432.385 167.948 432.44 167.736 432.564 167.564C432.722 167.424 432.921 167.339 433.131 167.321C433.935 167.166 434.747 167.054 435.563 166.988C436.186 166.935 436.813 166.983 437.419 167.132C437.481 167.152 437.537 167.186 437.584 167.231C437.631 167.277 437.667 167.332 437.69 167.393C437.707 167.485 437.707 167.58 437.69 167.672C437.68 167.842 437.698 168.013 437.744 168.177C437.744 168.249 437.807 168.339 437.879 168.33C437.951 168.321 437.96 168.24 437.969 168.177C437.969 167.879 437.969 167.663 437.969 167.276C437.969 167.114 437.969 166.897 437.969 166.735C437.946 166.59 437.916 166.445 437.879 166.303Z" fill="#37474F"/>
<path d="M439.653 178.546C439.81 179.835 439.544 181.14 438.897 182.266C437.996 183.744 434.681 185.14 433.212 182.978C432.57 181.886 432.234 180.641 432.239 179.374C433.176 177.735 438.257 177.113 439.653 178.546Z" fill="#FAFAFA"/>
<path d="M433.6 176.708H433.663C435.061 176.146 436.597 176.02 438.068 176.348C438.116 176.359 438.166 176.351 438.208 176.325C438.25 176.3 438.28 176.26 438.293 176.212C438.3 176.188 438.302 176.163 438.299 176.138C438.295 176.113 438.287 176.089 438.275 176.067C438.262 176.045 438.245 176.026 438.225 176.011C438.205 175.995 438.182 175.984 438.158 175.978C436.606 175.618 434.98 175.754 433.51 176.366C433.47 176.384 433.438 176.416 433.419 176.456C433.4 176.495 433.395 176.54 433.406 176.583C433.417 176.625 433.442 176.663 433.477 176.689C433.512 176.715 433.556 176.728 433.6 176.726V176.708Z" fill="#F0F0F0"/>
<path d="M437.978 174.492C438.022 174.491 438.065 174.474 438.099 174.444C438.133 174.415 438.155 174.374 438.161 174.33C438.168 174.286 438.158 174.24 438.135 174.202C438.111 174.164 438.074 174.136 438.032 174.122C436.493 173.659 434.837 173.781 433.383 174.465C433.339 174.488 433.306 174.527 433.291 174.574C433.276 174.621 433.28 174.673 433.302 174.717C433.313 174.739 433.328 174.76 433.346 174.776C433.365 174.793 433.386 174.806 433.41 174.814C433.433 174.823 433.458 174.826 433.483 174.825C433.508 174.824 433.532 174.818 433.554 174.807C434.917 174.172 436.464 174.056 437.906 174.483L437.978 174.492Z" fill="#F0F0F0"/>
<path d="M437.888 172.762C437.924 172.762 437.959 172.751 437.988 172.73C438.017 172.709 438.038 172.679 438.05 172.645C438.067 172.598 438.066 172.547 438.046 172.501C438.026 172.456 437.988 172.42 437.942 172.402C437.173 172.121 436.354 172.004 435.538 172.06C434.722 172.116 433.926 172.343 433.203 172.726C433.181 172.738 433.162 172.755 433.146 172.774C433.13 172.794 433.119 172.817 433.112 172.841C433.105 172.866 433.104 172.891 433.107 172.916C433.11 172.941 433.118 172.965 433.131 172.987C433.144 173.009 433.161 173.027 433.181 173.042C433.201 173.057 433.224 173.067 433.249 173.073C433.273 173.079 433.298 173.08 433.323 173.076C433.347 173.072 433.371 173.063 433.392 173.05C434.069 172.704 434.81 172.499 435.569 172.448C436.328 172.396 437.089 172.5 437.807 172.753C437.832 172.765 437.86 172.768 437.888 172.762V172.762Z" fill="#F0F0F0"/>
<path d="M437.771 170.807C437.806 170.807 437.841 170.796 437.871 170.775C437.9 170.754 437.921 170.724 437.933 170.69C437.95 170.643 437.949 170.592 437.929 170.546C437.908 170.501 437.871 170.465 437.825 170.447C437.044 170.186 436.219 170.086 435.399 170.151C434.579 170.216 433.78 170.445 433.05 170.825C433.028 170.836 433.009 170.852 432.993 170.871C432.978 170.89 432.966 170.912 432.96 170.936C432.953 170.959 432.951 170.984 432.954 171.008C432.957 171.033 432.965 171.056 432.978 171.077C432.989 171.099 433.005 171.119 433.024 171.134C433.043 171.15 433.065 171.161 433.089 171.168C433.112 171.175 433.137 171.176 433.161 171.173C433.186 171.17 433.209 171.162 433.23 171.149C433.921 170.797 434.674 170.585 435.447 170.525C436.22 170.465 436.998 170.557 437.735 170.798L437.771 170.807Z" fill="#EBEBEB"/>
<path d="M431.095 89.5946C433.627 93.3152 437.446 98.432 437.266 107.927C436.969 122.872 436.888 132.494 436.888 132.494C437.5 134.133 438.626 135.295 438.617 142.799C438.617 148.79 438.554 163.276 438.554 163.276C438.554 163.276 434.05 165.078 430.528 163.528C429.221 158.646 426.87 143.16 425.852 136.556C424.87 130.133 423.393 117.765 423.393 117.765L419.249 131.836C419.545 134.98 419.414 138.15 418.861 141.259C418.141 145.214 414.871 160.844 414.871 160.844C414.871 160.844 410.411 162.06 407.43 159.754C407.43 159.754 408.538 134.746 408.727 129.917C409.024 122.665 408.961 110.54 410.213 100.639C410.7 96.8555 412.015 92.9728 412.682 90.4324L431.095 89.5946Z" fill="#37474F"/>
<path d="M415.645 131.322C415.95 135.861 415.73 140.42 414.988 144.907C414.465 148.556 413.123 157.871 412.537 161.123H412.943C413.528 157.862 414.862 148.583 415.384 144.907C416.126 140.398 416.347 135.819 416.042 131.259C415.871 128.052 417.952 112.648 419.105 105.855L418.735 105.792C417.537 112.666 415.456 128.115 415.645 131.322Z" fill="#455A64"/>
<path d="M435.464 134.25C435.374 133.953 435.284 133.692 435.221 133.43C434.942 132.412 434.699 125.061 434.834 119.818C434.924 116.134 435.023 112.323 435.005 109.233C435.005 101.396 433.203 95.1439 429.456 89.6757H429.014C431.383 93.0899 433.23 99.0806 434.095 103.306C432.293 103.08 429.78 100.873 428.78 98.2879C427.699 95.4592 426.221 91.2341 426.203 91.1891L425.861 91.3422C425.861 91.3422 427.348 95.6033 428.438 98.423C429.338 100.819 430.239 102.432 433.149 103.459C433.511 103.614 433.9 103.694 434.293 103.693C434.573 105.52 434.688 107.368 434.635 109.215C434.635 112.296 434.554 116.107 434.455 119.791C434.32 125.296 434.563 132.403 434.861 133.512C434.933 133.773 435.014 134.043 435.113 134.34C435.644 135.998 436.302 139.745 436.428 147.772C436.491 152.006 436.87 162.519 436.879 165.393L437.248 165.276C437.248 162.42 436.861 151.952 436.798 147.772C436.662 139.682 435.996 135.917 435.464 134.25Z" fill="#455A64"/>
<path d="M438.608 162.726C437.149 163.627 432.347 164.114 430.411 163.339L430.915 165.645C432.194 166.056 433.541 166.209 434.879 166.096C437.581 165.996 438.554 164.861 438.554 164.861L438.608 162.726Z" fill="#455A64"/>
<path d="M415.519 158.664C413.907 159.186 409.213 158.366 407.529 157.186L407.466 159.754C408.515 160.61 409.807 161.115 411.159 161.195C413.862 161.555 414.907 160.844 414.907 160.844L415.519 158.664Z" fill="#455A64"/>
<path d="M423.393 117.809L421.753 105.891C421.753 105.891 415.447 104.99 413.231 102.765C413.231 102.765 416.033 106.9 420.294 107.648L421.906 116.431L419.303 131.746L423.393 117.809Z" fill="#263238"/>
<path d="M417.042 67.8568C414.79 67.8568 412.537 68.7036 410.447 72.0188C408.646 74.7754 406.376 78.3698 404.619 81.5229L394.025 79.1806L393.025 84.4777C393.025 84.4777 402.394 88.3153 405.15 88.9279C407.213 89.3874 407.853 89.6306 410.168 87.0451C412.483 84.4597 415.826 79.8383 415.826 79.8383L417.042 67.8568Z" fill="#1D9BF0"/>
<path opacity="0.2" d="M417.042 67.8568C414.79 67.8568 412.537 68.7036 410.447 72.0188C408.646 74.7754 406.376 78.3698 404.619 81.5229L394.025 79.1806L393.025 84.4777C393.025 84.4777 402.394 88.3153 405.15 88.9279C407.213 89.3874 407.853 89.6306 410.168 87.0451C412.483 84.4597 415.826 79.8383 415.826 79.8383L417.042 67.8568Z" fill="black"/>
<path d="M385.962 74.5682L386.431 74.0727C386.502 74.0125 386.587 73.9711 386.678 73.9523C386.769 73.9334 386.864 73.9376 386.953 73.9646L393.079 75.0096C393.368 75.0743 393.64 75.2014 393.874 75.3819C394.109 75.5624 394.302 75.7919 394.439 76.0546L399.556 87.1802C399.615 87.2699 399.646 87.3748 399.646 87.482C399.646 87.5893 399.615 87.6942 399.556 87.7838V87.7838L399.07 88.2883C398.996 88.3481 398.91 88.3898 398.818 88.4102C398.726 88.4305 398.63 88.4289 398.538 88.4054L392.412 87.3514C392.123 87.2867 391.852 87.1597 391.617 86.9792C391.382 86.7987 391.189 86.5691 391.052 86.3064L385.917 75.1538C385.863 75.0637 385.838 74.9588 385.846 74.8538C385.854 74.7487 385.894 74.6489 385.962 74.5682V74.5682Z" fill="#455A64"/>
<path d="M393.241 75.7484C393.548 75.9394 393.797 76.2103 393.962 76.5322L399.088 87.6578C399.142 87.7458 399.17 87.8472 399.17 87.9506C399.17 88.054 399.142 88.1553 399.088 88.2433L399.538 87.7659C399.597 87.6781 399.629 87.5746 399.629 87.4686C399.629 87.3627 399.597 87.2592 399.538 87.1713L394.412 76.0457C394.262 75.7431 394.031 75.4876 393.745 75.307L393.241 75.7484Z" fill="#263238"/>
<path d="M399.088 87.6577L393.962 76.5321C393.824 76.2702 393.631 76.0412 393.396 75.8608C393.161 75.6804 392.89 75.553 392.601 75.4871L386.467 74.4331C385.944 74.343 385.701 74.6673 385.917 75.1538L391.043 86.2794C391.181 86.5414 391.374 86.7704 391.609 86.9507C391.844 87.1311 392.115 87.2586 392.403 87.3244L398.529 88.3784C399.061 88.4685 399.304 88.1442 399.088 87.6577Z" fill="#37474F"/>
<path d="M394.196 78.9463L393.232 76.8653C393.207 76.8158 393.171 76.7724 393.128 76.7381C393.084 76.7039 393.034 76.6796 392.98 76.6671L391.917 76.4869C391.818 76.4869 391.773 76.532 391.809 76.6221L392.772 78.703C392.797 78.7525 392.833 78.796 392.877 78.8302C392.92 78.8644 392.971 78.8887 393.025 78.9012L394.088 79.0814C394.187 79.0724 394.232 79.0724 394.196 78.9463Z" fill="#455A64"/>
<path d="M393.232 77.388C393.166 77.2643 393.074 77.1565 392.962 77.0725C392.85 76.9884 392.72 76.93 392.583 76.9015C392.331 76.9015 392.205 77.0096 392.313 77.2258C392.379 77.3495 392.471 77.4572 392.583 77.5413C392.695 77.6254 392.824 77.6837 392.962 77.7123C393.214 77.7483 393.34 77.6042 393.232 77.388Z" fill="#263238"/>
<path d="M393.701 78.4418C393.636 78.3191 393.545 78.212 393.434 78.128C393.324 78.044 393.196 77.9851 393.061 77.9553C392.8 77.9553 392.674 78.0634 392.782 78.2796C392.845 78.4041 392.937 78.512 393.05 78.5949C393.162 78.6778 393.293 78.7333 393.43 78.7571C393.683 78.8021 393.809 78.658 393.701 78.4418Z" fill="#263238"/>
<path d="M387.178 80.577C386.566 79.9554 386.593 79.8563 386.809 79.4509C386.964 79.1312 387.194 78.8536 387.48 78.6419C387.765 78.4301 388.097 78.2905 388.448 78.2348C388.964 78.11 389.498 78.0765 390.025 78.1357C390.376 78.2528 390.214 78.9644 389.448 79.2797C388.223 79.7752 388.295 80.1176 388.295 80.1176C388.813 79.9008 389.342 79.7143 389.881 79.559C390.513 79.5086 391.149 79.5086 391.782 79.559C392.322 79.559 392.547 80.2257 391.683 80.613H392.691C393.394 80.613 393.682 80.9373 393.214 81.4508C393.067 81.6257 392.863 81.7436 392.637 81.7841C392.637 81.7841 393.367 81.658 393.421 81.9013C393.583 82.5859 393.16 82.8021 391.764 83.5228C390.367 84.2435 390.313 84.766 390.629 85.4416C390.629 85.4416 390.007 85.2074 389.448 84.9462C389.034 84.757 388.674 84.5228 388.746 83.9192C388.746 83.9192 387.944 84.0723 387.845 83.5769C387.771 83.2173 387.771 82.8464 387.845 82.4868C387.689 82.4277 387.553 82.3265 387.451 82.1945C387.349 82.0625 387.286 81.9049 387.268 81.7391C387.218 81.4311 387.269 81.1152 387.412 80.8382L387.178 80.577Z" fill="#FFA8A7"/>
<path d="M391.683 80.577C391.381 80.5685 391.08 80.5866 390.782 80.631C390.49 80.7231 390.216 80.8631 389.971 81.0454C389.469 81.3674 388.996 81.7321 388.557 82.1354C389.099 81.8821 389.618 81.5806 390.106 81.2346C390.336 81.0666 390.58 80.9189 390.836 80.7932C391.097 80.7391 391.403 80.6851 391.683 80.577Z" fill="#F28F8F"/>
<path d="M392.637 81.7752C392.31 81.7386 391.978 81.7851 391.673 81.9103C391.359 82.0261 391.057 82.174 390.773 82.3517C390.224 82.6852 389.713 83.0779 389.25 83.5229C389.818 83.2359 390.372 82.9202 390.908 82.5769C391.427 82.2004 392.014 81.9282 392.637 81.7752V81.7752Z" fill="#F28F8F"/>
<path d="M420.888 67.7126C420.888 67.7126 429.735 68.1 431.951 69.082C432.969 69.5324 433.527 71.6404 433.149 77.9464C432.96 81.0544 432.789 83.82 432.861 86.4235C432.924 88.3009 433.165 90.1681 433.582 91.9998C428.23 96.1708 412.7 94.7024 410.538 91.9007C410.538 91.9007 411.168 86.3424 411.366 83.4687C411.366 83.4687 409.745 80.7661 409.862 78.9644C410.015 76.3159 410.556 75.361 412.943 72.3881C414.211 70.7834 415.577 69.2581 417.033 67.8207L420.888 67.7126Z" fill="#1D9BF0"/>
<path d="M414.276 55.9475C409.547 50.6865 415.105 46.0381 421.916 46.0381C426.924 46.0381 431.393 50.2181 431.636 54.7674C431.951 60.7491 431.239 62.3797 428.492 64.5508C424.546 67.6768 414.375 68.1542 412.276 62.749C414.033 62.3887 414.538 59.7852 414.276 55.9475Z" fill="#37474F"/>
<path d="M426.708 66.902L426.942 62.1905C427.36 62.4049 427.838 62.469 428.298 62.3722C428.757 62.2755 429.169 62.0236 429.465 61.659C430.852 60.1816 430.978 58.5961 430.194 57.5871C429.411 56.5781 427.492 56.9115 426.672 58.2988C425.447 58.6051 424.933 56.8574 425.843 55.0557C425.843 55.0557 423.33 53.6323 423.771 51.0108C421.42 50.3983 417.627 50.6415 415.573 50.8577C414.907 51.8937 413.907 53.3621 414.06 58.6321C414.195 63.1364 415.519 64.1814 416.762 64.9381C417.747 65.4054 418.838 65.6043 419.925 65.5147L419.87 67.0732C419.87 67.7218 419.69 67.7488 419.123 67.7848L418.276 67.8479C418.276 67.8479 416.186 70.3523 420.249 70.8298C426.312 71.5504 429.564 68.5055 429.564 68.5055L428.149 68.3073C427.095 68.1452 426.807 67.7758 426.708 66.902Z" fill="#FFA8A7"/>
<path d="M421.42 60.641L419.042 61.4428C419.087 61.6023 419.164 61.751 419.268 61.8799C419.372 62.0088 419.501 62.1152 419.648 62.1927C419.794 62.2702 419.955 62.3171 420.12 62.3307C420.286 62.3442 420.452 62.3241 420.609 62.2716C420.931 62.1607 421.197 61.9275 421.349 61.6224C421.5 61.3173 421.526 60.9648 421.42 60.641V60.641Z" fill="#B16668"/>
<path d="M421.276 61.1994C420.958 61.1965 420.649 61.3034 420.402 61.5021C420.154 61.7007 419.982 61.9788 419.916 62.2894C420.141 62.3612 420.384 62.3612 420.609 62.2894C420.837 62.2127 421.038 62.0729 421.19 61.8864C421.341 61.6998 421.437 61.4741 421.465 61.2354L421.276 61.1994Z" fill="#F28F8F"/>
<path d="M419.537 55.6503L419.204 59.6861L416.916 59.0195C417.466 57.6785 418.373 56.5135 419.537 55.6503V55.6503Z" fill="#F28F8F"/>
<path d="M414.997 55.6502L416.591 54.9115C416.55 54.8043 416.488 54.7067 416.407 54.625C416.326 54.5433 416.229 54.4792 416.123 54.4368C416.016 54.3945 415.902 54.3748 415.787 54.379C415.672 54.3831 415.56 54.4111 415.456 54.4611C415.348 54.5089 415.25 54.5777 415.168 54.6634C415.087 54.749 415.023 54.85 414.98 54.9604C414.937 55.0709 414.917 55.1886 414.92 55.307C414.923 55.4254 414.949 55.542 414.997 55.6502Z" fill="#263238"/>
<path d="M422.744 55.5062L421.159 54.6774C421.267 54.4721 421.449 54.3164 421.669 54.2426C421.889 54.1687 422.129 54.1825 422.339 54.281C422.447 54.3336 422.544 54.4074 422.623 54.4979C422.702 54.5884 422.762 54.6939 422.8 54.8081C422.838 54.9223 422.852 55.0429 422.843 55.1628C422.833 55.2827 422.8 55.3994 422.744 55.5062V55.5062Z" fill="#263238"/>
<path d="M416.907 56.6861C416.925 56.8803 416.866 57.0738 416.743 57.2253C416.62 57.3768 416.443 57.4742 416.249 57.4969C416.154 57.5082 416.058 57.5005 415.967 57.4744C415.875 57.4482 415.789 57.4041 415.715 57.3446C415.64 57.2851 415.578 57.2114 415.532 57.1278C415.486 57.0441 415.457 56.9522 415.447 56.8573C415.43 56.6617 415.49 56.467 415.615 56.3153C415.739 56.1636 415.919 56.067 416.114 56.0465C416.209 56.0326 416.305 56.0385 416.397 56.0637C416.49 56.0889 416.576 56.1329 416.65 56.193C416.725 56.2531 416.786 56.3279 416.83 56.4127C416.874 56.4976 416.9 56.5907 416.907 56.6861V56.6861Z" fill="#263238"/>
<path d="M422.24 56.7853C422.253 56.9799 422.191 57.1722 422.067 57.3228C421.943 57.4735 421.767 57.5712 421.573 57.596C421.479 57.6073 421.383 57.5995 421.292 57.5733C421.201 57.5471 421.116 57.5028 421.042 57.4432C420.968 57.3836 420.907 57.3099 420.862 57.2263C420.817 57.1427 420.789 57.0509 420.78 56.9564C420.765 56.7627 420.825 56.5704 420.947 56.4195C421.07 56.2685 421.245 56.1705 421.438 56.1456C421.533 56.1331 421.63 56.1399 421.722 56.1655C421.814 56.1912 421.9 56.2351 421.975 56.2949C422.05 56.3546 422.112 56.4288 422.157 56.5131C422.203 56.5973 422.231 56.6899 422.24 56.7853V56.7853Z" fill="#263238"/>
<path d="M419.916 65.4966C421.517 65.355 423.076 64.9086 424.51 64.1814C425.146 63.7967 425.654 63.2325 425.969 62.5598C425.94 63.0414 425.807 63.5111 425.58 63.9369C425.353 64.3628 425.037 64.7349 424.654 65.0282C423.195 66.1543 419.871 66.7308 419.871 66.7308L419.916 65.4966Z" fill="#F28F8F"/>
<path d="M415.087 49.2181C414.925 49.7616 414.873 50.3318 414.932 50.8958C414.991 51.4598 415.161 52.0065 415.433 52.5045C415.704 53.0026 416.071 53.4421 416.512 53.798C416.954 54.1538 417.461 54.419 418.006 54.5782C417.506 53.7256 417.333 52.7202 417.519 51.7495C417.519 51.7495 420.357 57.1546 426.384 55.6862L425.348 50.1549C422.555 48.2992 418.258 46.9569 415.087 49.2181Z" fill="#37474F"/>
<path d="M426.302 98.1258C426.302 97.9727 426.473 97.9367 426.609 97.9096C426.897 97.8466 427.176 97.7925 427.455 97.7114C427.894 97.5785 428.321 97.4129 428.735 97.216C429.322 96.9956 429.924 96.815 430.536 96.6754C430.834 96.6034 431.266 96.5403 431.563 96.4863C432.131 96.3872 432.401 96.0899 432.996 95.2611C433.395 94.5696 433.75 93.8535 434.059 93.1171C435.671 93.045 438.158 94.8737 438.347 96.6754C438.347 96.6754 437.86 97.216 437.266 97.8466C436.667 98.4853 436.228 99.2572 435.986 100.099C435.607 101.303 434.96 102.405 434.095 103.324C433.07 103.204 432.099 102.804 431.287 102.169C430.475 101.533 429.853 100.686 429.491 99.7204C429.626 99.5402 429.933 99.1078 429.446 99.0808H429.032C428.708 99.0808 428.383 99.1348 428.068 99.1348C427.653 99.1823 427.233 99.1072 426.861 98.9186C426.573 98.7474 426.221 98.4952 426.302 98.1258Z" fill="#FFA8A7"/>
<path d="M434.077 103.324C432.528 103.1 431.128 102.279 430.176 101.036C429.901 100.65 429.674 100.233 429.501 99.7924C429.859 100.448 430.342 101.026 430.924 101.495C431.295 101.882 431.758 102.168 432.271 102.326C432.783 102.484 433.327 102.508 433.852 102.396C434.6 102.123 435.235 101.606 435.653 100.927C435.287 101.82 434.752 102.634 434.077 103.324V103.324Z" fill="#F28F8F"/>
<path d="M430.527 68.6766C434.041 69.1631 434.914 69.4604 435.995 70.7576C437.076 72.0549 437.509 73.298 439.599 76.7033C440.734 78.505 442.761 81.9913 444.373 84.9822C445.508 87.0722 445.211 87.7749 443.175 91.1261C441.406 93.9452 439.44 96.6364 437.293 99.1798C436.302 99.2248 433.392 97.0447 432.644 95.5043L436.806 88.2073L431.797 80.3428C430.66 78.8256 429.892 77.0644 429.554 75.1989C429.158 73.253 429.41 69.9288 430.527 68.6766Z" fill="#1D9BF0"/>
<path opacity="0.2" d="M430.527 68.6766C434.041 69.1631 434.914 69.4604 435.995 70.7576C437.076 72.0549 437.509 73.298 439.599 76.7033C440.734 78.505 442.761 81.9913 444.373 84.9822C445.508 87.0722 445.211 87.7749 443.175 91.1261C441.406 93.9452 439.44 96.6364 437.293 99.1798C436.302 99.2248 433.392 97.0447 432.644 95.5043L436.806 88.2073L431.797 80.3428C430.66 78.8256 429.892 77.0644 429.554 75.1989C429.158 73.253 429.41 69.9288 430.527 68.6766Z" fill="black"/>
<g opacity="0.15" filter="url(#filter1_f_274_489)">
<path d="M226.771 151.181L108.56 219.331C105.605 221.034 105.605 223.835 108.56 225.502L332.685 354.901C337.189 357.514 344.612 357.505 349.126 354.901L464.436 288.418C467.76 286.49 467.769 283.346 464.436 281.418L238.888 151.181C237.01 150.23 234.934 149.735 232.829 149.735C230.724 149.735 228.649 150.23 226.771 151.181V151.181Z" fill="black"/>
</g>
<path d="M240.455 123.606L466.409 254.068C472.219 257.419 472.156 261.275 472.156 264.653C472.156 268.032 470.616 272.815 466.409 275.247L348.504 343.217C344.297 345.65 337.478 345.65 333.262 343.217L107.308 212.764C103.101 210.331 102.146 206.26 102.146 202.854C102.146 199.449 103.101 194.026 107.308 191.603L225.213 123.606C227.496 122.173 230.138 121.413 232.834 121.413C235.53 121.413 238.171 122.173 240.455 123.606V123.606Z" fill="#37474F"/>
<path d="M234.888 128.29L113.929 198.044L340.883 329.029V345.037C338.231 345.096 335.607 344.476 333.262 343.236L107.308 212.764C103.101 210.332 102.146 206.26 102.146 202.855C102.146 199.449 103.101 194.026 107.308 191.603L225.213 123.606C228.102 121.821 231.524 121.101 234.888 121.57V128.29Z" fill="#263238"/>
<path d="M226.771 124.732L108.56 192.891C105.605 194.593 105.605 197.395 108.56 199.062L332.685 328.461C337.189 331.065 344.612 331.065 349.126 328.461L464.436 261.969C467.76 260.05 467.769 256.897 464.436 254.978L238.888 124.732C237.007 123.789 234.933 123.297 232.829 123.297C230.726 123.297 228.651 123.789 226.771 124.732V124.732Z" fill="#455A64"/>
<path d="M247.194 132.903L451.275 250.735C454.581 252.645 454.59 255.762 451.275 257.663L339.568 322.092C337.71 323.038 335.654 323.532 333.568 323.532C331.483 323.532 329.427 323.038 327.569 322.092L121.884 203.341C119.182 201.791 118.668 199.449 120.362 197.602L120.776 197.179C121.12 196.889 121.491 196.632 121.884 196.413L231.438 133.254L232.032 132.903C236.185 130.488 243.014 130.497 247.194 132.903Z" fill="#FAFAFA"/>
<path d="M165.125 164.325L180.395 155.514C180.885 155.251 181.43 155.109 181.986 155.098C182.542 155.087 183.093 155.208 183.593 155.451C184.44 155.947 184.395 156.775 183.485 157.298L168.188 166.126C167.698 166.389 167.153 166.532 166.597 166.543C166.041 166.554 165.49 166.433 164.99 166.189C164.134 165.658 164.224 164.829 165.125 164.325Z" fill="#263238"/>
<path d="M187.566 150.604C188.142 150.316 188.777 150.166 189.422 150.166C190.066 150.166 190.701 150.316 191.277 150.604C191.503 150.68 191.699 150.824 191.839 151.018C191.978 151.211 192.053 151.443 192.053 151.681C192.053 151.919 191.978 152.151 191.839 152.344C191.699 152.537 191.503 152.682 191.277 152.757C190.701 153.046 190.066 153.196 189.422 153.196C188.777 153.196 188.142 153.046 187.566 152.757C187.34 152.682 187.144 152.537 187.004 152.344C186.865 152.151 186.791 151.919 186.791 151.681C186.791 151.443 186.865 151.211 187.004 151.018C187.144 150.824 187.34 150.68 187.566 150.604V150.604Z" fill="#263238"/>
<path d="M174.431 240.069C175.287 240.605 176.005 241.336 176.526 242.201C177.047 243.067 177.357 244.043 177.431 245.051C177.467 245.39 177.408 245.733 177.262 246.041C177.116 246.349 176.888 246.611 176.602 246.798C176.242 247.005 174.881 247.816 174.503 248.023C174.151 248.176 173.766 248.233 173.385 248.191C173.004 248.148 172.641 248.006 172.332 247.78L153.927 237.15C153.07 236.614 152.351 235.884 151.828 235.018C151.306 234.153 150.994 233.176 150.919 232.168C150.887 231.841 150.941 231.511 151.076 231.211C151.21 230.911 151.42 230.651 151.684 230.457C152.054 230.222 153.486 229.403 153.846 229.186C154.199 229.038 154.585 228.983 154.965 229.028C155.345 229.072 155.708 229.213 156.017 229.439L174.431 240.069Z" fill="#455A64"/>
<path d="M172.332 241.276L153.927 230.646C152.27 229.691 150.918 230.367 150.918 232.168C150.994 233.177 151.305 234.153 151.828 235.018C152.351 235.884 153.07 236.614 153.927 237.15L172.332 247.78C173.989 248.735 175.341 248.059 175.341 246.258C175.265 245.249 174.954 244.273 174.431 243.408C173.908 242.542 173.189 241.812 172.332 241.276Z" fill="#37474F"/>
<path d="M142.207 221.457C143.064 221.995 143.781 222.728 144.303 223.595C144.824 224.462 145.134 225.439 145.207 226.448C145.243 226.787 145.185 227.13 145.039 227.438C144.892 227.746 144.664 228.009 144.378 228.195C144.018 228.394 142.658 229.213 142.279 229.421C141.927 229.571 141.542 229.628 141.162 229.585C140.781 229.543 140.418 229.402 140.108 229.177L121.704 218.547C120.846 218.009 120.127 217.277 119.605 216.411C119.082 215.544 118.77 214.566 118.695 213.557C118.665 213.229 118.719 212.9 118.853 212.6C118.987 212.3 119.197 212.04 119.461 211.845C119.83 211.611 121.262 210.791 121.623 210.584C121.975 210.433 122.36 210.377 122.74 210.419C123.121 210.462 123.484 210.602 123.794 210.827L142.207 221.457Z" fill="#455A64"/>
<path d="M140.109 222.673L121.704 212.07C120.037 211.115 118.695 211.791 118.695 213.584C118.768 214.594 119.079 215.572 119.602 216.439C120.125 217.307 120.845 218.038 121.704 218.574L140.109 229.186C141.766 230.141 143.117 229.457 143.117 227.664C143.043 226.654 142.732 225.676 142.21 224.809C141.687 223.942 140.967 223.21 140.109 222.673V222.673Z" fill="#37474F"/>
<path d="M205.853 193.891C204.277 192.99 200.907 193.449 198.331 194.936C195.754 196.422 194.935 198.368 196.529 199.278C198.124 200.188 201.475 199.719 204.051 198.233C206.628 196.746 207.466 194.801 205.853 193.891ZM269.003 173.937L255.256 191.566L296.263 190.666L310.002 173.045L269.003 173.937ZM220.24 176.288L209.087 190.801C210.099 191.034 210.982 191.647 211.556 192.512L248.995 191.702L261.797 175.378L220.24 176.288ZM315.091 176.036L303.705 190.63L328.397 183.675L315.091 176.036ZM333.586 186.639L299.353 196.26L260.616 245.924C274.003 242.033 284.678 241.105 295.227 243.276L337.343 188.828L333.586 186.639ZM209.7 197.584C207.898 199.791 206.15 200.485 202.187 201.782L214.799 226.105L269.625 224.871L292.074 195.792L209.7 197.584ZM212.042 231.574L198.376 243.285L228.014 260.401C235.247 256.023 242.838 252.268 250.707 249.177L265.328 230.421L212.042 231.574ZM249.617 138.2L224.168 171.243L303.858 169.504L249.617 138.2ZM341.784 191.404L300.173 244.114L303.146 244.618L368.557 206.854L341.784 191.404ZM194.746 203.061C194.02 202.909 193.327 202.629 192.701 202.233L156.189 218.917L193.953 240.681L207.628 228.97L194.746 203.061ZM290.345 248.104C273.886 245.312 252.77 250.546 231.789 262.608L251.941 274.229L295.597 249.005L290.345 248.104ZM245.212 135.668C241.842 133.749 235.609 134.191 231.329 136.659L230.717 137.019L169.431 172.432L218.645 171.369L245.851 136.037L245.212 135.668ZM160.198 177.729L128.667 195.936C128.261 196.163 127.872 196.422 127.505 196.71C127.343 196.846 127.199 196.981 127.046 197.125C125.136 198.927 125.172 201.035 127.334 202.278L151.513 216.241L190.638 198.323C191.232 196.719 192.656 195.062 195.736 193.269C198.234 191.879 200.968 190.963 203.799 190.567L214.673 176.414L160.198 177.729Z" fill="#1D9BF0"/>
<path opacity="0.6" d="M205.853 193.891C204.277 192.99 200.907 193.449 198.331 194.936C195.754 196.422 194.935 198.368 196.529 199.278C198.124 200.188 201.475 199.719 204.051 198.233C206.628 196.746 207.466 194.801 205.853 193.891ZM269.003 173.937L255.256 191.566L296.263 190.666L310.002 173.045L269.003 173.937ZM220.24 176.288L209.087 190.801C210.099 191.034 210.982 191.647 211.556 192.512L248.995 191.702L261.797 175.378L220.24 176.288ZM315.091 176.036L303.705 190.63L328.397 183.675L315.091 176.036ZM333.586 186.639L299.353 196.26L260.616 245.924C274.003 242.033 284.678 241.105 295.227 243.276L337.343 188.828L333.586 186.639ZM209.7 197.584C207.898 199.791 206.15 200.485 202.187 201.782L214.799 226.105L269.625 224.871L292.074 195.792L209.7 197.584ZM212.042 231.574L198.376 243.285L228.014 260.401C235.247 256.023 242.838 252.268 250.707 249.177L265.328 230.421L212.042 231.574ZM249.617 138.2L224.168 171.243L303.858 169.504L249.617 138.2ZM341.784 191.404L300.173 244.114L303.146 244.618L368.557 206.854L341.784 191.404ZM194.746 203.061C194.02 202.909 193.327 202.629 192.701 202.233L156.189 218.917L193.953 240.681L207.628 228.97L194.746 203.061ZM290.345 248.104C273.886 245.312 252.77 250.546 231.789 262.608L251.941 274.229L295.597 249.005L290.345 248.104ZM245.212 135.668C241.842 133.749 235.609 134.191 231.329 136.659L230.717 137.019L169.431 172.432L218.645 171.369L245.851 136.037L245.212 135.668ZM160.198 177.729L128.667 195.936C128.261 196.163 127.872 196.422 127.505 196.71C127.343 196.846 127.199 196.981 127.046 197.125C125.136 198.927 125.172 201.035 127.334 202.278L151.513 216.241L190.638 198.323C191.232 196.719 192.656 195.062 195.736 193.269C198.234 191.879 200.968 190.963 203.799 190.567L214.673 176.414L160.198 177.729Z" fill="white"/>
<path opacity="0.15" d="M331.154 298.363L350.378 309.462C350.633 309.593 350.916 309.662 351.202 309.662C351.489 309.662 351.772 309.593 352.027 309.462L427.213 266.041C427.312 266.007 427.399 265.942 427.46 265.857C427.521 265.771 427.554 265.668 427.554 265.563C427.554 265.458 427.521 265.355 427.46 265.27C427.399 265.184 427.312 265.12 427.213 265.086L407.988 253.987C407.733 253.856 407.451 253.787 407.164 253.787C406.877 253.787 406.595 253.856 406.34 253.987L331.154 297.409C331.054 297.443 330.968 297.507 330.906 297.592C330.845 297.678 330.812 297.781 330.812 297.886C330.812 297.991 330.845 298.094 330.906 298.18C330.968 298.265 331.054 298.329 331.154 298.363Z" fill="black"/>
<path d="M427.204 262.716L352.018 306.138C351.763 306.269 351.48 306.337 351.194 306.337C350.907 306.337 350.624 306.269 350.369 306.138L331.145 295.039C330.907 294.883 330.709 294.672 330.568 294.425C330.427 294.178 330.347 293.9 330.334 293.616L330.379 290.238C330.393 289.95 330.475 289.67 330.619 289.421C330.764 289.172 330.965 288.96 331.208 288.805L406.394 245.402C406.649 245.271 406.931 245.202 407.218 245.202C407.505 245.202 407.787 245.271 408.042 245.402L427.276 256.482C427.515 256.64 427.713 256.852 427.854 257.101C427.995 257.35 428.075 257.629 428.086 257.915L428.041 261.293C428.025 261.58 427.941 261.859 427.795 262.106C427.649 262.354 427.447 262.563 427.204 262.716Z" fill="#1D9BF0"/>
<path d="M331.208 289.76L350.432 300.859C350.687 300.99 350.97 301.058 351.257 301.058C351.543 301.058 351.826 300.99 352.081 300.859L427.276 257.437C427.375 257.403 427.462 257.339 427.523 257.253C427.584 257.168 427.617 257.065 427.617 256.96C427.617 256.855 427.584 256.752 427.523 256.666C427.462 256.581 427.375 256.516 427.276 256.482L408.042 245.402C407.788 245.271 407.505 245.202 407.218 245.202C406.931 245.202 406.649 245.271 406.394 245.402L331.208 288.823C331.114 288.861 331.034 288.925 330.978 289.009C330.921 289.092 330.891 289.191 330.891 289.292C330.891 289.393 330.921 289.491 330.978 289.575C331.034 289.658 331.114 289.723 331.208 289.76V289.76Z" fill="#1D9BF0"/>
<path opacity="0.2" d="M331.208 288.805C330.969 288.965 330.77 289.177 330.625 289.425C330.479 289.673 330.393 289.951 330.37 290.238V293.616C330.383 293.9 330.464 294.178 330.605 294.425C330.745 294.672 330.943 294.883 331.181 295.039L350.405 306.147C350.683 306.291 350.994 306.357 351.306 306.336V301.048C351.021 301.057 350.739 300.992 350.486 300.859L331.262 289.76C330.794 289.544 330.722 289.085 331.208 288.805Z" fill="black"/>
<path opacity="0.4" d="M427.393 256.573C427.717 256.834 427.672 257.203 427.267 257.473L352.081 300.895C351.826 301.03 351.54 301.095 351.252 301.084V306.372C351.529 306.38 351.804 306.311 352.045 306.174L427.231 262.753C427.474 262.599 427.677 262.39 427.822 262.143C427.968 261.895 428.052 261.616 428.068 261.329V257.951C428.064 257.686 428.002 257.425 427.885 257.186C427.768 256.948 427.6 256.738 427.393 256.573V256.573Z" fill="white"/>
<path d="M144.333 114.099V110.316C144.393 105.378 145.216 100.48 146.775 95.7939C150.738 83.5151 159.08 71.7949 168.738 66.2276C174.881 62.6782 180.449 62.2368 184.782 64.3719L176.332 59.5072C174.248 58.1338 171.8 57.4182 169.305 57.4533C168.908 57.4492 168.511 57.4672 168.116 57.5073C167.705 57.5292 167.296 57.5773 166.891 57.6514C166.468 57.6981 166.05 57.7764 165.639 57.8857C165.215 57.9757 164.738 58.0929 164.35 58.219C163.449 58.495 162.565 58.8228 161.702 59.2009C161.251 59.3991 160.801 59.6243 160.342 59.8405C159.882 60.0567 159.441 60.327 158.963 60.5882C145.45 68.3717 134.577 88.1185 134.577 104.73V108.505C134.577 125.09 156.873 143.107 156.873 143.107L165.882 148.206C165.719 148.109 165.565 147.997 165.422 147.873C158.792 141.693 144.333 126.883 144.333 114.099ZM170.954 79.2361C171.037 79.6552 171.091 80.0796 171.116 80.5063C171.116 80.6414 171.116 80.7855 171.116 80.9477C171.13 81.1997 171.13 81.4524 171.116 81.7044C171.116 89.4698 165.657 98.9379 158.909 102.83C158.666 102.965 158.423 103.1 158.179 103.217C157.936 103.334 157.693 103.451 157.459 103.559L156.756 103.848H156.684C157.738 109.793 162.693 111.874 168.683 108.433C175.413 104.541 180.872 95.0822 180.872 87.2987C180.926 80.4522 176.629 77.1641 170.954 79.2541V79.2361Z" fill="#1D9BF0"/>
<path opacity="0.2" d="M144.333 114.099V110.316C144.393 105.378 145.216 100.48 146.775 95.7939C150.738 83.5151 159.08 71.7949 168.738 66.2276C174.881 62.6782 180.449 62.2368 184.782 64.3719L176.332 59.5072C174.248 58.1338 171.8 57.4182 169.305 57.4533C168.908 57.4492 168.511 57.4672 168.116 57.5073C167.705 57.5292 167.296 57.5773 166.891 57.6514C166.468 57.6981 166.05 57.7764 165.639 57.8857C165.215 57.9757 164.738 58.0929 164.35 58.219C163.449 58.495 162.565 58.8228 161.702 59.2009C161.251 59.3991 160.801 59.6243 160.342 59.8405C159.882 60.0567 159.441 60.327 158.963 60.5882C145.45 68.3717 134.577 88.1185 134.577 104.73V108.505C134.577 125.09 156.873 143.107 156.873 143.107L165.882 148.206C165.719 148.109 165.565 147.997 165.422 147.873C158.792 141.693 144.333 126.883 144.333 114.099Z" fill="black"/>
<path opacity="0.5" d="M170.954 79.2542C171.037 79.6733 171.091 80.0977 171.116 80.5244C171.116 80.6595 171.116 80.8036 171.116 80.9658C171.13 81.2178 171.13 81.4705 171.116 81.7225C171.116 89.4879 165.657 98.956 158.909 102.848C158.666 102.983 158.423 103.118 158.18 103.235C157.936 103.352 157.693 103.469 157.459 103.577L156.756 103.866H156.684C157.738 109.811 162.693 111.892 168.684 108.451C175.413 104.559 180.872 95.1003 180.872 87.3169C180.926 80.4523 176.629 77.1642 170.954 79.2542Z" fill="black"/>
<path d="M193.124 82.164C193.124 65.5881 182.196 58.4443 168.729 66.2277C155.261 74.0112 144.333 93.749 144.333 110.37V114.099C144.333 126.874 158.801 141.693 165.449 147.828C165.825 148.176 166.278 148.432 166.77 148.575C167.263 148.718 167.782 148.743 168.286 148.65C168.79 148.556 169.266 148.346 169.674 148.036C170.083 147.726 170.413 147.324 170.638 146.864C176.386 135.098 193.16 99.6677 193.16 85.9296L193.124 82.164ZM168.729 108.478C161.99 112.37 156.531 109.217 156.531 101.433C156.531 93.6499 161.99 84.1999 168.729 80.3082C175.467 76.4165 180.926 79.5695 180.926 87.3529C180.926 95.1363 175.467 104.586 168.729 108.478V108.478Z" fill="#1D9BF0"/>
<path d="M184.782 64.3719L176.332 59.5072C174.248 58.1338 171.8 57.4182 169.305 57.4533C168.908 57.4492 168.511 57.4672 168.116 57.5073C167.705 57.5292 167.296 57.5773 166.891 57.6514C166.468 57.6981 166.05 57.7764 165.639 57.8857C165.215 57.9757 164.738 58.0929 164.35 58.219C163.449 58.495 162.565 58.8228 161.702 59.2009C161.251 59.3991 160.801 59.6243 160.342 59.8405C159.882 60.0567 159.441 60.327 158.963 60.5882C149.856 65.8493 141.919 76.5875 137.73 88.1185L147.486 93.7489C151.675 82.2269 159.621 71.4887 168.738 66.2276C174.881 62.6782 180.494 62.2368 184.782 64.3719Z" fill="#1D9BF0"/>
<path opacity="0.3" d="M184.782 64.3719L176.332 59.5072C174.248 58.1338 171.8 57.4182 169.305 57.4533C168.908 57.4492 168.511 57.4672 168.116 57.5073C167.705 57.5292 167.296 57.5773 166.891 57.6514C166.468 57.6981 166.05 57.7764 165.639 57.8857C165.215 57.9757 164.738 58.0929 164.35 58.219C163.449 58.495 162.565 58.8228 161.702 59.2009C161.251 59.3991 160.801 59.6243 160.342 59.8405C159.882 60.0567 159.441 60.327 158.963 60.5882C149.856 65.8493 141.919 76.5875 137.73 88.1185L147.486 93.7489C151.675 82.2269 159.621 71.4887 168.738 66.2276C174.881 62.6782 180.494 62.2368 184.782 64.3719Z" fill="white"/>
<path d="M168.737 66.2277L167.296 67.2186C166.803 67.5313 166.328 67.8711 165.873 68.2366C164.972 68.9843 164.017 69.6599 163.17 70.4887C162.323 71.3175 161.449 72.0562 160.675 72.9301L159.476 74.2003L158.359 75.5426C152.435 82.7585 148.17 91.1882 145.864 100.235C145.558 101.361 145.378 102.514 145.135 103.649C144.892 104.784 144.819 105.956 144.648 107.109C144.477 108.262 144.477 109.433 144.423 110.604L144.342 114.099L144.243 110.595C144.243 109.424 144.243 108.244 144.288 107.073C144.333 105.902 144.495 104.721 144.666 103.559C144.837 102.397 145.018 101.235 145.297 100.091C147.401 90.8682 151.731 82.3009 157.909 75.1372C160.967 71.5538 164.632 68.5378 168.737 66.2277Z" fill="#1D9BF0"/>
<g opacity="0.5">
<path d="M168.737 66.2277L167.296 67.2186C166.803 67.5313 166.328 67.8711 165.873 68.2366C164.972 68.9843 164.017 69.6599 163.17 70.4887C162.323 71.3175 161.449 72.0562 160.675 72.9301L159.476 74.2003L158.359 75.5426C152.435 82.7585 148.17 91.1882 145.864 100.235C145.558 101.361 145.378 102.514 145.135 103.649C144.892 104.784 144.819 105.956 144.648 107.109C144.477 108.262 144.477 109.433 144.423 110.604L144.342 114.099L144.243 110.595C144.243 109.424 144.243 108.244 144.288 107.073C144.333 105.902 144.495 104.721 144.666 103.559C144.837 102.397 145.018 101.235 145.297 100.091C147.401 90.8682 151.731 82.3009 157.909 75.1372C160.967 71.5538 164.632 68.5378 168.737 66.2277Z" fill="white"/>
</g>
<defs>
<filter id="filter0_f_274_489" x="378.809" y="152.826" width="78.5017" height="52.8632" filterUnits="userSpaceOnUse" color-interpolation-filters="sRGB">
<feFlood flood-opacity="0" result="BackgroundImageFix"/>
<feBlend mode="normal" in="SourceGraphic" in2="BackgroundImageFix" result="shape"/>
<feGaussianBlur stdDeviation="4" result="effect1_foregroundBlur_274_489"/>
</filter>
<filter id="filter1_f_274_489" x="98.344" y="141.735" width="376.588" height="223.123" filterUnits="userSpaceOnUse" color-interpolation-filters="sRGB">
<feFlood flood-opacity="0" result="BackgroundImageFix"/>
<feBlend mode="normal" in="SourceGraphic" in2="BackgroundImageFix" result="shape"/>
<feGaussianBlur stdDeviation="4" result="effect1_foregroundBlur_274_489"/>
</filter>
<linearGradient id="paint0_linear_274_489" x1="0" y1="122.5" x2="332.5" y2="122.5" gradientUnits="userSpaceOnUse">
<stop offset="0.0484448" stop-color="#34F7F7"/>
<stop offset="0.962033" stop-color="#1D9BF0"/>
</linearGradient>
</defs>
</svg>
