<svg width="426" height="411" viewBox="0 0 426 411" fill="none" xmlns="http://www.w3.org/2000/svg">
<g filter="url(#filter0_f_13_959)">
<path d="M217.89 396.612C324.972 396.612 411.78 391.544 411.78 385.292C411.78 379.04 324.972 373.972 217.89 373.972C110.808 373.972 24 379.04 24 385.292C24 391.544 110.808 396.612 217.89 396.612Z" fill="#CDCDCD" fill-opacity="0.75"/>
</g>
<path opacity="0.5" d="M389.865 26.6057C439.341 79.9746 389.057 95.7778 389.865 197.585C390.646 295.131 262.017 286.949 198.382 264.489C124.618 238.456 67.2181 169.908 92.3323 90.8193C102.038 60.2781 142.257 56.614 176.82 52.3166C232.044 45.4572 308.589 -40.8861 389.865 26.6057Z" fill="url(#paint0_linear_13_959)"/>
<g clip-path="url(#clip0_13_959)">
<path d="M263.338 368.428H155.21C138.992 368.428 125.797 355.245 125.797 339.039V53.4234C125.797 37.2184 138.992 24.0344 155.21 24.0344H263.338C279.556 24.0344 292.75 37.2184 292.75 53.4234C294.763 168.118 298.196 296.558 292.75 339.039C292.75 355.245 279.556 368.428 263.338 368.428L263.338 368.428Z" fill="#3F3D56"/>
<path d="M294.258 129.093C293.572 129.093 293.014 129.651 293.014 130.337V170.122C293.014 170.808 293.572 171.365 294.258 171.365C294.945 171.365 295.503 170.808 295.503 170.122V130.337C295.503 129.651 294.945 129.093 294.258 129.093Z" fill="#3F3D56"/>
<path d="M289.951 53.4237V339.034C289.951 353.14 278.964 364.677 265.072 365.573H265.065C264.86 365.585 264.655 365.597 264.443 365.604C264.076 365.622 263.709 365.628 263.336 365.628C263.336 365.628 261.967 365.529 259.466 365.343C256.94 365.156 253.263 364.876 248.678 364.51C247.303 364.404 245.854 364.286 244.323 364.161C241.275 363.913 237.927 363.639 234.338 363.328C232.907 363.21 231.426 363.08 229.914 362.949C222.187 362.284 213.533 361.507 204.406 360.624C202.863 360.481 201.308 360.332 199.74 360.177C199.33 360.133 128.597 342.366 128.597 339.034V53.4237C128.597 38.7342 140.511 26.8296 155.212 26.8296H171.102C173.64 26.8296 175.681 28.8064 175.899 31.3365C175.917 31.5044 175.936 31.6722 175.967 31.8401C176.428 34.3826 178.761 36.1543 181.349 36.1543H237.2C239.788 36.1543 242.121 34.3826 242.581 31.8401C242.612 31.6722 242.631 31.5044 242.65 31.3365C242.867 28.8064 244.908 26.8296 247.446 26.8296H263.336C278.037 26.8296 289.951 38.7342 289.951 53.4237H289.951Z" fill="white"/>
<path d="M125.175 99.2542C124.489 99.2542 123.931 99.8118 123.931 100.497V110.444C123.931 111.13 124.489 111.687 125.175 111.687C125.861 111.687 126.419 111.13 126.419 110.444V100.497C126.419 99.8118 125.861 99.2542 125.175 99.2542Z" fill="#3F3D56"/>
<path d="M125.175 129.093C124.489 129.093 123.931 129.651 123.931 130.337V149.608C123.931 150.293 124.489 150.851 125.175 150.851C125.861 150.851 126.419 150.293 126.419 149.608V130.337C126.419 129.651 125.861 129.093 125.175 129.093V129.093Z" fill="#3F3D56"/>
<path d="M125.175 156.446C124.489 156.446 123.931 157.003 123.931 157.689V176.96C123.931 177.646 124.489 178.204 125.175 178.204C125.861 178.204 126.419 177.646 126.419 176.96V157.689C126.419 157.003 125.861 156.446 125.175 156.446Z" fill="#3F3D56"/>
<path d="M170.694 31.1836H146.848C146.733 31.1836 146.639 31.2772 146.639 31.3927V34.0828C146.639 34.1982 146.733 34.2918 146.848 34.2918H170.694C170.809 34.2918 170.903 34.1982 170.903 34.0828V31.3927C170.903 31.2772 170.809 31.1836 170.694 31.1836Z" fill="#E6E6E6"/>
<path d="M251.378 34.2918C252.752 34.2918 253.867 33.1785 253.867 31.8052C253.867 30.4319 252.752 29.3186 251.378 29.3186C250.004 29.3186 248.889 30.4319 248.889 31.8052C248.889 33.1785 250.004 34.2918 251.378 34.2918Z" fill="#E6E6E6"/>
<path d="M258.222 34.2918C259.596 34.2918 260.71 33.1785 260.71 31.8052C260.71 30.4319 259.596 29.3186 258.222 29.3186C256.847 29.3186 255.733 30.4319 255.733 31.8052C255.733 33.1785 256.847 34.2918 258.222 34.2918Z" fill="#E6E6E6"/>
<path d="M265.065 34.2918C266.44 34.2918 267.554 33.1785 267.554 31.8052C267.554 30.4319 266.44 29.3186 265.065 29.3186C263.691 29.3186 262.577 30.4319 262.577 31.8052C262.577 33.1785 263.691 34.2918 265.065 34.2918Z" fill="#E6E6E6"/>
<path d="M127.568 363.229L119.984 363.228L116.377 333.999L127.57 334L127.568 363.229Z" fill="#FFB6B6"/>
<path d="M101.585 363.057C101.349 363.454 101.225 364.737 101.225 365.199C101.225 366.619 102.377 367.771 103.799 367.771H127.285C128.254 367.771 129.041 366.985 129.041 366.016V365.039C129.041 365.039 130.202 362.103 127.81 358.483C127.81 358.483 124.837 361.317 120.395 356.878L119.085 354.507L109.602 361.437L104.346 362.083C103.196 362.225 102.177 362.061 101.585 363.057H101.585V363.057H101.585Z" fill="#2F2E41"/>
<path d="M85.6288 322.631L78.0451 322.606L74.5303 293.366L85.7232 293.402L85.6288 322.631Z" fill="#FFB6B6"/>
<path d="M59.6465 322.377C59.4091 322.773 59.2804 324.055 59.2789 324.517C59.2744 325.938 60.4231 327.093 61.8447 327.098L85.3307 327.172C86.3004 327.175 87.0891 326.392 87.0922 325.423L87.0953 324.446C87.0953 324.446 88.2665 321.513 85.886 317.886C85.886 317.886 82.904 320.711 78.4758 316.258L77.1734 313.883L67.6687 320.782L62.4106 321.412C61.2602 321.55 60.2412 321.383 59.6466 322.377H59.6465V322.377Z" fill="#2F2E41"/>
<path d="M116.507 185.783L107.065 186.457C107.065 186.457 75.0968 204.618 72.3988 208.662C69.7009 212.706 65.9912 218.435 69.3636 224.5C72.7361 230.566 70.1693 304.008 70.1693 304.008L86.2847 300.365L96.61 223.525L118.194 220.492C118.194 220.492 125.613 236.486 122.915 249.719C120.217 262.951 118.868 271.038 118.868 271.038L115.496 349.217L128.648 348.88L140.452 276.43L160.686 219.144L134.381 188.142L116.507 185.783Z" fill="#2F2E41"/>
<path d="M163.047 102.887L143.487 104.909L141.463 111.648L122.578 121.758L128.648 164.217L123.927 171.63L125.95 179.044C125.95 179.044 120.554 179.718 121.229 183.761L109.088 185.783C109.088 185.783 125.191 189.068 128.606 205.285C132.021 221.503 160.349 223.525 160.349 223.525L182.607 154.107L184.631 112.996L169.117 108.953L163.047 102.887Z" fill="#E6E6E6"/>
<path d="M152.739 100.33C161.136 100.33 167.944 93.5272 167.944 85.136C167.944 76.7448 161.136 69.9424 152.739 69.9424C144.341 69.9424 137.533 76.7448 137.533 85.136C137.533 93.5272 144.341 100.33 152.739 100.33Z" fill="#FFB6B6"/>
<path d="M144.836 98.8432C144.836 98.8432 131.346 98.1692 132.695 87.386C129.356 75.903 132.312 68.4472 142.813 65.8195C142.813 65.8195 145.51 65.1455 146.185 65.1455C155.056 65.1455 159.675 67.8413 159.675 67.8413C159.675 67.8413 159 65.172 159.675 65.8327C160.349 66.4934 161.024 67.8413 161.024 67.8413C161.024 67.8413 167.769 71.2111 167.769 77.9506C167.769 84.6901 167.769 81.9943 167.769 81.9943C167.769 81.9943 166.42 81.9943 165.071 77.9506C163.722 73.9069 154.988 76.6027 154.988 76.6027L155.628 77.9506L153.604 77.2767L151.581 79.2985L150.232 78.6246C150.232 78.6246 144.836 78.6246 145.51 78.6246C146.185 78.6246 145.715 83.2047 145.715 83.2047L140.789 88.7339L146.185 98.8432H144.836Z" fill="#2F2E41"/>
<path d="M72.9662 179.282C69.1261 181.376 67.0943 185.053 68.428 187.495C69.7617 189.937 73.9558 190.219 77.796 188.125C79.4769 187.208 80.8113 185.988 81.6686 184.701L97.8289 175.624L93.4042 168.137L77.943 177.88C76.3959 177.904 74.6472 178.366 72.9662 179.282H72.9662Z" fill="#FFB6B6"/>
<path d="M127.464 122.072C127.464 122.072 121.129 119.662 118.946 122.563C116.764 125.464 102.345 160.665 102.345 160.665L81.1906 171.704L87.1394 182.055L114.38 172.993L132.353 140.149L127.464 122.072Z" fill="#E6E6E6"/>
<path d="M327.228 237.676V309.115C327.228 315.433 322.084 320.572 315.761 320.572H139.045C132.723 320.572 127.579 315.433 127.579 309.115V237.676C127.579 231.359 132.723 226.219 139.045 226.219H315.761C322.084 226.219 327.228 231.359 327.228 237.676Z" fill="white"/>
<path d="M327.228 237.676V309.115C327.228 315.433 322.084 320.572 315.761 320.572H139.045C132.723 320.572 127.579 315.433 127.579 309.115V237.676C127.579 231.359 132.723 226.219 139.045 226.219H315.761C322.084 226.219 327.228 231.359 327.228 237.676ZM315.761 319.225C321.349 319.225 325.879 314.698 325.879 309.115V273.099C325.879 247.952 305.477 227.567 280.311 227.567H139.045C133.458 227.567 128.928 232.093 128.928 237.676V309.115C128.928 314.698 133.458 319.225 139.045 319.225H315.761Z" fill="#3F3D56"/>
<path d="M206.906 269.38H183.825C183.243 269.38 182.769 269.853 182.769 270.434C182.769 271.016 183.243 271.489 183.825 271.489H206.906C207.488 271.489 207.961 271.016 207.961 270.434C207.961 269.853 207.488 269.38 206.906 269.38Z" fill="#1D9BF0"/>
<path d="M241.979 269.38H218.898C218.316 269.38 217.843 269.853 217.843 270.434C217.843 271.016 218.316 271.489 218.898 271.489H241.979C242.561 271.489 243.035 271.016 243.035 270.434C243.035 269.853 242.561 269.38 241.979 269.38Z" fill="#1D9BF0"/>
<path d="M206.906 280.909H183.825C183.243 280.909 182.769 281.382 182.769 281.963C182.769 282.544 183.243 283.018 183.825 283.018H206.906C207.488 283.018 207.961 282.544 207.961 281.963C207.961 281.382 207.488 280.909 206.906 280.909Z" fill="#1D9BF0"/>
<path d="M241.979 280.909H218.898C218.316 280.909 217.843 281.382 217.843 281.963C217.843 282.544 218.316 283.018 218.898 283.018H241.979C242.561 283.018 243.035 282.544 243.035 281.963C243.035 281.382 242.561 280.909 241.979 280.909Z" fill="#1D9BF0"/>
<path d="M278.108 281.963C278.108 281.382 277.635 280.909 277.053 280.909H253.972C253.39 280.909 252.916 281.382 252.916 281.963C252.916 282.544 253.39 283.018 253.972 283.018H277.053C277.635 283.018 278.108 282.544 278.108 281.963Z" fill="#1D9BF0"/>
<path d="M193.416 260.175C193.998 260.175 194.471 259.702 194.471 259.12C194.471 258.539 193.998 258.066 193.416 258.066H170.335C169.753 258.066 169.279 258.539 169.279 259.12C169.279 259.702 169.753 260.175 170.335 260.175H193.416Z" fill="#1D9BF0"/>
<path d="M261.391 259.746H284.472C285.054 259.746 285.527 259.273 285.527 258.691C285.527 258.11 285.054 257.637 284.472 257.637H261.391C260.809 257.637 260.335 258.11 260.335 258.691C260.335 259.273 260.809 259.746 261.391 259.746Z" fill="#1D9BF0"/>
<path d="M203.14 259.968H250.993C251.575 259.968 252.048 259.495 252.048 258.913C252.048 258.332 251.575 257.859 250.993 257.859H203.14C202.558 257.859 202.084 258.332 202.084 258.913C202.084 259.495 202.558 259.968 203.14 259.968Z" fill="#1D9BF0"/>
<path d="M221.968 291.383H198.886C198.304 291.383 197.831 291.856 197.831 292.437C197.831 293.019 198.304 293.492 198.886 293.492H221.968C222.55 293.492 223.023 293.019 223.023 292.437C223.023 291.856 222.55 291.383 221.968 291.383Z" fill="#1D9BF0"/>
<path d="M296.513 237.138V308.577C296.513 314.894 291.369 320.034 285.047 320.034H213.551C207.228 320.034 202.084 314.894 202.084 308.577V237.138C202.084 230.82 207.228 225.68 213.551 225.68H285.047C291.369 225.68 296.513 230.82 296.513 237.138Z" fill="white"/>
<path d="M296.513 237.138V308.577C296.513 314.894 291.369 320.034 285.047 320.034H213.551C207.228 320.034 202.084 314.894 202.084 308.577V237.138C202.084 230.82 207.228 225.68 213.551 225.68H285.047C291.369 225.68 296.513 230.82 296.513 237.138ZM280.611 318.686C288.648 318.686 295.164 312.176 295.164 304.145V272.56C295.164 247.414 274.763 227.028 249.596 227.028H213.551C207.963 227.028 203.433 231.554 203.433 237.138V298.609C203.433 309.697 212.429 318.686 223.526 318.686H280.611V318.686H280.611Z" fill="#3F3D56"/>
<path d="M258.816 254.857H235.735C235.153 254.857 234.679 254.384 234.679 253.803C234.679 253.221 235.153 252.749 235.735 252.749H258.816C259.398 252.749 259.871 253.221 259.871 253.803C259.871 254.384 259.398 254.857 258.816 254.857V254.857Z" fill="#1D9BF0"/>
<path d="M258.816 277.343H235.735C235.153 277.343 234.679 276.87 234.679 276.288C234.679 275.707 235.153 275.234 235.735 275.234H258.816C259.398 275.234 259.871 275.707 259.871 276.288C259.871 276.87 259.398 277.343 258.816 277.343V277.343Z" fill="#1D9BF0"/>
<path d="M247.35 308.345H224.268C223.686 308.345 223.213 307.872 223.213 307.29C223.213 306.709 223.686 306.236 224.268 306.236H247.35C247.932 306.236 248.405 306.709 248.405 307.29C248.405 307.872 247.932 308.345 247.35 308.345V308.345Z" fill="#1D9BF0"/>
<path d="M271.202 266.107H223.349C222.767 266.107 222.294 265.634 222.294 265.053C222.294 264.471 222.767 263.999 223.349 263.999H271.202C271.784 263.999 272.257 264.471 272.257 265.053C272.257 265.634 271.784 266.107 271.202 266.107V266.107Z" fill="#1D9BF0"/>
<path d="M283.06 197.552C283.06 175.266 264.209 163.006 242.676 157.2C215.069 149.755 194.85 164.819 202.292 197.552C203.979 204.97 208.014 213.634 213.008 221.046H252.637C265.874 212.434 283.06 214.849 283.06 197.552H283.06Z" fill="#1D9BF0"/>
<path d="M242.084 239.68C244.338 235.386 247.196 232.288 250.345 229.93H213.228C222.781 243.565 235.45 252.317 242.084 239.68Z" fill="#1D9BF0"/>
<path d="M239.781 173.778C242.537 173.778 244.772 175.702 244.772 178.075V186.668H234.79V178.075C234.79 175.702 237.024 173.778 239.781 173.778ZM247.268 186.668V178.075C247.268 174.516 243.916 171.63 239.781 171.63C235.646 171.63 232.294 174.516 232.294 178.075V186.668C229.537 186.668 227.303 188.591 227.303 190.964V201.705C227.303 204.078 229.537 206.002 232.294 206.002H247.268C250.024 206.002 252.259 204.078 252.259 201.705V190.964C252.259 188.591 250.024 186.668 247.268 186.668H247.268ZM232.294 188.816H247.268C248.646 188.816 249.763 189.778 249.763 190.964V201.705C249.763 202.892 248.646 203.853 247.268 203.853H232.294C230.916 203.853 229.798 202.892 229.798 201.705V190.964C229.798 189.778 230.916 188.816 232.294 188.816Z" fill="white"/>
<path d="M176.143 223.891C175.623 228.231 177.442 232.018 180.206 232.348C182.97 232.679 185.633 229.429 186.153 225.088C186.381 223.189 186.16 221.395 185.608 219.951L187.582 201.532L178.912 200.791L177.887 219.027C177.009 220.3 176.371 221.991 176.143 223.891Z" fill="#FFB6B6"/>
<path d="M178.223 114.007C178.223 114.007 187.666 111.311 189.689 115.355C191.713 119.399 196.434 172.641 196.434 172.641L187.329 215.14L176.874 212.404L182.27 169.271L174.851 136.922L178.223 114.007Z" fill="#E6E6E6"/>
<path d="M39.4576 243.298C61.2494 243.298 78.9151 225.646 78.9151 203.872C78.9151 182.097 61.2494 164.446 39.4576 164.446C17.6658 164.446 0 182.097 0 203.872C0 225.646 17.6658 243.298 39.4576 243.298Z" fill="#1D9BF0"/>
<path d="M37.4341 186.289C40.6377 186.289 43.2347 188.552 43.2347 191.343V201.453H31.6335V191.343C31.6335 188.552 34.2306 186.289 37.4341 186.289ZM46.135 201.452V191.343C46.135 187.156 42.2395 183.761 37.4341 183.761C32.6288 183.761 28.7332 187.156 28.7332 191.343V201.452C25.5296 201.452 22.9326 203.716 22.9326 206.507V219.144C22.9326 221.935 25.5296 224.198 28.7332 224.198H46.135C49.3386 224.198 51.9356 221.935 51.9356 219.144V206.507C51.9356 203.716 49.3386 201.452 46.135 201.452H46.135ZM28.7332 203.98H46.135C47.7368 203.98 49.0353 205.111 49.0353 206.507V219.144C49.0353 220.54 47.7368 221.671 46.135 221.671H28.7332C27.1314 221.671 25.8329 220.54 25.8329 219.144V206.507C25.8329 205.111 27.1314 203.98 28.7332 203.98Z" fill="white"/>
</g>
<defs>
<filter id="filter0_f_13_959" x="10" y="359.972" width="415.78" height="50.6399" filterUnits="userSpaceOnUse" color-interpolation-filters="sRGB">
<feFlood flood-opacity="0" result="BackgroundImageFix"/>
<feBlend mode="normal" in="SourceGraphic" in2="BackgroundImageFix" result="shape"/>
<feGaussianBlur stdDeviation="7" result="effect1_foregroundBlur_13_959"/>
</filter>
<linearGradient id="paint0_linear_13_959" x1="87.2342" y1="1.83541" x2="390.761" y2="1.83541" gradientUnits="userSpaceOnUse">
<stop offset="0.0484448" stop-color="#34F7F7"/>
<stop offset="0.962033" stop-color="#1D9BF0"/>
</linearGradient>
<clipPath id="clip0_13_959">
<rect width="381.076" height="345.264" fill="white" transform="translate(0 24.0344)"/>
</clipPath>
</defs>
</svg>
