<svg width="416" height="361" viewBox="0 0 416 361" fill="none" xmlns="http://www.w3.org/2000/svg">
<g opacity="0.5">
<path d="M168.17 66.833C222.05 124.953 348.98 76.193 349.86 187.063C350.71 293.293 210.63 284.383 141.33 259.923C61.0001 231.573 -1.50992 156.923 25.8401 70.7929C36.4101 37.5329 59.1201 5.54295 96.7601 0.862955C156.9 -6.60704 139.61 36.023 168.17 66.833Z" fill="url(#paint0_linear_13_623)"/>
</g>
<g filter="url(#filter0_f_13_623)">
<path d="M208 346.56C315.082 346.56 401.89 341.492 401.89 335.24C401.89 328.988 315.082 323.92 208 323.92C100.917 323.92 14.1099 328.988 14.1099 335.24C14.1099 341.492 100.917 346.56 208 346.56Z" fill="#CDCDCD" fill-opacity="0.75"/>
</g>
<path d="M282.3 9.48999H157.98C149.259 9.48999 142.19 16.5594 142.19 25.28V319.03C142.19 327.751 149.259 334.82 157.98 334.82H282.3C291.021 334.82 298.09 327.751 298.09 319.03V25.28C298.09 16.5594 291.021 9.48999 282.3 9.48999Z" fill="#1D9BF0"/>
<path d="M296.75 64.98H295.33C293.502 64.98 292.02 66.4619 292.02 68.29V116.71C292.02 118.538 293.502 120.02 295.33 120.02H296.75C298.578 120.02 300.06 118.538 300.06 116.71V68.29C300.06 66.4619 298.578 64.98 296.75 64.98Z" fill="#1D9BF0"/>
<path d="M142.51 75.77H140.07C138.524 75.77 137.27 77.0236 137.27 78.57V94.55C137.27 96.0964 138.524 97.35 140.07 97.35H142.51C144.056 97.35 145.31 96.0964 145.31 94.55V78.57C145.31 77.0236 144.056 75.77 142.51 75.77Z" fill="#1D9BF0"/>
<path d="M235.67 5.98999H210.11V6.98999H235.67V5.98999Z" fill="#1D9BF0"/>
<path d="M246.23 5.98999H240.67V6.98999H246.23V5.98999Z" fill="#1D9BF0"/>
<path d="M279.67 9.48999H155.35C146.629 9.48999 139.56 16.5594 139.56 25.28V319.03C139.56 327.751 146.629 334.82 155.35 334.82H279.67C288.391 334.82 295.46 327.751 295.46 319.03V25.28C295.46 16.5594 288.391 9.48999 279.67 9.48999Z" fill="#1D9BF0"/>
<path d="M290.91 28.01H144.1C142.405 28.01 141.03 29.3845 141.03 31.08V313.76C141.03 315.456 142.405 316.83 144.1 316.83H290.91C292.606 316.83 293.98 315.456 293.98 313.76V31.08C293.98 29.3845 292.606 28.01 290.91 28.01Z" fill="white"/>
<path opacity="0.05" d="M259.7 42.22H166.89C158.606 42.22 151.89 48.9357 151.89 57.22V191.97C151.89 200.254 158.606 206.97 166.89 206.97H259.7C267.984 206.97 274.7 200.254 274.7 191.97V57.22C274.7 48.9357 267.984 42.22 259.7 42.22Z" fill="#1D9BF0"/>
<path opacity="0.05" d="M231.59 127C230.266 127 228.956 127.261 227.733 127.767C226.51 128.274 225.398 129.016 224.462 129.952C223.526 130.888 222.784 132 222.277 133.223C221.771 134.446 221.51 135.756 221.51 137.08V227.67C221.509 228.995 221.768 230.306 222.274 231.531C222.78 232.755 223.523 233.867 224.459 234.804C225.395 235.741 226.507 236.485 227.73 236.992C228.954 237.499 230.265 237.76 231.59 237.76H294V127H231.59Z" fill="#1D9BF0"/>
<path d="M197.79 19.0599H103.25C102.303 19.0586 101.365 19.2442 100.489 19.6061C99.614 19.968 98.8186 20.499 98.1489 21.1688C97.4791 21.8385 96.9481 22.6339 96.5862 23.5092C96.2243 24.3846 96.0387 25.3227 96.04 26.2699V74.7999C96.04 75.7468 96.2265 76.6843 96.5889 77.5591C96.9512 78.4338 97.4823 79.2287 98.1518 79.8982C98.8213 80.5677 99.6162 81.0988 100.491 81.4611C101.366 81.8234 102.303 82.0099 103.25 82.0099H170L184.47 89.3899V81.9999H197.81C199.717 81.9947 201.544 81.2341 202.892 79.8847C204.239 78.5353 204.997 76.707 205 74.7999V26.2699C205 24.3577 204.24 22.5238 202.888 21.1717C201.536 19.8196 199.702 19.0599 197.79 19.0599Z" fill="#263238"/>
<path d="M192.39 37.41H119.74C118.645 37.41 117.594 36.9749 116.82 36.2004C116.045 35.4258 115.61 34.3754 115.61 33.28C115.61 32.1847 116.045 31.1342 116.82 30.3597C117.594 29.5851 118.645 29.15 119.74 29.15H192.39C193.485 29.15 194.536 29.5851 195.31 30.3597C196.085 31.1342 196.52 32.1847 196.52 33.28C196.52 34.3754 196.085 35.4258 195.31 36.2004C194.536 36.9749 193.485 37.41 192.39 37.41ZM119.74 30.12C118.931 30.1655 118.171 30.5188 117.614 31.1073C117.058 31.6959 116.748 32.4751 116.748 33.285C116.748 34.095 117.058 34.8742 117.614 35.4627C118.171 36.0513 118.931 36.4045 119.74 36.45H192.39C193.199 36.4045 193.959 36.0513 194.516 35.4627C195.072 34.8742 195.382 34.095 195.382 33.285C195.382 32.4751 195.072 31.6959 194.516 31.1073C193.959 30.5188 193.199 30.1655 192.39 30.12H119.74Z" fill="white"/>
<path d="M192.39 51.4299H142.39C141.349 51.3782 140.369 50.9285 139.65 50.1737C138.932 49.4189 138.531 48.4169 138.531 47.3749C138.531 46.333 138.932 45.331 139.65 44.5762C140.369 43.8214 141.349 43.3716 142.39 43.3199H192.39C193.431 43.3716 194.412 43.8214 195.13 44.5762C195.848 45.331 196.249 46.333 196.249 47.3749C196.249 48.4169 195.848 49.4189 195.13 50.1737C194.412 50.9285 193.431 51.3782 192.39 51.4299ZM142.39 44.1399C141.95 44.1155 141.51 44.181 141.096 44.3325C140.682 44.484 140.304 44.7184 139.984 45.0212C139.664 45.324 139.409 45.6889 139.234 46.0936C139.06 46.4983 138.97 46.9343 138.97 47.3749C138.97 47.8156 139.06 48.2516 139.234 48.6563C139.409 49.061 139.664 49.4259 139.984 49.7287C140.304 50.0315 140.682 50.2658 141.096 50.4174C141.51 50.5689 141.95 50.6344 142.39 50.6099H192.39C192.83 50.6344 193.27 50.5689 193.684 50.4174C194.098 50.2658 194.476 50.0315 194.796 49.7287C195.117 49.4259 195.372 49.061 195.546 48.6563C195.72 48.2516 195.81 47.8156 195.81 47.3749C195.81 46.9343 195.72 46.4983 195.546 46.0936C195.372 45.6889 195.117 45.324 194.796 45.0212C194.476 44.7184 194.098 44.484 193.684 44.3325C193.27 44.181 192.83 44.1155 192.39 44.1399H142.39Z" fill="white"/>
<path d="M192.39 65.43H131C129.949 65.378 128.958 64.9239 128.233 64.1617C127.507 63.3994 127.102 62.3873 127.102 61.335C127.102 60.2826 127.507 59.2706 128.233 58.5083C128.958 57.746 129.949 57.2919 131 57.24H192.41C193.461 57.2919 194.452 57.746 195.177 58.5083C195.903 59.2706 196.308 60.2826 196.308 61.335C196.308 62.3873 195.903 63.3994 195.177 64.1617C194.452 64.9239 193.461 65.378 192.41 65.43H192.39ZM131 58.14C130.565 58.1157 130.13 58.1803 129.722 58.3298C129.313 58.4794 128.939 58.7108 128.623 59.0099C128.306 59.309 128.054 59.6694 127.882 60.0692C127.71 60.469 127.621 60.8997 127.621 61.335C127.621 61.7703 127.71 62.201 127.882 62.6008C128.054 63.0006 128.306 63.361 128.623 63.6601C128.939 63.9592 129.313 64.1906 129.722 64.3401C130.13 64.4897 130.565 64.5543 131 64.53H192.41C192.845 64.5543 193.28 64.4897 193.688 64.3401C194.097 64.1906 194.471 63.9592 194.787 63.6601C195.104 63.361 195.356 63.0006 195.528 62.6008C195.7 62.201 195.789 61.7703 195.789 61.335C195.789 60.8997 195.7 60.469 195.528 60.0692C195.356 59.6694 195.104 59.309 194.787 59.0099C194.471 58.7108 194.097 58.4794 193.688 58.3298C193.28 58.1803 192.845 58.1157 192.41 58.14H131Z" fill="white"/>
<path d="M331.66 64.4H223.28C221.368 64.4 219.534 65.1597 218.182 66.5118C216.83 67.8639 216.07 69.6978 216.07 71.61V99.44C216.07 100.387 216.257 101.324 216.619 102.199C216.981 103.074 217.512 103.869 218.182 104.538C218.851 105.208 219.646 105.739 220.521 106.101C221.396 106.464 222.333 106.65 223.28 106.65H236.62V114L251.08 106.62H331.66C333.572 106.62 335.406 105.86 336.758 104.508C338.11 103.156 338.87 101.322 338.87 99.41V71.61C338.87 69.6978 338.11 67.8639 336.758 66.5118C335.406 65.1597 333.572 64.4 331.66 64.4Z" fill="#1D9BF0"/>
<path opacity="0.7" d="M331.66 64.4H223.28C221.368 64.4 219.534 65.1597 218.182 66.5118C216.83 67.8639 216.07 69.6978 216.07 71.61V99.44C216.07 100.387 216.257 101.324 216.619 102.199C216.981 103.074 217.512 103.869 218.182 104.538C218.851 105.208 219.646 105.739 220.521 106.101C221.396 106.464 222.333 106.65 223.28 106.65H236.62V114L251.08 106.62H331.66C333.572 106.62 335.406 105.86 336.758 104.508C338.11 103.156 338.87 101.322 338.87 99.41V71.61C338.87 69.6978 338.11 67.8639 336.758 66.5118C335.406 65.1597 333.572 64.4 331.66 64.4Z" fill="white"/>
<path d="M301.48 82.61H228.83C227.735 82.61 226.684 82.1748 225.91 81.4003C225.135 80.6258 224.7 79.5753 224.7 78.48C224.7 77.3846 225.135 76.3341 225.91 75.5596C226.684 74.7851 227.735 74.35 228.83 74.35H301.48C302.575 74.35 303.626 74.7851 304.4 75.5596C305.175 76.3341 305.61 77.3846 305.61 78.48C305.61 79.5753 305.175 80.6258 304.4 81.4003C303.626 82.1748 302.575 82.61 301.48 82.61ZM228.83 75.32C227.992 75.32 227.188 75.6529 226.596 76.2455C226.003 76.8381 225.67 77.6419 225.67 78.48C225.67 79.318 226.003 80.1218 226.596 80.7144C227.188 81.307 227.992 81.64 228.83 81.64H301.48C302.318 81.64 303.122 81.307 303.715 80.7144C304.307 80.1218 304.64 79.318 304.64 78.48C304.64 77.6419 304.307 76.8381 303.715 76.2455C303.122 75.6529 302.318 75.32 301.48 75.32H228.83Z" fill="white"/>
<path d="M278.87 96.62H228.87C227.796 96.62 226.766 96.1933 226.006 95.4338C225.247 94.6743 224.82 93.6441 224.82 92.57C224.82 91.4959 225.247 90.4658 226.006 89.7062C226.766 88.9467 227.796 88.52 228.87 88.52H278.87C279.944 88.52 280.974 88.9467 281.734 89.7062C282.493 90.4658 282.92 91.4959 282.92 92.57C282.92 93.6441 282.493 94.6743 281.734 95.4338C280.974 96.1933 279.944 96.62 278.87 96.62ZM228.87 89.33C228.011 89.33 227.187 89.6714 226.579 90.279C225.971 90.8866 225.63 91.7107 225.63 92.57C225.63 93.4293 225.971 94.2534 226.579 94.861C227.187 95.4687 228.011 95.81 228.87 95.81H278.87C279.729 95.81 280.553 95.4687 281.161 94.861C281.769 94.2534 282.11 93.4293 282.11 92.57C282.11 91.7107 281.769 90.8866 281.161 90.279C280.553 89.6714 279.729 89.33 278.87 89.33H228.87Z" fill="white"/>
<path d="M123.95 258.1H294V275.86H124C122.441 275.86 120.945 275.24 119.842 274.138C118.739 273.035 118.12 271.539 118.12 269.98V263.98C118.12 262.429 118.733 260.941 119.824 259.84C120.916 258.738 122.399 258.113 123.95 258.1Z" fill="#1D9BF0"/>
<path opacity="0.2" d="M123.95 258.1H294V275.86H124C122.441 275.86 120.945 275.24 119.842 274.138C118.739 273.035 118.12 271.539 118.12 269.98V263.98C118.12 262.429 118.733 260.941 119.824 259.84C120.916 258.738 122.399 258.113 123.95 258.1Z" fill="#263238"/>
<path opacity="0.3" d="M255.55 258.1H294V275.86H255.55C253.991 275.86 252.495 275.24 251.392 274.138C250.29 273.035 249.67 271.539 249.67 269.98V263.98C249.67 262.421 250.29 260.925 251.392 259.822C252.495 258.719 253.991 258.1 255.55 258.1Z" fill="#263238"/>
<path opacity="0.3" d="M263.84 275.87L286.76 300.68C289.42 303.57 293.98 301.52 293.98 297.44V275.87H263.84Z" fill="#1D9BF0"/>
<path opacity="0.3" d="M154.19 275.87L177.11 300.68C179.78 303.57 184.34 301.52 184.34 297.44V275.87H154.19Z" fill="#1D9BF0"/>
<path d="M198.63 187.89C198.48 189.75 198.26 191.47 198.02 193.24C197.78 195.01 197.52 196.76 197.21 198.51C196.61 202.02 195.89 205.51 195.01 208.99C194.58 210.72 194.12 212.46 193.59 214.19C193.33 215.06 193.06 215.92 192.76 216.78C192.488 217.705 192.154 218.61 191.76 219.49C191.52 219.98 191.27 220.49 190.94 221.02C190.559 221.69 190.103 222.314 189.58 222.88C189.135 223.352 188.623 223.757 188.06 224.08C187.107 224.617 186.002 224.821 184.92 224.66C184.019 224.514 183.178 224.111 182.5 223.5C182.116 223.145 181.78 222.741 181.5 222.3C180.891 221.239 180.491 220.071 180.32 218.86C180.178 217.866 180.114 216.863 180.13 215.86L184.87 214.86C185.29 215.5 185.68 216.25 186.13 216.86C186.58 217.47 187.03 218.06 187.24 218.07C187.24 218.07 187.29 218 187.15 217.83C186.809 217.491 186.366 217.273 185.89 217.21C185.245 217.104 184.584 217.206 184 217.5C183.63 217.69 183.5 217.81 183.44 217.83C183.38 217.85 183.44 217.71 183.44 217.48L183.63 216.61C183.75 215.99 183.95 215.14 184.17 214.35C184.39 213.56 184.56 212.74 184.75 211.93C185.12 210.3 185.48 208.67 185.75 207.02C186.39 203.72 186.95 200.38 187.46 197.02C187.97 193.66 188.46 190.27 188.84 187.02L198.63 187.89Z" fill="#B55B52"/>
<path d="M190 178C187.73 181.38 185.45 194.48 185.45 194.48L201.39 201.48C201.39 201.48 205.87 180.15 202.3 176.24C198.62 172.15 192.55 174.21 190 178Z" fill="#1D9BF0"/>
<path opacity="0.2" d="M193.14 186.59C190.97 189.09 189.96 193.06 189.66 196.27L201.43 201.47C202.406 196.67 203.11 191.819 203.54 186.94C200.93 184.16 196.85 182.3 193.14 186.59Z" fill="black"/>
<path d="M116.48 325.88L108.55 320.52L119.64 301.25L127.57 306.61L116.48 325.88Z" fill="#B55B52"/>
<path d="M168.91 333.96L159.73 330.69L162.94 308.71L172.12 311.98L168.91 333.96Z" fill="#B55B52"/>
<path d="M159.22 329.41L169.97 329.86C170.155 329.864 170.332 329.935 170.469 330.06C170.605 330.185 170.691 330.356 170.71 330.54L171.58 338.72C171.594 338.936 171.563 339.152 171.488 339.355C171.413 339.557 171.297 339.742 171.146 339.897C170.995 340.051 170.813 340.173 170.612 340.252C170.411 340.332 170.196 340.369 169.98 340.36C166.23 340.14 164.43 340.22 159.71 340.03C156.8 339.9 150.89 340.63 146.88 340.46C142.87 340.29 142.81 336.32 144.5 336.03C152.06 334.72 154.99 331.95 157.6 329.94C158.061 329.578 158.635 329.391 159.22 329.41Z" fill="#263238"/>
<path d="M109.63 317.66L118.49 323.76C118.65 323.865 118.764 324.026 118.81 324.211C118.857 324.396 118.832 324.592 118.74 324.76L114.93 332.46C114.828 332.651 114.686 332.818 114.515 332.951C114.343 333.083 114.145 333.177 113.934 333.227C113.724 333.277 113.505 333.282 113.292 333.241C113.079 333.2 112.877 333.115 112.7 332.99C109.7 330.81 108.6 329.99 104.7 327.31C102.31 325.66 96.7001 322.26 93.3801 319.98C90.0601 317.7 92.32 314.16 93.9 314.81C100.99 317.74 104.69 317.58 107.97 317.26C108.553 317.202 109.138 317.343 109.63 317.66Z" fill="#263238"/>
<g opacity="0.2">
<path d="M119.63 301.25L113.11 312.6L121.53 317.11L127.57 306.62L119.63 301.25Z" fill="black"/>
<path d="M172.12 311.99L162.93 308.71L161 322.04L170.38 323.94L172.12 311.99Z" fill="black"/>
</g>
<path d="M190.3 182.34C190.41 189.54 191.85 203.97 197.3 232.85L236.17 231.85C235.11 216.05 234.84 206.29 241.57 173.63C236.096 172.647 230.558 172.062 225 171.88C219.11 171.609 213.208 171.76 207.34 172.33C203.8 172.75 200.03 173.4 197.03 173.98C195.106 174.362 193.377 175.409 192.146 176.937C190.916 178.466 190.262 180.378 190.3 182.34Z" fill="#1D9BF0"/>
<path opacity="0.2" d="M240.56 178.67C237.147 180.158 234.39 182.833 232.8 186.2C230.92 190.49 235.63 199.31 236.75 201.29C237.51 195.19 238.73 187.93 240.56 178.67Z" fill="black"/>
<path d="M212.77 131.2C208.9 135.53 205.4 153.87 217.41 162.2C216.89 169.85 235.22 164.81 237.41 155.46C239.47 146.82 224.39 118.19 212.77 131.2Z" fill="#263238"/>
<path d="M228.23 163.71C228.16 163.71 228.093 163.683 228.043 163.634C227.992 163.586 227.963 163.52 227.96 163.45C227.957 163.377 227.983 163.306 228.031 163.252C228.08 163.198 228.148 163.165 228.22 163.16C235.28 162.84 237.6 158.98 238.3 155.8C239.93 148.4 234.67 138.6 229.22 135.8C229.188 135.783 229.16 135.76 229.137 135.732C229.115 135.705 229.097 135.673 229.087 135.638C229.077 135.604 229.074 135.567 229.078 135.532C229.082 135.496 229.093 135.461 229.11 135.43C229.144 135.368 229.2 135.322 229.268 135.302C229.335 135.281 229.408 135.288 229.47 135.32C235.09 138.24 240.47 148.32 238.83 155.95C238.09 159.31 235.65 163.4 228.24 163.73L228.23 163.71Z" fill="#263238"/>
<path d="M230 165C228.916 164.994 227.833 164.911 226.76 164.75C226.722 164.749 226.684 164.74 226.65 164.723C226.616 164.706 226.585 164.683 226.561 164.653C226.536 164.624 226.518 164.59 226.508 164.553C226.497 164.516 226.495 164.478 226.501 164.44C226.506 164.402 226.52 164.366 226.541 164.334C226.562 164.302 226.589 164.274 226.621 164.253C226.653 164.233 226.689 164.219 226.727 164.213C226.765 164.207 226.803 164.21 226.84 164.22C234 165.22 238.67 162.87 240 157.56C241.91 149.87 236.2 138.26 229.28 135.75C229.241 135.743 229.204 135.728 229.172 135.706C229.139 135.683 229.112 135.654 229.092 135.62C229.072 135.586 229.06 135.548 229.056 135.508C229.052 135.469 229.058 135.429 229.071 135.392C229.084 135.355 229.106 135.321 229.134 135.293C229.161 135.265 229.195 135.244 229.232 135.23C229.269 135.217 229.309 135.211 229.348 135.215C229.388 135.218 229.426 135.23 229.46 135.25C236.74 137.88 242.53 149.63 240.52 157.69C239.78 160.59 237.46 165 230 165Z" fill="#263238"/>
<path d="M222.81 154.18C221.81 159.89 220.95 168.18 225.02 171.88C225.02 171.88 217.11 176.22 208.79 189.98C201.54 178.67 207.36 172.33 207.36 172.33C213.66 170.66 213.43 168.09 212.21 163.71L222.81 154.18Z" fill="#B55B52"/>
<path d="M212.84 179.26C212.681 179.893 212.334 180.464 211.845 180.898C211.356 181.331 210.748 181.607 210.1 181.69C208.94 181.69 208.28 180.69 208.64 179.33C208.796 178.694 209.142 178.122 209.631 177.687C210.12 177.253 210.731 176.979 211.38 176.9C212.54 176.88 213.19 177.93 212.84 179.26Z" fill="white"/>
<path d="M212 178C211.968 178 211.936 177.993 211.906 177.981C211.876 177.968 211.849 177.949 211.827 177.926C211.804 177.903 211.787 177.875 211.775 177.845C211.764 177.815 211.759 177.782 211.76 177.75C211.76 177.684 211.786 177.62 211.833 177.573C211.88 177.526 211.944 177.5 212.01 177.5C212.23 177.5 218.15 177.43 224.89 171.69C224.915 171.668 224.944 171.652 224.975 171.641C225.007 171.631 225.04 171.627 225.073 171.629C225.106 171.631 225.138 171.64 225.167 171.655C225.197 171.67 225.223 171.69 225.245 171.715C225.267 171.74 225.283 171.769 225.294 171.8C225.304 171.832 225.308 171.865 225.306 171.898C225.304 171.931 225.295 171.963 225.28 171.992C225.265 172.022 225.245 172.048 225.22 172.07C218.39 177.86 212.54 178 212 178Z" fill="white"/>
<path d="M210.74 177.9C210.74 177.9 207.15 177.28 207.15 172.33C207.15 172.264 207.176 172.2 207.223 172.153C207.27 172.106 207.334 172.08 207.4 172.08C207.466 172.08 207.53 172.106 207.577 172.153C207.624 172.2 207.65 172.264 207.65 172.33C207.65 176.84 210.65 177.33 210.82 177.4C210.885 177.412 210.942 177.449 210.98 177.504C211.017 177.558 211.032 177.625 211.02 177.69C211.01 177.755 210.975 177.813 210.923 177.852C210.871 177.891 210.805 177.909 210.74 177.9Z" fill="white"/>
<path opacity="0.2" d="M218.49 158.07L212.22 163.7C212.516 164.72 212.723 165.764 212.84 166.82C215.25 166.41 219.01 164.25 219.46 161.61C219.67 160.36 218.71 158.65 218.49 158.07Z" fill="black"/>
<path d="M197.21 128.4C193.31 132.76 188.4 147.88 200.49 156.22C199.97 163.92 217.77 157.82 220.96 148.68C224.15 139.54 208.91 115.3 197.21 128.4Z" fill="#263238"/>
<path d="M223.83 139.41C225.39 148.78 226.26 152.71 222.68 158.53C217.3 167.29 205.45 167.15 201.12 158.44C197.22 150.59 195.32 136.58 203.52 130.82C205.325 129.552 207.422 128.765 209.616 128.531C211.809 128.297 214.025 128.626 216.056 129.485C218.088 130.344 219.867 131.706 221.227 133.442C222.587 135.178 223.483 137.232 223.83 139.41Z" fill="#B55B52"/>
<path d="M201.44 129.68C202.01 134.68 211.86 147.54 224.16 144.55C228.81 149.3 235.09 134.36 231.05 127.07C227.01 119.78 199.73 114.64 201.44 129.68Z" fill="#263238"/>
<path d="M197.31 232.85C178.41 231.59 139.55 236.38 133.55 254.85C124.55 282.67 114.05 306.42 114.05 306.42L126.19 312.23C126.19 312.23 149.54 283.89 156.72 265.42C170.72 266.98 189.28 262.62 194.87 261.93C215.39 259.42 223.8 246.14 225.77 232.11L197.31 232.85Z" fill="#263238"/>
<path opacity="0.2" d="M181.64 242.2C166.46 241.97 148.05 251.59 150.12 278.52C152.657 274.335 154.864 269.958 156.72 265.43C161.463 265.865 166.237 265.865 170.98 265.43C175.77 254.82 185.29 242.26 181.64 242.2Z" fill="black"/>
<path d="M125.28 315.26L111.82 308.22L113.07 303.41L128.42 310.77L125.28 315.26Z" fill="#1D9BF0"/>
<path opacity="0.4" d="M125.28 315.26L111.82 308.22L113.07 303.41L128.42 310.77L125.28 315.26Z" fill="black"/>
<path d="M207.57 232.59C207.57 232.59 160.15 243.34 160.3 257.5C160.63 287.78 160.03 317.05 160.03 317.05L173 319.62C173 319.62 183.81 285.34 183.9 266.99C204.16 259.41 243.9 276.59 236.21 231.85L207.57 232.59Z" fill="#263238"/>
<path d="M174.29 321.73L158.36 318.79L157.59 313.47L176.48 316.09L174.29 321.73Z" fill="#1D9BF0"/>
<path opacity="0.4" d="M174.29 321.73L158.36 318.79L157.59 313.47L176.48 316.09L174.29 321.73Z" fill="black"/>
<path d="M209.66 145.26C209.83 146.01 209.57 146.71 209.08 146.82C208.59 146.93 208.08 146.42 207.88 145.67C207.68 144.92 207.96 144.21 208.45 144.1C208.94 143.99 209.49 144.5 209.66 145.26Z" fill="#263238"/>
<path d="M201.15 147.22C201.33 147.97 201.07 148.67 200.58 148.78C200.09 148.89 199.58 148.38 199.37 147.63C199.16 146.88 199.46 146.17 199.95 146.06C200.44 145.95 201 146.46 201.15 147.22Z" fill="#263238"/>
<path d="M200.17 146.05L198.25 145.95C198.25 145.95 199.5 147.14 200.17 146.05Z" fill="#263238"/>
<path d="M204.09 148C203.815 149.871 203.284 151.695 202.51 153.42C202.957 153.606 203.44 153.692 203.923 153.671C204.407 153.65 204.88 153.524 205.31 153.3L204.09 148Z" fill="#A02724"/>
<path d="M210.09 155.28C209.736 155.418 209.371 155.528 209 155.61C208.971 155.617 208.941 155.619 208.912 155.614C208.882 155.609 208.854 155.599 208.829 155.583C208.803 155.567 208.782 155.546 208.765 155.522C208.748 155.497 208.736 155.469 208.73 155.44C208.723 155.411 208.721 155.381 208.726 155.351C208.731 155.322 208.741 155.294 208.757 155.268C208.773 155.243 208.794 155.221 208.818 155.204C208.843 155.188 208.871 155.176 208.9 155.17C209.841 154.976 210.723 154.562 211.473 153.962C212.224 153.363 212.823 152.595 213.22 151.72C213.244 151.667 213.287 151.625 213.341 151.603C213.395 151.581 213.455 151.58 213.51 151.6C213.564 151.62 213.609 151.66 213.635 151.712C213.661 151.764 213.666 151.824 213.65 151.88C213.312 152.654 212.823 153.354 212.212 153.938C211.601 154.521 210.879 154.978 210.09 155.28Z" fill="#263238"/>
<path d="M227.5 146.65C227.215 148.466 226.227 150.096 224.75 151.19C222.75 152.62 220.95 151.06 220.8 148.76C220.65 146.69 221.51 143.45 223.8 142.93C224.311 142.821 224.84 142.841 225.341 142.99C225.841 143.139 226.296 143.411 226.665 143.781C227.033 144.151 227.302 144.608 227.448 145.109C227.594 145.61 227.612 146.14 227.5 146.65Z" fill="#B55B52"/>
<path d="M210.94 142C210.847 142.02 210.751 142.013 210.662 141.979C210.573 141.945 210.496 141.887 210.44 141.81C209.3 140.05 206.6 139.93 206.57 139.93C206.45 139.925 206.336 139.873 206.254 139.785C206.172 139.697 206.127 139.58 206.13 139.46C206.135 139.34 206.187 139.226 206.275 139.144C206.363 139.062 206.48 139.017 206.6 139.02C206.73 139.02 209.8 139.16 211.2 141.31C211.233 141.36 211.257 141.415 211.268 141.474C211.28 141.533 211.28 141.594 211.267 141.652C211.255 141.711 211.232 141.767 211.198 141.816C211.164 141.865 211.12 141.908 211.07 141.94L210.94 142Z" fill="#263238"/>
<path d="M196.66 143.84C196.567 143.882 196.462 143.892 196.363 143.866C196.264 143.841 196.177 143.783 196.115 143.702C196.053 143.62 196.021 143.52 196.024 143.418C196.027 143.316 196.064 143.218 196.13 143.14C196.554 142.559 197.111 142.088 197.755 141.768C198.399 141.448 199.111 141.287 199.83 141.3C199.889 141.304 199.947 141.319 200 141.345C200.053 141.372 200.101 141.408 200.14 141.453C200.179 141.497 200.209 141.549 200.228 141.605C200.247 141.661 200.254 141.721 200.25 141.78C200.246 141.839 200.231 141.897 200.205 141.95C200.178 142.003 200.142 142.051 200.097 142.09C200.053 142.129 200.001 142.158 199.945 142.177C199.889 142.196 199.829 142.204 199.77 142.2C199.2 142.199 198.638 142.334 198.131 142.593C197.623 142.852 197.184 143.228 196.85 143.69C196.802 143.756 196.736 143.808 196.66 143.84Z" fill="#263238"/>
<path d="M154.16 330.45C154.129 330.429 154.101 330.401 154.08 330.37C153.926 330.213 153.814 330.02 153.757 329.808C153.699 329.596 153.697 329.373 153.75 329.16C153.767 329.023 153.821 328.893 153.905 328.784C153.99 328.675 154.102 328.591 154.23 328.54C155.36 328.08 158.23 330.08 158.51 330.3C158.547 330.326 158.576 330.363 158.592 330.406C158.608 330.449 158.611 330.495 158.6 330.54C158.589 330.582 158.567 330.621 158.535 330.651C158.503 330.681 158.463 330.702 158.42 330.71C157.21 331 155.08 331.21 154.16 330.45ZM157.79 330.36C156.64 329.6 155 328.72 154.4 328.96C154.343 328.982 154.293 329.02 154.258 329.07C154.222 329.119 154.202 329.179 154.2 329.24C154.158 329.38 154.154 329.53 154.189 329.672C154.224 329.815 154.297 329.945 154.4 330.05C154.86 330.53 156.11 330.62 157.79 330.36Z" fill="#263238"/>
<path d="M158 330.47C157.09 329.71 155.77 327.88 156 326.92C156.043 326.745 156.145 326.59 156.289 326.48C156.433 326.371 156.61 326.315 156.79 326.32C156.972 326.297 157.156 326.316 157.329 326.375C157.502 326.434 157.66 326.531 157.79 326.66C158.79 327.66 158.69 330.38 158.68 330.5C158.679 330.539 158.667 330.578 158.646 330.611C158.625 330.645 158.595 330.672 158.56 330.69C158.527 330.709 158.489 330.719 158.45 330.719C158.411 330.719 158.374 330.709 158.34 330.69C158.221 330.627 158.107 330.553 158 330.47ZM157.37 326.94C157.219 326.815 157.025 326.754 156.83 326.77C156.54 326.77 156.47 326.92 156.44 327.03C156.29 327.68 157.31 329.27 158.19 330.03C158.19 329.11 158.02 327.55 157.42 326.98L157.37 326.94Z" fill="#263238"/>
<path d="M105.72 317C105.001 316.597 104.443 315.957 104.14 315.19C104.091 314.991 104.092 314.782 104.143 314.584C104.193 314.385 104.292 314.202 104.43 314.05C104.507 313.951 104.608 313.874 104.724 313.825C104.839 313.776 104.965 313.757 105.09 313.77C106.42 313.91 108.45 317.68 108.68 318.11C108.706 318.148 108.72 318.194 108.72 318.24C108.72 318.286 108.706 318.332 108.68 318.37C108.647 318.404 108.605 318.427 108.558 318.436C108.511 318.445 108.463 318.439 108.42 318.42C107.479 318.03 106.575 317.555 105.72 317ZM105.43 314.4C105.318 314.307 105.183 314.245 105.04 314.22C104.99 314.214 104.939 314.221 104.893 314.243C104.847 314.264 104.808 314.298 104.78 314.34C104.687 314.439 104.621 314.559 104.586 314.69C104.551 314.821 104.549 314.958 104.58 315.09C104.76 315.85 106.01 316.81 107.95 317.73C107.31 316.485 106.457 315.361 105.43 314.41V314.4Z" fill="#263238"/>
<path d="M108.35 318.41C108.35 318.41 108.35 318.41 108.29 318.34C107.64 317.27 106.95 314.34 107.71 313.49C107.89 313.31 108.22 313.15 108.78 313.49C108.975 313.594 109.147 313.736 109.287 313.908C109.426 314.08 109.529 314.277 109.59 314.49C110.01 315.99 108.73 318.24 108.68 318.34C108.659 318.374 108.63 318.402 108.595 318.422C108.56 318.441 108.52 318.451 108.48 318.45C108.434 318.451 108.388 318.437 108.35 318.41ZM108.68 313.92L108.56 313.85C108.19 313.65 108.08 313.77 108.04 313.85C107.58 314.32 107.92 316.53 108.48 317.77C109.027 316.827 109.261 315.735 109.15 314.65C109.092 314.356 108.924 314.095 108.68 313.92Z" fill="#263238"/>
<path d="M208.68 144.09L206.75 143.99C206.75 143.99 208 145.18 208.68 144.09Z" fill="#263238"/>
<path d="M236.7 229.55L237.79 233.01C237.93 233.27 237.62 233.56 237.17 233.57L197.17 234.57C196.82 234.57 196.53 234.41 196.5 234.19L196.06 230.72C196.06 230.48 196.33 230.27 196.71 230.26L236.07 229.26C236.191 229.249 236.313 229.271 236.423 229.321C236.534 229.372 236.629 229.451 236.7 229.55Z" fill="white"/>
<path d="M231.4 234.1H232.46C232.67 234.1 232.82 233.98 232.8 233.85L232.19 229.34C232.19 229.21 231.99 229.1 231.78 229.11H230.78C230.57 229.11 230.41 229.23 230.43 229.36L231.04 233.86C231 234 231.19 234.1 231.4 234.1Z" fill="#263238"/>
<path d="M200.13 234.9H201.19C201.4 234.9 201.56 234.78 201.54 234.65L200.93 230.14C200.93 230.01 200.72 229.91 200.51 229.91H199.51C199.3 229.91 199.14 230.03 199.16 230.16L199.77 234.67C199.74 234.8 199.92 234.9 200.13 234.9Z" fill="#263238"/>
<path d="M215.7 234.5H216.76C216.97 234.5 217.12 234.38 217.11 234.25L216.5 229.74C216.5 229.61 216.29 229.51 216.08 229.51H215.03C214.82 229.51 214.66 229.63 214.68 229.76L215.29 234.27C215.31 234.4 215.49 234.5 215.7 234.5Z" fill="#263238"/>
<path d="M211.56 211.33L201.88 207.67L205.13 216.85C205.13 216.85 211.19 217.85 213.62 214.7L211.56 211.33Z" fill="#B55B52"/>
<path d="M245.57 186.8C245.98 188.19 246.25 189.37 246.51 190.66C246.77 191.95 247 193.2 247.18 194.48C247.565 197.085 247.752 199.716 247.74 202.35C247.762 205.158 247.426 207.957 246.74 210.68C246.541 211.416 246.3 212.141 246.02 212.85C245.682 213.793 245.221 214.687 244.65 215.51C243.458 217.11 241.849 218.351 240 219.1C238.546 219.693 237.019 220.089 235.46 220.28C234.078 220.47 232.684 220.554 231.29 220.53C228.688 220.48 226.094 220.233 223.53 219.79C218.577 218.943 213.713 217.641 209 215.9L210.3 211.23C214.935 211.993 219.609 212.501 224.3 212.75C226.543 212.866 228.791 212.836 231.03 212.66C232.91 212.565 234.757 212.128 236.48 211.37C236.89 211.192 237.239 210.896 237.48 210.52C237.675 209.89 237.832 209.249 237.95 208.6C238.266 206.59 238.357 204.55 238.22 202.52C238.1 200.318 237.86 198.125 237.5 195.95C237.32 194.84 237.13 193.73 236.91 192.63C236.69 191.53 236.42 190.37 236.2 189.42L245.57 186.8Z" fill="#B55B52"/>
<path d="M241.58 173.63C245.5 174.71 248.52 190.63 248.52 190.63L233.67 198C233.67 198 229.9 188.15 231.4 183.07C233 177.78 237.1 172.39 241.58 173.63Z" fill="#1D9BF0"/>
<path d="M199.26 221.59H190.53C190.207 221.574 189.898 221.456 189.646 221.253C189.395 221.05 189.214 220.772 189.13 220.46L184.59 202C184.544 201.869 184.531 201.728 184.552 201.591C184.573 201.454 184.627 201.324 184.71 201.212C184.793 201.101 184.902 201.011 185.028 200.951C185.153 200.892 185.291 200.864 185.43 200.87H194.17C194.493 200.886 194.802 201.004 195.054 201.207C195.305 201.41 195.486 201.688 195.57 202L200.11 220.45C200.156 220.583 200.169 220.724 200.147 220.863C200.126 221.001 200.07 221.132 199.987 221.245C199.903 221.357 199.793 221.447 199.666 221.508C199.54 221.568 199.4 221.596 199.26 221.59Z" fill="#263238"/>
<path d="M180.94 210.92L186.26 208.67L185.09 219C184.586 219.186 184.068 219.33 183.54 219.43C182.763 219.573 181.963 219.507 181.22 219.24C180.476 218.973 179.817 218.514 179.309 217.909C178.801 217.305 178.462 216.576 178.327 215.798C178.192 215.02 178.266 214.22 178.54 213.48C178.747 212.914 179.067 212.395 179.479 211.955C179.891 211.515 180.388 211.163 180.94 210.92Z" fill="#B55B52"/>
<path d="M190.97 210.02L189.99 217.89L185.09 218.99L186.26 208.67L190.97 210.02Z" fill="#B55B52"/>
<path d="M194.2 210.07L197.33 217.61L205.13 216.85L201.88 207.67L194.2 210.07Z" fill="#B55B52"/>
<defs>
<filter id="filter0_f_13_623" x="0.109863" y="309.92" width="415.78" height="50.64" filterUnits="userSpaceOnUse" color-interpolation-filters="sRGB">
<feFlood flood-opacity="0" result="BackgroundImageFix"/>
<feBlend mode="normal" in="SourceGraphic" in2="BackgroundImageFix" result="shape"/>
<feGaussianBlur stdDeviation="7" result="effect1_foregroundBlur_13_623"/>
</filter>
<linearGradient id="paint0_linear_13_623" x1="19.3164" y1="137.825" x2="349.864" y2="137.825" gradientUnits="userSpaceOnUse">
<stop offset="0.0484448" stop-color="#34F7F7"/>
<stop offset="0.962033" stop-color="#1D9BF0"/>
</linearGradient>
</defs>
</svg>
